<?xml version="1.0" encoding="UTF-8"?>
<svg id="Capa_2" data-name="Capa 2" xmlns="http://www.w3.org/2000/svg" viewBox="0 0 123.34 123.33">
  <defs>
    <style>
      .cls-1 {
        fill: #fff;
      }
    </style>
  </defs>
  <g id="Capa_1-2" data-name="Capa 1">
    <path id="Icon_fa-solid-headset" data-name="Icon fa-solid-headset" class="cls-1" d="m61.67,11.57c-27.67-.01-50.11,22.41-50.12,50.08,0,.01,0,.02,0,.04v9.62c-.13,3.19-2.83,5.67-6.02,5.53-3-.13-5.41-2.53-5.53-5.53v-9.64C0,27.61,27.61,0,61.67,0s61.67,27.61,61.67,61.67v34.71c0,11.71-9.5,21.2-21.21,21.2,0,0,0,0-.01,0l-26.57-.03c-2.07,3.58-5.89,5.78-10.02,5.78h-7.71c-6.39,0-11.56-5.18-11.56-11.56s5.18-11.56,11.56-11.56h7.71c4.13,0,7.95,2.2,10.02,5.78l26.59.02c5.32,0,9.64-4.31,9.64-9.63h0v-34.71c0-27.67-22.42-50.1-50.09-50.11,0,0-.01,0-.02,0Zm-26.98,38.55h3.85c4.25,0,7.7,3.45,7.7,7.7v26.98c0,4.25-3.44,7.7-7.69,7.71,0,0-.01,0-.02,0h-3.85c-8.51,0-15.41-6.91-15.42-15.42v-11.56c.01-8.51,6.91-15.4,15.42-15.41Zm53.96,0c8.51,0,15.41,6.91,15.42,15.42v11.56c0,8.51-6.91,15.41-15.42,15.42h-3.85c-4.25,0-7.7-3.44-7.71-7.69,0,0,0-.01,0-.02v-26.99c0-4.25,3.45-7.7,7.7-7.7,0,0,0,0,0,0h3.85Z"/>
  </g>
</svg>