<?xml version="1.0" encoding="UTF-8"?>
<svg id="Capa_2" data-name="Capa 2" xmlns="http://www.w3.org/2000/svg" viewBox="0 0 155.29 182.68">
  <defs>
    <style>
      .cls-1 {
        fill: #fff;
      }
    </style>
  </defs>
  <g id="Capa_1-2" data-name="Capa 1">
    <path id="Icon_material-escalator-warning" data-name="Icon material-escalator-warning" class="cls-1" d="m31.97,0c10.09,0,18.27,8.18,18.27,18.27s-8.18,18.27-18.27,18.27S13.7,28.36,13.7,18.27C13.73,8.19,21.89.03,31.97,0Zm82.21,68.51c0,7.57,6.13,13.7,13.7,13.7s13.7-6.13,13.7-13.7-6.13-13.7-13.7-13.7c-7.56-.01-13.69,6.11-13.7,13.66,0,.01,0,.03,0,.04Zm27.4,22.83h-25.94c-5.49.11-10.52,3.09-13.24,7.86l-8.41,12.06-32.61-56.46c-3.25-5.57-9.17-9.03-15.62-9.14h-27.5C8.19,45.7.03,53.86,0,63.94v54.8h13.7v63.94h45.68v-94.91l23.1,40.1h20.1l7.03-10.05v64.85h36.54v-45.67h9.14v-31.97c-.02-7.56-6.15-13.69-13.71-13.7h0Z"/>
  </g>
</svg>