<svg id="Grupo_1210" data-name="Grupo 1210" xmlns="http://www.w3.org/2000/svg" xmlns:xlink="http://www.w3.org/1999/xlink" width="132.705" height="70.92" viewBox="0 0 132.705 132.965">
  <defs>
    <clipPath id="clip-path">
      <rect id="Rectángulo_484" data-name="Rectángulo 484" width="132.705" height="132.965" fill="none"/>
    </clipPath>
  </defs>
  <g id="Grupo_1209" data-name="Grupo 1209" clip-path="url(#clip-path)">
    <path id="Trazado_356" data-name="Trazado 356" d="M16.533,132.965c-.02-3.939-.051-7.879-.056-11.818-.009-7.275.023-14.55-.028-21.824-.009-1.2.363-1.678,1.541-1.5a.746.746,0,0,0,.259,0c.681-.145,1.737.42,1.986-.4a3.21,3.21,0,0,0-.421-3.193c-2.922-3.425-5.8-6.889-8.722-10.315a6.7,6.7,0,0,1-1.381-2.587Q4.965,64.755.135,48.206a1.607,1.607,0,0,1,.734-2.133A11.054,11.054,0,0,1,16.757,49.23c.138.212.27.429.452.719.477-.5.3-1.034.3-1.5.014-8.011-.006-16.022.018-24.033.012-4.116,2.2-7.043,5.909-7.948a6.911,6.911,0,0,1,4.578.332c1.04.474,1.254.145,1.229-.863a7.438,7.438,0,0,1,4.694-7.531,7.606,7.606,0,0,1,10.282,4.657c.376,1.218.781,1.392,1.793.8a1.939,1.939,0,0,1,1.108-.323c1.923.249,2.894-.785,3.948-2.265a7.217,7.217,0,0,1,8.63-2.29c1.154.455,1.337.125,1.282-.918A7.727,7.727,0,0,1,67.21.123a7.641,7.641,0,0,1,8.754,5.2c.356,1.187.71,1.172,1.727.784a7.609,7.609,0,0,1,10.342,6.6,8.641,8.641,0,0,1,.051.908c-.017.736.136.973.974.672,5.631-2.023,10.6,1.428,10.743,7.425.028,1.168.021,2.338.008,3.507-.007.63.13.885.893.832a7.59,7.59,0,0,1,8.158,5.6c.223.7.35.955,1.192.622,5.372-2.125,10.5,1.215,10.82,7.036.057,1.04.134,1.328,1.272.892a7.621,7.621,0,0,1,10.264,5.644,1.454,1.454,0,0,0,.3.838V90.862a7.592,7.592,0,0,0-.235,1.121,39.508,39.508,0,0,1-6.909,20.093,4.065,4.065,0,0,0-.33,3.6c.248.791,1.472.227,2.248.359a1.363,1.363,0,0,0,.389,0c.839-.1,1.142.245,1.118,1.1-.053,1.9-.038,3.807-.011,5.71.046,3.371-.131,6.743.092,10.112h-3.9c.012-3.89-.025-7.782.063-11.67.028-1.242-.315-1.609-1.579-1.6-8.6.054-17.206.027-25.809.028-1.675,0-1.661,0-1.685,1.71-.053,3.844.13,7.69-.1,11.533H92.421c.006-12.647,0-25.294.041-37.941,0-1.149-.432-1.34-1.444-1.338q-18.645.042-37.291.018c-1.82,0-1.821,0-1.822,1.839q-.014,18.71-.027,37.42H48.24c-.006-10-.029-20,0-30,0-1.125-.293-1.485-1.455-1.478q-12.531.071-25.063,0c-1.271-.008-1.589.376-1.584,1.611.048,9.956.028,19.912.028,29.868ZM96.079,43.308q0-10.46,0-20.92a12.165,12.165,0,0,0-.025-1.3,4.01,4.01,0,0,0-3.481-3.65,3.952,3.952,0,0,0-4.165,2.435,6.435,6.435,0,0,0-.318,2.558c0,7.58.007,15.159-.008,22.739-.005,2.686.272,2.145-2.286,2.278-1.141.059-1.451-.268-1.446-1.425.047-10.525.028-21.05.026-31.575a12.617,12.617,0,0,0-.03-1.428,4.02,4.02,0,0,0-3.483-3.653A3.96,3.96,0,0,0,76.7,11.81a6.487,6.487,0,0,0-.33,2.556q0,15.528,0,31.056c0,.39-.02.78,0,1.169.026.6-.223.882-.843.837-.388-.028-.779,0-1.169,0-1.679,0-1.681,0-1.681-1.66q0-18.516,0-37.033a8.722,8.722,0,0,0-.107-1.678,3.947,3.947,0,0,0-7.813.162,12.082,12.082,0,0,0-.087,1.812q-.007,18.126-.008,36.253c0,2.541.262,2.03-2.121,2.169-1.237.072-1.6-.267-1.594-1.55.056-9.788.043-19.577.021-29.366a4.01,4.01,0,1,0-7.995-.092c-.031,11.391-.007,22.782-.032,34.174,0,.833.308,1.194,1.087,1.249a15.1,15.1,0,0,1,3.655.845A19.285,19.285,0,0,1,70.59,70.195c.007.373.17.991-.24,1.042a10.056,10.056,0,0,1-3.093.006c-.592-.113-.373-.984-.42-1.5a15.468,15.468,0,0,0-15.9-14.326,1.4,1.4,0,0,1-1.572-1.141c-1.035-2.98-2.061-5.967-3.209-8.9a8.409,8.409,0,0,0-9.906-5.15c-1.037.264-1.372.62-1,1.766,3.241,9.988,6.418,20,9.606,30a5.7,5.7,0,0,0,1.113,2.02c2.586,3.031,5.057,6.165,7.738,9.107,1.516,1.664,2.509,3.346,2.1,5.65-.174.994.334,1.242,1.264,1.24q15.073-.036,30.146.007c1.141,0,1.465-.439,1.312-1.451a7.219,7.219,0,0,1,1.539-5.28A35.5,35.5,0,0,0,96.07,63.319c.039-6.67.008-13.34.009-20.01m32.762,26.2c0-7.277.011-14.553-.006-21.83a3.964,3.964,0,0,0-4.593-4.2c-2.025.277-3.329,1.912-3.333,4.268q-.019,11.564-.006,23.129c0,2.595,0,2.553-2.626,2.567-.924.005-1.166-.284-1.155-1.18.045-3.854.019-7.71.019-11.564q0-10.525-.006-21.05a4.005,4.005,0,0,0-3.787-4.285c-2.428-.127-4.146,1.672-4.149,4.412q-.017,15.593-.005,31.186c0,2.482,0,2.415-2.455,2.49-1.153.035-1.325-.4-1.32-1.418.04-7.45.021-14.9.021-22.35,0-5.2.01-10.4-.006-15.593a4.13,4.13,0,0,0-3.238-4.285c-1.767-.368-2.388.115-2.389,1.875,0,10.308-.029,20.617.007,30.925a40.713,40.713,0,0,1-6.972,23.385,2.938,2.938,0,0,0-.358.539,4.362,4.362,0,0,0-.059,3.167c.272.65,1.344.262,2.055.283,1.672.049,1.678.022,1.679,1.767,0,7.623.016,15.246-.016,22.869,0,1.011.2,1.453,1.345,1.446q11.239-.07,22.479,0c1.123.007,1.425-.391,1.348-1.432a6.86,6.86,0,0,1,1.141-4.749,35.712,35.712,0,0,0,6.389-21.01c-.02-6.454,0-12.907,0-19.361M49.257,42.382c0-8.24,0-16.33.005-24.42,0-.727-.378-.858-1-.81a4.08,4.08,0,0,0-3.631,4.328c-.032,2.815,0,5.63-.015,8.445,0,.376.149.952-.242,1.069a5.437,5.437,0,0,1-3.071.026c-.7-.208-.347-1.067-.35-1.624-.028-4.46,0-8.921-.024-13.381-.015-2.623-1.61-4.414-3.893-4.465-2.371-.052-4.1,1.745-4.113,4.369-.026,4.46.016,8.921-.017,13.381-.02,2.637.521,2.3-2.441,2.38-.974.026-1.28-.309-1.255-1.268.056-2.12.075-4.246-.01-6.365a3.989,3.989,0,1,0-7.974.1c-.029,11.433,0,22.865-.033,34.3,0,.864.363,1.109,1.11,1.232A19.2,19.2,0,0,1,38.8,76.719c.3,2.43.3,2.374-2.135,2.447-1.074.032-1.484-.228-1.6-1.372-.9-8.822-6.943-14.407-15.749-14.573a1.58,1.58,0,0,1-1.731-1.284c-1.075-3.149-2.19-6.286-3.38-9.393a7.264,7.264,0,0,0-8.8-4.561c-.88.244-1.277.545-.96,1.624,2.968,10.116,5.875,20.25,8.786,30.383a4.719,4.719,0,0,0,.987,1.792c2.5,2.936,4.89,5.964,7.482,8.811,1.647,1.808,2.849,3.633,2.385,6.2-.124.681.181,1.037.934,1.036q11.108-.018,22.216,0c.712,0,1.016-.268,1-1-.033-1.212-.034-2.426,0-3.637.03-.986-.4-2.177.2-2.9s1.8-.18,2.725-.3c.372-.047.9.057.916-.482.03-1.092.3-2.19-.6-3.189-1.795-1.994-3.358-4.206-5.232-6.118a27.073,27.073,0,0,1-6.5-11.718c-2.8-9.443-5.923-18.791-8.924-28.175-.216-.676-.454-1.209.345-1.781a12.24,12.24,0,0,1,17.068,2.812c.239.334.349.8,1.022,1.045" transform="translate(0 0)" fill="#fff"/>
    <path id="Trazado_357" data-name="Trazado 357" d="M164.133,285.411c-2.189-.035-1.825.236-1.834-1.985-.007-1.786-.366-1.723,2-1.715,2.174.008,1.757-.092,1.766,2.079.008,1.814.3,1.6-1.937,1.621" transform="translate(-105.934 -183.9)" fill="#fff"/>
    <path id="Trazado_358" data-name="Trazado 358" d="M164.15,307.9c-2.209-.034-1.841.227-1.848-1.97-.006-1.818-.367-1.728,1.989-1.721,2.178.006,1.773-.12,1.781,2.054.007,1.817.3,1.615-1.922,1.636" transform="translate(-105.935 -198.588)" fill="#fff"/>
    <path id="Trazado_359" data-name="Trazado 359" d="M74.717,305.958c-.044,2.175.352,1.932-1.917,1.936-2.2,0-1.858.22-1.859-1.85,0-1.937-.378-1.827,1.9-1.836,1.872-.008,1.872,0,1.873,1.75" transform="translate(-46.295 -198.586)" fill="#fff"/>
    <path id="Trazado_360" data-name="Trazado 360" d="M74.727,328.639c-.039,1.932.325,1.746-1.987,1.738-2.144-.007-1.78.246-1.79-2.052-.008-1.745-.315-1.632,1.974-1.629,2.179,0,1.761-.086,1.8,1.943" transform="translate(-46.305 -213.266)" fill="#fff"/>
  </g>
</svg>
