<svg xmlns="http://www.w3.org/2000/svg" xmlns:xlink="http://www.w3.org/1999/xlink" width="80.802" height="75.844" viewBox="0 0 159.612 112.236">
  <defs>
    <clipPath id="clip-path">
      <path id="Trazado_181" data-name="Trazado 181" d="M3534.684,362.924c0-2.835.416-3.174,3.2-2.608,1.7.345,3.116,3.8,1.955,4.982a1.747,1.747,0,0,1-1.558.3,3.132,3.132,0,0,0-.859-.025c-2.741,0-2.741,0-2.741-2.648m10.145-.718c.42-1.582,3.875-2.9,4.948-1.8.635.654.146,1.694.262,2.428,0,2.733,0,2.733-2.655,2.733-2.771,0-3.273-.661-2.555-3.366m-67.324-33.452c-3.51,11.732-6.87,23.509-10.316,35.26-1.532,5.224-3.115,10.433-4.675,15.648v1.559c.7.844,1.413,1.705,2.688,1.476,1.407-.253,1.874-1.337,2.166-2.555.036-.151.086-.3.13-.448q7.188-24.659,14.381-49.317a10.143,10.143,0,0,1,9.53-7.632c4.244-.191,7.754,2.247,9.525,6.656,3.829,9.534,7.667,19.065,11.443,28.62a3.085,3.085,0,0,0,3.284,2.243c3.482-.062,6.966-.019,10.449-.019,4.019,0,3.987,0,3.922,4.007-.016,1-.287,1.349-1.327,1.34-2.532-.023-5.064-.02-7.6-.017-2.666,0-5.333.006-8-.021a7.561,7.561,0,0,1-6.634-3.714c-.75-1.185-1.456-2.4-2.177-3.6q-4.849-8.083-9.691-16.17a2.468,2.468,0,0,0-2.681-1.434,2.225,2.225,0,0,0-1.862,1.859,3.068,3.068,0,0,0,.723,2.313c3.769,6.279,7.564,12.541,11.3,18.841a12.706,12.706,0,0,0,11.727,6.605q28.539-.024,57.078,0a12.8,12.8,0,0,0,11.83-6.71c3.668-6.217,7.417-12.387,11.127-18.58a8.8,8.8,0,0,0,.661-1.232,2.107,2.107,0,0,0-.967-2.811,2.171,2.171,0,0,0-2.946.495,7.669,7.669,0,0,0-.769,1.169c-3.743,6.233-7.507,12.454-11.215,18.709a8.159,8.159,0,0,1-7.588,4.282c-4.158-.028-8.317-.006-12.476-.006-3.9,0-3.865,0-3.851-3.944,0-1.085.31-1.42,1.4-1.4,4.106.059,8.213.024,12.32.023,2.824,0,3.111-.194,4.147-2.783q5.636-14.093,11.262-28.191a9.726,9.726,0,0,1,6.093-6.036c5.515-1.854,11.227,1.352,12.959,7.271q7.3,24.95,14.582,49.908c.529,1.81,1.614,2.606,2.963,2.238,1.475-.4,2.041-1.665,1.507-3.5q-7.332-25.184-14.7-50.36a14.693,14.693,0,0,0-13.806-10.719c-6.118-.278-11.493,3.379-13.955,9.523q-5.329,13.3-10.613,26.608a1.839,1.839,0,0,1-2.033,1.391c-3.651-.034-7.3-.032-10.955-.03q-3.879,0-7.759-.008a7.836,7.836,0,0,0-5.13,1.474.816.816,0,0,1-1.21.026,7.929,7.929,0,0,0-5.276-1.5c-2.52.012-5.041.01-7.56.008-3.615,0-7.229-.006-10.842.033a2.014,2.014,0,0,1-2.27-1.5c-3.488-8.888-7.063-17.741-10.6-26.61a14.336,14.336,0,0,0-7.388-8.068,14.533,14.533,0,0,0-6.162-1.377,14.839,14.839,0,0,0-14.171,10.713" transform="translate(-3462.514 -318.042)" fill="none"/>
    </clipPath>
    <linearGradient id="linear-gradient" x1="-3.958" y1="1.232" x2="-3.957" y2="1.232" gradientUnits="objectBoundingBox">
      <stop offset="0" stop-color="#00b3a0"/>
      <stop offset="0.996" stop-color="#049ae7"/>
      <stop offset="1" stop-color="#049ae7"/>
    </linearGradient>
    <clipPath id="clip-path-2">
      <path id="Trazado_182" data-name="Trazado 182" d="M3773.872,88.063c-4.092,0-6.047-1.93-6.057-5.982q-.016-6.7,0-13.4c.013-3.9,2.065-5.924,6-5.93q9.2-.013,18.393,0c3.919.006,5.952,2.028,5.971,5.95.018,3.637.039,7.274-.013,10.911a3.925,3.925,0,0,0,1.337,3.159c1.711,1.589,3.344,3.261,5.122,5.009a2.39,2.39,0,0,1-1.46.291c-.1,0-.2-.01-.3-.01q-8.873.009-17.746.008l-11.246,0m-.427-29.987c-6.085.034-10.247,4.207-10.3,10.318q-.061,7.012,0,14.025c.049,6.218,4.174,10.3,10.409,10.318,5.87.019,11.74,0,17.609,0,6.181,0,12.363-.011,18.544.008,1.263,0,2.419-.114,2.95-1.487.5-1.281-.167-2.167-1.028-3.018-2.623-2.593-5.2-5.232-7.844-7.8a2.905,2.905,0,0,1-.945-2.329q.072-4.83.01-9.661c-.074-6.232-4.194-10.352-10.393-10.379q-4.885-.021-9.77-.022-4.621,0-9.242.025" transform="translate(-3763.115 -58.051)" fill="none"/>
    </clipPath>
    <linearGradient id="linear-gradient-2" x1="-13.748" y1="3.678" x2="-13.744" y2="3.678" xlink:href="#linear-gradient"/>
    <clipPath id="clip-path-3">
      <path id="Trazado_183" data-name="Trazado 183" d="M3774.871,276.924q-4.245,0-8.49,0c-1.219,0-2.287.266-2.781,1.544-.467,1.208.1,2.08.931,2.9,2.513,2.484,4.961,5.035,7.52,7.469a3.934,3.934,0,0,1,1.384,3.243c-.1,3.166-.088,6.34-.014,9.507.135,5.77,4.059,9.9,9.777,10.018q10.05.215,20.107,0a9.638,9.638,0,0,0,9.774-9.691q.226-7.631,0-15.274a9.725,9.725,0,0,0-9.168-9.655c-1.706-.126-2.8.648-2.925,2.067s.671,2.3,2.307,2.549c3.594.557,5.143,2.346,5.153,6q.018,6.7,0,13.405c-.013,3.913-2.05,5.951-5.968,5.96q-9.2.022-18.394,0c-4.008-.008-5.988-2.021-6-6.077-.01-3.637-.027-7.275.011-10.911a3.673,3.673,0,0,0-1.208-2.9c-1.758-1.672-3.453-3.41-5.2-5.149a1.807,1.807,0,0,1,1.423-.339c.123.009.243.018.362.018,6.391-.016,12.782,0,19.173-.015,1.845,0,2.8-.723,2.91-2.115.123-1.528-.938-2.541-2.826-2.545q-6.352-.015-12.7-.012h-5.151" transform="translate(-3763.431 -276.923)" fill="none"/>
    </clipPath>
    <linearGradient id="linear-gradient-3" x1="-13.73" y1="2.514" x2="-13.726" y2="2.514" xlink:href="#linear-gradient"/>
    <clipPath id="clip-path-4">
      <path id="Trazado_184" data-name="Trazado 184" d="M3623.948,198.752a6.409,6.409,0,0,1-6.4-6.442,6.5,6.5,0,0,1,6.52-6.361,6.406,6.406,0,0,1,6.281,6.4,6.32,6.32,0,0,1-6.373,6.4h-.026M3612.87,192.4a11.077,11.077,0,1,0,11.106-11.133h-.014A11.191,11.191,0,0,0,3612.87,192.4" transform="translate(-3612.87 -181.271)" fill="none"/>
    </clipPath>
    <linearGradient id="linear-gradient-4" x1="-29.726" y1="4.737" x2="-29.718" y2="4.737" xlink:href="#linear-gradient"/>
    <clipPath id="clip-path-5">
      <path id="Trazado_185" data-name="Trazado 185" d="M4069.075,192.377a6.417,6.417,0,0,1,6.41-6.428,6.5,6.5,0,0,1,6.39,6.336,6.414,6.414,0,0,1-6.378,6.468h-.048a6.315,6.315,0,0,1-6.374-6.376m6.3-11.105a11.063,11.063,0,1,0,.1,0h-.1" transform="translate(-4064.398 -181.271)" fill="none"/>
    </clipPath>
    <linearGradient id="linear-gradient-5" x1="-33.469" y1="4.744" x2="-33.46" y2="4.744" xlink:href="#linear-gradient"/>
    <clipPath id="clip-path-6">
      <path id="Trazado_186" data-name="Trazado 186" d="M3594.084,555.854q-2.54,8.473-4.948,16.986a2.329,2.329,0,0,0,2.318,2.893,2.371,2.371,0,0,0,2.2-1.788c1.631-5.559,3.262-11.119,4.853-16.69a2.305,2.305,0,0,0-1.577-2.944,2.433,2.433,0,0,0-.659-.092,2.247,2.247,0,0,0-2.183,1.635" transform="translate(-3589.052 -554.218)" fill="none"/>
    </clipPath>
    <linearGradient id="linear-gradient-6" x1="-64.494" y1="1.717" x2="-64.476" y2="1.717" xlink:href="#linear-gradient"/>
    <clipPath id="clip-path-7">
      <path id="Trazado_187" data-name="Trazado 187" d="M4158.371,554.293a2.327,2.327,0,0,0-1.61,2.948c.444,1.759,1,3.49,1.508,5.232q1.663,5.673,3.332,11.345a2.325,2.325,0,0,0,4.6-.513,4.572,4.572,0,0,0-.1-.549c-1.632-5.628-3.243-11.262-4.923-16.875a2.232,2.232,0,0,0-2.168-1.674,2.487,2.487,0,0,0-.647.087" transform="translate(-4156.671 -554.206)" fill="none"/>
    </clipPath>
    <linearGradient id="linear-gradient-7" x1="-77.547" y1="1.704" x2="-77.528" y2="1.704" xlink:href="#linear-gradient"/>
    <clipPath id="clip-path-8">
      <path id="Trazado_188" data-name="Trazado 188" d="M3875.77,331.664c-1.835.012-2.84.929-2.8,2.405.039,1.411,1.01,2.227,2.784,2.25,2.335.029,4.672.007,7.008.007s4.672.021,7.008-.007c1.757-.021,2.761-.848,2.813-2.233.054-1.448-.993-2.41-2.8-2.422q-3.511-.022-7.022-.022t-6.994.022" transform="translate(-3872.969 -331.642)" fill="none"/>
    </clipPath>
    <linearGradient id="linear-gradient-8" x1="-35.932" y1="16.495" x2="-35.923" y2="16.495" xlink:href="#linear-gradient"/>
    <clipPath id="clip-path-9">
      <path id="Trazado_189" data-name="Trazado 189" d="M3889.217,386.457c-1.638.023-2.554.918-2.555,2.309s.926,2.273,2.55,2.329c1.554.054,3.111.012,4.666.012,1.608,0,3.216.042,4.822-.011a2.337,2.337,0,0,0,2.566-2.326,2.3,2.3,0,0,0-2.561-2.313q-2.394-.033-4.789-.033-2.35,0-4.7.033" transform="translate(-3886.662 -386.424)" fill="none"/>
    </clipPath>
    <linearGradient id="linear-gradient-9" x1="-48.648" y1="14.309" x2="-48.635" y2="14.309" xlink:href="#linear-gradient"/>
    <clipPath id="clip-path-10">
      <path id="Trazado_190" data-name="Trazado 190" d="M3820.772,167.467a2.372,2.372,0,0,0-2.6,2.323c-.016,1.418.989,2.311,2.7,2.328,2.388.024,4.777.006,7.166.006q1.086,0,2.172,0c1.665,0,3.329.009,4.994-.012,1.631-.021,2.569-.883,2.583-2.277a2.318,2.318,0,0,0-2.532-2.369q-3.638-.032-7.275-.032-3.606,0-7.212.029" transform="translate(-3818.175 -167.438)" fill="none"/>
    </clipPath>
    <linearGradient id="linear-gradient-10" x1="-35.534" y1="22.887" x2="-35.525" y2="22.887" xlink:href="#linear-gradient"/>
    <clipPath id="clip-path-11">
      <path id="Trazado_191" data-name="Trazado 191" d="M3834.236,112.769a2.318,2.318,0,1,0,.1,4.632c1.555.038,3.113.009,4.669.009,1.66,0,3.321.027,4.981-.006a2.318,2.318,0,1,0,.206-4.628q-2.513-.056-5.027-.055-2.468,0-4.934.049" transform="translate(-3831.882 -112.72)" fill="none"/>
    </clipPath>
    <linearGradient id="linear-gradient-11" x1="-47.698" y1="24.932" x2="-47.685" y2="24.932" xlink:href="#linear-gradient"/>
  </defs>
  <g id="Grupo_953" data-name="Grupo 953" transform="translate(-777.731 -2855.449)">
    <g id="Grupo_917" data-name="Grupo 917" transform="translate(777.731 2902.986)">
      <g id="Grupo_810" data-name="Grupo 810" transform="translate(0 0)" clip-path="url(#clip-path)">
        <rect id="Rectángulo_337" data-name="Rectángulo 337" width="159.949" height="65.225" transform="translate(0 -0.245)" fill="url(#linear-gradient)"/>
      </g>
    </g>
    <g id="Grupo_918" data-name="Grupo 918" transform="translate(832.694 2855.449)">
      <g id="Grupo_812" data-name="Grupo 812" transform="translate(0 0)" clip-path="url(#clip-path-2)">
        <rect id="Rectángulo_338" data-name="Rectángulo 338" width="50.047" height="34.705" transform="translate(-0.011 0)" fill="url(#linear-gradient-2)"/>
      </g>
    </g>
    <g id="Grupo_919" data-name="Grupo 919" transform="translate(832.752 2895.468)">
      <g id="Grupo_814" data-name="Grupo 814" transform="translate(0 0)" clip-path="url(#clip-path-3)">
        <rect id="Rectángulo_339" data-name="Rectángulo 339" width="50.097" height="34.887" transform="translate(-0.299 -0.061)" fill="url(#linear-gradient-3)"/>
      </g>
    </g>
    <g id="Grupo_920" data-name="Grupo 920" transform="translate(805.223 2877.98)">
      <g id="Grupo_816" data-name="Grupo 816" transform="translate(0 0)" clip-path="url(#clip-path-4)">
        <rect id="Rectángulo_340" data-name="Rectángulo 340" width="22.222" height="22.191" transform="translate(-0.018)" fill="url(#linear-gradient-4)"/>
      </g>
    </g>
    <g id="Grupo_921" data-name="Grupo 921" transform="translate(887.782 2877.98)">
      <g id="Grupo_818" data-name="Grupo 818" transform="translate(0 0)" clip-path="url(#clip-path-5)">
        <rect id="Rectángulo_341" data-name="Rectángulo 341" width="22.204" height="22.161" transform="translate(-0.021 -0.001)" fill="url(#linear-gradient-5)"/>
      </g>
    </g>
    <g id="Grupo_922" data-name="Grupo 922" transform="translate(800.868 2946.169)">
      <g id="Grupo_820" data-name="Grupo 820" transform="translate(0 0)" clip-path="url(#clip-path-6)">
        <rect id="Rectángulo_342" data-name="Rectángulo 342" width="10.17" height="21.515" transform="translate(-0.331)" fill="url(#linear-gradient-6)"/>
      </g>
    </g>
    <g id="Grupo_923" data-name="Grupo 923" transform="translate(904.653 2946.169)">
      <g id="Grupo_822" data-name="Grupo 822" transform="translate(0 0)" clip-path="url(#clip-path-7)">
        <rect id="Rectángulo_343" data-name="Rectángulo 343" width="9.797" height="21.673" transform="translate(-0.263 0)" fill="url(#linear-gradient-7)"/>
      </g>
    </g>
    <g id="Grupo_924" data-name="Grupo 924" transform="translate(852.78 2905.475)">
      <g id="Grupo_824" data-name="Grupo 824" transform="translate(0 0)" clip-path="url(#clip-path-8)">
        <rect id="Rectángulo_344" data-name="Rectángulo 344" width="19.707" height="4.706" transform="translate(-0.04)" fill="url(#linear-gradient-8)"/>
      </g>
    </g>
    <g id="Grupo_925" data-name="Grupo 925" transform="translate(855.284 2915.49)">
      <g id="Grupo_826" data-name="Grupo 826" transform="translate(0 0)" clip-path="url(#clip-path-9)">
        <rect id="Rectángulo_345" data-name="Rectángulo 345" width="14.608" height="4.725" transform="translate(0 0)" fill="url(#linear-gradient-9)"/>
      </g>
    </g>
    <g id="Grupo_926" data-name="Grupo 926" transform="translate(842.761 2875.449)">
      <g id="Grupo_828" data-name="Grupo 828" transform="translate(0 0)" clip-path="url(#clip-path-10)">
        <rect id="Rectángulo_346" data-name="Rectángulo 346" width="19.646" height="4.704" transform="translate(-0.016 0)" fill="url(#linear-gradient-10)"/>
      </g>
    </g>
    <g id="Grupo_927" data-name="Grupo 927" transform="translate(845.268 2865.445)">
      <g id="Grupo_830" data-name="Grupo 830" transform="translate(0 0)" clip-path="url(#clip-path-11)">
        <rect id="Rectángulo_347" data-name="Rectángulo 347" width="14.688" height="4.719" transform="translate(-0.029 0)" fill="url(#linear-gradient-11)"/>
      </g>
    </g>
  </g>
</svg>
