<svg xmlns="http://www.w3.org/2000/svg" xmlns:xlink="http://www.w3.org/1999/xlink" width="80.802" height="75.844" viewBox="0 0 113.802 113.844">
  <defs>
    <clipPath id="clip-path">
      <path id="Trazado_207" data-name="Trazado 207" d="M949.787,149.357c-.188,0-.377-.027-.624-.045a17.459,17.459,0,0,1,33.766-1.014c.2.708.3,1.082-.7,1.08q-12.274-.034-24.548-.021h-7.9m16.343-17.243a7.952,7.952,0,0,1-7.889-8.007,7.869,7.869,0,0,1,8-7.862,7.935,7.935,0,0,1-.085,15.869h-.024M910.9,89.972c1.15-1,2.266-2.04,3.594-3.24,0,1.519.013,2.861-.007,4.2-.006.4-.3.385-.56.373-.045,0-.089,0-.13,0q-1.242,0-2.484,0c-1.387,0-2.775,0-4.162.012-.54.006-.753-.16-.722-.715.039-.682.009-1.368.009-2.053l.26-.151c.458.5.89,1.029,1.379,1.5a2.12,2.12,0,0,0,1.434.72,2.162,2.162,0,0,0,1.388-.644m-30.865,5.705c-.751-.862-1.562-1.673-2.382-2.47-.41-.4-.466-.666-.012-1.1,3.084-2.956,6.14-5.942,9.211-8.911.2-.19.392-.572.739-.219.775.789,1.56,1.571,2.274,2.413.188.221.128.651.182.986a1.784,1.784,0,0,1-.622,1.522q-4.054,3.874-8.044,7.813a1.057,1.057,0,0,1-.681.4c-.211,0-.416-.141-.664-.427m14.315-16.91c.387-.247.658.162.686.357.123.873-.746,1.024-1.2,1.624a1.476,1.476,0,0,1,.516-1.981m-1.213-13.9a17.095,17.095,0,1,1,17.1,17.2,17.089,17.089,0,0,1-17.1-17.2m64.973-13.91c.006-1.707,0-3.415,0-5.154l5.863,5.831c-1.785,0-3.555,0-5.325,0h0c-.48,0-.538-.3-.536-.679m-4.92-8.1c.975,0,1.313.181,1.279,1.235-.086,2.636-.041,5.277-.024,7.916.014,2.233,1.086,3.294,3.317,3.3,2.715.01,5.432.031,8.146-.015.807-.013,1.036.241,1.036,1.037q-.028,27.594,0,55.189c0,.889-.3,1.047-1.116,1.086-5.048.241-8.667,2.728-10.464,7.409-1.815,4.73-.757,9.029,2.88,12.6.692.679.511.835-.252,1.141a19.711,19.711,0,0,0-6.733,4.472,2.053,2.053,0,0,1-1.612.645q-27.423-.02-54.845.009c-.928,0-1.146-.291-1.144-1.17q.034-23.98.009-47.961a2.426,2.426,0,0,1,.432-1.5,2.622,2.622,0,0,0,.5-2.066,1.566,1.566,0,0,1,.626-1.674c.8-.716,1.567-1.461,2.306-2.235a.75.75,0,0,1,1.168-.091,14.289,14.289,0,0,0,3.313,1.8,1.06,1.06,0,0,1,.761,1.2c-.035,2.485-.02,4.972-.012,7.458.006,1.717.627,2.328,2.36,2.331q5.335.008,10.671,0c1.8,0,2.372-.578,2.377-2.416.006-2.486.029-4.972-.015-7.458a1.318,1.318,0,0,1,.877-1.38c7.75-3.953,11.872-10.284,11.929-19a20.621,20.621,0,0,0-20.782-20.514,20.364,20.364,0,0,0-15.726,7.263c-.174.2-.343.4-.514.6l-.259-.051q0-4.281,0-8.562c0-.443.222-.611.645-.582.228.015.459,0,.688,0h19.391q19.39,0,38.782-.023m1.573-3.669q-23.219.035-46.438.021H894.532c-3.042,0-4.515,1.454-4.522,4.483-.009,4.13,0,8.26,0,12.391a32.767,32.767,0,0,1-.327,6.169,14.548,14.548,0,0,0-.008,5.366c.579,3.153.258,6.33.325,9.5a1.964,1.964,0,0,1-2.235,1.924,3.674,3.674,0,0,0-3.107,1.156c-3.345,3.252-6.7,6.493-10.033,9.759a3.524,3.524,0,0,0-.094,5.29c1.073,1.143,2.18,2.254,3.277,3.374q2.839,2.9,5.79.038c1.814-1.754,3.618-3.52,5.442-5.264.252-.241.427-.643.971-.6v1.375q0,21.626,0,43.252c0,.421-.013.842.01,1.262A3.8,3.8,0,0,0,894,142.524c1.414.027,2.83.007,4.245.007q24.207,0,48.415-.015c.979,0,1.187.13.672,1.082a18.68,18.68,0,0,0-2.14,6.846c-.213,1.892.423,2.583,2.367,2.585q5.621.006,11.243,0,13.021,0,26.043,0c1.864,0,2.552-.844,2.273-2.677a21.545,21.545,0,0,0-1.634-5.707,21.271,21.271,0,0,0-12.1-11.3c.389-.393.678-.687.969-.978a11.541,11.541,0,0,0-2.653-18.356,1.86,1.86,0,0,1-1.12-1.941c.03-18.93.011-37.86.041-56.79a5.539,5.539,0,0,0-1.746-4.286c-3.428-3.331-6.8-6.723-10.145-10.136a5.187,5.187,0,0,0-3.953-1.67h-.011" transform="translate(-873.378 -39.187)" fill="none"/>
    </clipPath>
    <linearGradient id="linear-gradient" x1="-1.208" y1="1" x2="-1.207" y2="1" gradientUnits="objectBoundingBox">
      <stop offset="0" stop-color="#00b3a0"/>
      <stop offset="0.996" stop-color="#049ae7"/>
      <stop offset="1" stop-color="#049ae7"/>
    </linearGradient>
    <clipPath id="clip-path-2">
      <path id="Trazado_208" data-name="Trazado 208" d="M1066.494,448.542c1.182-1.02,2.321-2.087,3.678-3.314,0,1.49-.01,2.746.005,4,.005.446-.183.6-.614.595q-3.44-.017-6.879,0c-.455,0-.6-.189-.584-.616.02-.72.006-1.441.006-2.481.7.714,1.189,1.265,1.732,1.763a1.762,1.762,0,0,0,2.656.052m2.467-6.814c1.157-.09,1.406.373,1.113,1.551-1.577-1.639-2.711-.552-3.841.562-.518.511-.957.985-1.813.4-.622-.426-1.134-.176-2.247.654-.249-3.14-.249-3.14,2.663-3.14.832,0,1.667.03,2.5.03.543,0,1.086-.013,1.626-.055m-8.462-3.639a1.82,1.82,0,0,0-2.058,2.046q-.03,5.619,0,11.237a1.861,1.861,0,0,0,2.117,2.113c1.834.021,3.67.005,5.5.005q.88,0,1.76,0c1.324,0,2.649.007,3.974-.01a1.811,1.811,0,0,0,2.044-2.054q.027-5.676,0-11.352a1.771,1.771,0,0,0-1.984-1.987q-2.869-.016-5.738-.015-2.807,0-5.614.013" transform="translate(-1058.427 -438.076)" fill="none"/>
    </clipPath>
    <linearGradient id="linear-gradient-2" x1="-10.887" y1="3.273" x2="-10.876" y2="3.273" xlink:href="#linear-gradient"/>
    <clipPath id="clip-path-3">
      <path id="Trazado_209" data-name="Trazado 209" d="M1198.538,308.779a5.212,5.212,0,0,0-1.362.119,1.788,1.788,0,0,0,.128,3.472,5.507,5.507,0,0,0,1.106.071h.149q6.073.007,12.146,0,6.13,0,12.26,0c1.877,0,2.737-.583,2.73-1.836s-.88-1.832-2.75-1.833h-9.528q-7.438,0-14.878.005" transform="translate(-1195.872 -308.774)" fill="none"/>
    </clipPath>
    <linearGradient id="linear-gradient-3" x1="-6.357" y1="19.346" x2="-6.352" y2="19.346" xlink:href="#linear-gradient"/>
    <clipPath id="clip-path-4">
      <path id="Trazado_210" data-name="Trazado 210" d="M1198.52,352.142a5.382,5.382,0,0,0-1.251.1,1.789,1.789,0,0,0,.07,3.5,5.976,5.976,0,0,0,1.11.066h.145q6.073.006,12.146,0,6.13,0,12.26,0h.164a6.1,6.1,0,0,0,.979-.048,1.795,1.795,0,0,0,.038-3.55,5.76,5.76,0,0,0-1.082-.068h-.058l-11.673,0q-6.424,0-12.848,0" transform="translate(-1195.882 -352.138)" fill="none"/>
    </clipPath>
    <linearGradient id="linear-gradient-4" x1="-6.352" y1="17.473" x2="-6.347" y2="17.473" xlink:href="#linear-gradient"/>
    <clipPath id="clip-path-5">
      <path id="Trazado_211" data-name="Trazado 211" d="M1222.976,453.307q-12.2,0-24.406,0a5.377,5.377,0,0,0-1.474.136,1.788,1.788,0,0,0-.088,3.382,4.145,4.145,0,0,0,1.356.14q6.13.014,12.26.005v0c4.354,0,8.709.015,13.062-.01a1.792,1.792,0,0,0,1.982-1.767,1.832,1.832,0,0,0-1.891-1.874c-.153-.013-.307-.016-.461-.016l-.34,0" transform="translate(-1195.843 -453.305)" fill="none"/>
    </clipPath>
    <linearGradient id="linear-gradient-5" x1="-6.36" y1="13.061" x2="-6.354" y2="13.061" xlink:href="#linear-gradient"/>
    <clipPath id="clip-path-6">
      <path id="Trazado_212" data-name="Trazado 212" d="M1222.973,496.665q-12.2,0-24.406,0a5.241,5.241,0,0,0-1.473.139,1.652,1.652,0,0,0-1.24,1.722,1.673,1.673,0,0,0,1.281,1.695,4.105,4.105,0,0,0,1.143.1h.106q6.187.01,12.375,0h3.964c2.995,0,5.989,0,8.984-.016a1.786,1.786,0,0,0,1.971-1.777,1.835,1.835,0,0,0-1.9-1.864c-.147-.013-.294-.015-.442-.015l-.359,0" transform="translate(-1195.854 -496.663)" fill="none"/>
    </clipPath>
    <linearGradient id="linear-gradient-6" x1="-6.36" y1="11.207" x2="-6.354" y2="11.207" xlink:href="#linear-gradient"/>
    <clipPath id="clip-path-7">
      <path id="Trazado_213" data-name="Trazado 213" d="M1262.932,164.243a7.683,7.683,0,0,0-1.143.054,1.8,1.8,0,0,0,.031,3.572,7.989,7.989,0,0,0,1.005.041h.14q4.647,0,9.293,0,4.7,0,9.408,0c1.854,0,2.748-.606,2.737-1.843s-.907-1.826-2.769-1.826h-7.77l-10.931,0" transform="translate(-1260.217 -164.24)" fill="none"/>
    </clipPath>
    <linearGradient id="linear-gradient-7" x1="-8.266" y1="25.595" x2="-8.259" y2="25.595" xlink:href="#linear-gradient"/>
    <clipPath id="clip-path-8">
      <path id="Trazado_214" data-name="Trazado 214" d="M1262.916,207.607a5.842,5.842,0,0,0-1.477.13,1.626,1.626,0,0,0-1.252,1.713,1.652,1.652,0,0,0,1.372,1.736,5.917,5.917,0,0,0,1.255.082q4.7.009,9.408,0,4.761,0,9.523,0c1.757,0,2.636-.618,2.633-1.831s-.9-1.828-2.644-1.838h-7.884q-5.466,0-10.932.005" transform="translate(-1260.186 -207.602)" fill="none"/>
    </clipPath>
    <linearGradient id="linear-gradient-8" x1="-8.267" y1="23.707" x2="-8.261" y2="23.707" xlink:href="#linear-gradient"/>
    <clipPath id="clip-path-9">
      <path id="Trazado_215" data-name="Trazado 215" d="M1013.244,120.93a11.56,11.56,0,1,1,11.572,11.511h-.013a11.613,11.613,0,0,1-11.559-11.511m11.471-15.241a15.255,15.255,0,1,0,.059,0h-.059" transform="translate(-1009.57 -105.689)" fill="none"/>
    </clipPath>
    <linearGradient id="linear-gradient-9" x1="-5.256" y1="3.391" x2="-5.251" y2="3.391" xlink:href="#linear-gradient"/>
    <clipPath id="clip-path-10">
      <path id="Trazado_216" data-name="Trazado 216" d="M1066.543,159.437c1.171-1.016,2.306-2.072,3.632-3.27,0,1.49-.011,2.77.005,4.051.006.507-.295.532-.671.531q-3.381-.008-6.761,0c-.4,0-.66-.064-.643-.554.026-.747.007-1.5.007-2.512.689.7,1.17,1.222,1.69,1.7a2.075,2.075,0,0,0,1.387.664,2.1,2.1,0,0,0,1.354-.614m2.331-6.769c1.1-.07,1.571.249,1.216,1.465-1.523-1.034-2.036-1.009-3.352.2-.768.706-1.4,1.5-2.664.746-.605-.361-1.27.252-1.784.7-.075-.087-.155-.135-.157-.187-.122-2.907-.121-2.907,2.73-2.907.808,0,1.617.024,2.425.024.529,0,1.058-.01,1.585-.044m-8.308-3.645a1.847,1.847,0,0,0-2.121,2.1q-.026,5.561,0,11.122c.005,1.506.669,2.159,2.172,2.17,1.834.013,3.669,0,5.5,0q.886,0,1.772,0c1.32,0,2.641.007,3.962-.01a1.78,1.78,0,0,0,1.988-1.985q.033-5.676,0-11.352a1.8,1.8,0,0,0-2.04-2.049q-2.809-.012-5.619-.012t-5.619.01" transform="translate(-1058.432 -149.012)" fill="none"/>
    </clipPath>
    <linearGradient id="linear-gradient-10" x1="-10.888" y1="6.254" x2="-10.877" y2="6.254" xlink:href="#linear-gradient"/>
  </defs>
  <g id="Grupo_956" data-name="Grupo 956" transform="translate(-118 -2850.645)">
    <g id="Grupo_943" data-name="Grupo 943" transform="translate(118 2850.645)">
      <g id="Grupo_862" data-name="Grupo 862" transform="translate(0 0)" clip-path="url(#clip-path)">
        <rect id="Rectángulo_363" data-name="Rectángulo 363" width="114.433" height="113.846" transform="translate(-0.411 0)" fill="url(#linear-gradient)"/>
      </g>
    </g>
    <g id="Grupo_944" data-name="Grupo 944" transform="translate(147.381 2913.977)">
      <g id="Grupo_864" data-name="Grupo 864" transform="translate(0 0)" clip-path="url(#clip-path-2)">
        <rect id="Rectángulo_364" data-name="Rectángulo 364" width="15.436" height="15.431" transform="translate(-0.006 0)" fill="url(#linear-gradient-2)"/>
      </g>
    </g>
    <g id="Grupo_945" data-name="Grupo 945" transform="translate(169.204 2893.448)">
      <g id="Grupo_866" data-name="Grupo 866" transform="translate(0 0)" clip-path="url(#clip-path-3)">
        <rect id="Rectángulo_365" data-name="Rectángulo 365" width="29.864" height="3.672" transform="translate(-0.034 0)" fill="url(#linear-gradient-3)"/>
      </g>
    </g>
    <g id="Grupo_946" data-name="Grupo 946" transform="translate(169.206 2900.331)">
      <g id="Grupo_868" data-name="Grupo 868" transform="translate(0 0)" clip-path="url(#clip-path-4)">
        <rect id="Rectángulo_366" data-name="Rectángulo 366" width="29.885" height="3.672" transform="translate(-0.042 0)" fill="url(#linear-gradient-4)"/>
      </g>
    </g>
    <g id="Grupo_947" data-name="Grupo 947" transform="translate(169.2 2916.396)">
      <g id="Grupo_870" data-name="Grupo 870" transform="translate(0 0)" clip-path="url(#clip-path-5)">
        <rect id="Rectángulo_367" data-name="Rectángulo 367" width="29.854" height="3.682" transform="translate(-0.004 -0.001)" fill="url(#linear-gradient-5)"/>
      </g>
    </g>
    <g id="Grupo_948" data-name="Grupo 948" transform="translate(169.201 2923.28)">
      <g id="Grupo_872" data-name="Grupo 872" transform="translate(0 0)" clip-path="url(#clip-path-6)">
        <rect id="Rectángulo_368" data-name="Rectángulo 368" width="29.854" height="3.677" transform="translate(-0.011 -0.001)" fill="url(#linear-gradient-6)"/>
      </g>
    </g>
    <g id="Grupo_949" data-name="Grupo 949" transform="translate(179.421 2870.499)">
      <g id="Grupo_874" data-name="Grupo 874" transform="translate(0 0)" clip-path="url(#clip-path-7)">
        <rect id="Rectángulo_369" data-name="Rectángulo 369" width="24.207" height="3.672" transform="translate(-0.011 0)" fill="url(#linear-gradient-7)"/>
      </g>
    </g>
    <g id="Grupo_950" data-name="Grupo 950" transform="translate(179.416 2877.383)">
      <g id="Grupo_876" data-name="Grupo 876" transform="translate(0 0)" clip-path="url(#clip-path-8)">
        <rect id="Rectángulo_370" data-name="Rectángulo 370" width="24.202" height="3.674" transform="translate(-0.008 0)" fill="url(#linear-gradient-8)"/>
      </g>
    </g>
    <g id="Grupo_951" data-name="Grupo 951" transform="translate(139.624 2861.204)">
      <g id="Grupo_878" data-name="Grupo 878" transform="translate(0 0)" clip-path="url(#clip-path-9)">
        <rect id="Rectángulo_371" data-name="Rectángulo 371" width="30.497" height="30.457" transform="translate(-0.002 0)" fill="url(#linear-gradient-9)"/>
      </g>
    </g>
    <g id="Grupo_952" data-name="Grupo 952" transform="translate(147.382 2868.082)">
      <g id="Grupo_880" data-name="Grupo 880" transform="translate(0 0)" clip-path="url(#clip-path-10)">
        <rect id="Rectángulo_372" data-name="Rectángulo 372" width="15.435" height="15.416" transform="translate(-0.005 0)" fill="url(#linear-gradient-10)"/>
      </g>
    </g>
  </g>
</svg>
