<svg id="Grupo_1202" data-name="Grupo 1202" xmlns="http://www.w3.org/2000/svg" xmlns:xlink="http://www.w3.org/1999/xlink" width="146.769" height="70.92" viewBox="0 0 146.769 124.055">
  <defs>
    <clipPath id="clip-path">
      <rect id="Rectángulo_480" data-name="Rectángulo 480" width="146.769" height="124.055" fill="none"/>
    </clipPath>
  </defs>
  <g id="Grupo_1202-2" data-name="Grupo 1202" clip-path="url(#clip-path)">
    <path id="Trazado_306" data-name="Trazado 306" d="M236.715,52c-.671,1.779-2.024,2.331-3.833,2.306-3.964-.055-7.929-.041-11.894-.009a7.193,7.193,0,0,1-6.8-3.679,1.338,1.338,0,0,0-1.416-.668c-3.1.008-6.21,0-9.314,0a26.259,26.259,0,0,1-19.124-7.72c-4.816-4.708-9.707-9.339-14.53-14.041-3.494-3.407-3.973-8.073-1.276-11.645a8.346,8.346,0,0,1,11.829-1.705c2.583,2.034,4.927,4.372,7.369,6.583,1.735,1.571,3.475,3.136,5.176,4.744,1.448,1.368,1.61,3.07.484,4.309s-2.84,1.259-4.323-.079c-3.723-3.36-7.4-6.767-11.111-10.145a6.806,6.806,0,0,0-1.357-1.039,2.743,2.743,0,0,0-3.638,3.825,6.753,6.753,0,0,0,1.114,1.3c4.769,4.62,9.563,9.214,14.317,13.847a20.46,20.46,0,0,0,14.847,6.034c2.962,0,5.923-.03,8.884.018.875.014,1.146-.25,1.139-1.13q-.055-7.38.005-14.76c.009-.906-.337-1.137-1.138-1.2a20.785,20.785,0,0,1-14.984-8.215c-2.038-2.528-4.154-4.993-6.233-7.487a15.106,15.106,0,0,0-12.137-5.706q-14.474,0-28.947-.006c-1.482,0-2.777.336-3.452,1.792a2.935,2.935,0,0,0,.373,3.228,3.408,3.408,0,0,0,2.936,1.177q5.3-.022,10.6,0a7.883,7.883,0,0,1,1.561.138,2.778,2.778,0,0,1,2.344,2.95,2.711,2.711,0,0,1-2.739,2.6c-4.488.039-8.987.153-13.465-.081-4.29-.224-7.683-4.3-7.656-8.737A8.664,8.664,0,0,1,148.211.125c2.666-.164,5.346-.108,8.02-.112C163.587,0,170.943.041,178.3,0a21.11,21.11,0,0,1,17.255,8.07q3.274,3.985,6.6,7.926a15.159,15.159,0,0,0,10.348,5.5,1.472,1.472,0,0,0,1.729-.785,8.617,8.617,0,0,1,9.95-3.348,2.65,2.65,0,0,1,1.734,2.836,2.668,2.668,0,0,1-2.318,2.531,27,27,0,0,1-2.861.087,1.581,1.581,0,0,0-1.768,1.772q0,11.106,0,22.212a1.555,1.555,0,0,0,1.76,1.764c3.1-.008,6.211-.045,9.314.02,1.111.024.937-.636.936-1.291q0-8.455,0-16.91a7.963,7.963,0,0,1,.1-1.566,2.807,2.807,0,0,1,5.05-1.106c.2.258.385.526.577.789Z" transform="translate(-89.946 0)" fill="#fff"/>
    <path id="Trazado_307" data-name="Trazado 307" d="M398.665,51.4c-.187.265-.369.533-.561.794a2.806,2.806,0,0,1-5.117-1.574,2.615,2.615,0,0,1,1.965-2.668,2.663,2.663,0,0,1,3.213,1.17c.182.271.334.563.5.845Z" transform="translate(-251.896 -30.641)" fill="#fff"/>
    <path id="Trazado_308" data-name="Trazado 308" d="M71.983,248.591c-4.968,0-9.938.078-14.9-.019a20.313,20.313,0,0,1-15.67-7.716c-2.278-2.7-4.523-5.433-6.789-8.145a15.265,15.265,0,0,0-10.462-5.576,1.466,1.466,0,0,0-1.7.847,6.645,6.645,0,0,1-5.29,3.483,12.914,12.914,0,0,1-4.418-.083,2.662,2.662,0,0,1-2.162-2.935,2.706,2.706,0,0,1,2.461-2.556c.994-.1,2-.041,3.006-.07a1.537,1.537,0,0,0,1.688-1.7q.008-11.179,0-22.358c0-1.187-.674-1.693-1.836-1.686-3.01.017-6.02.048-9.029-.019-1-.022-1.163.351-1.157,1.234.035,5.3.02,10.606.012,15.909a7.3,7.3,0,0,1-.117,1.564A2.78,2.78,0,0,1,2.841,221a2.786,2.786,0,0,1-2.733-2.292,7.77,7.77,0,0,1-.1-1.566Q0,207.687,0,198.228c0-2.913.962-3.876,3.869-3.88,3.918,0,7.835.032,11.753-.012a7.253,7.253,0,0,1,6.929,3.717c.376.66.865.63,1.435.63,3.2,0,6.4-.017,9.6,0a25.788,25.788,0,0,1,18.3,7.261q7.565,7.227,15.058,14.529c3.441,3.358,3.927,8.006,1.3,11.536A8.365,8.365,0,0,1,56.2,233.683c-2.706-2.19-5.2-4.648-7.777-6.991-1.52-1.381-3.047-2.757-4.542-4.165s-1.693-3.172-.513-4.415c1.146-1.208,2.84-1.186,4.331.162,3.721,3.364,7.405,6.768,11.112,10.147a7.225,7.225,0,0,0,1.243.956,2.659,2.659,0,0,0,3.381-.532,2.584,2.584,0,0,0,.29-3.3,7.525,7.525,0,0,0-1.122-1.292c-4.736-4.587-9.5-9.142-14.215-13.752a20.532,20.532,0,0,0-14.972-6.087c-2.962.009-5.925.025-8.886-.014-.8-.01-1.073.234-1.068,1.053q.047,7.453,0,14.906c-.006.832.325,1.06,1.063,1.118,6.391.5,11.356,3.552,15.294,8.5,1.934,2.428,3.966,4.778,5.949,7.166A15.088,15.088,0,0,0,57.885,242.9q14.547.009,29.095.008c1.5,0,2.771-.406,3.407-1.865a2.935,2.935,0,0,0-.462-3.22,3.394,3.394,0,0,0-2.827-1.109q-4.8.02-9.6,0a7.5,7.5,0,0,1-1.7-.184,2.693,2.693,0,0,1-2.144-2.819,2.619,2.619,0,0,1,2.373-2.629,85.431,85.431,0,0,1,13.169.1c4.384.53,7.4,4.673,7.164,9.14a8.491,8.491,0,0,1-8.041,8.2c-5.44.173-10.889.042-16.334.042v.037" transform="translate(0 -124.565)" fill="#fff"/>
    <path id="Trazado_309" data-name="Trazado 309" d="M141.083,142.94a13.22,13.22,0,0,1,12.993-13.16,12,12,0,0,1,8.8,3.164c.837.77,1.32.784,2.215.033a13.2,13.2,0,0,1,21.694,8.626,12.693,12.693,0,0,1-5.049,11.932q-7.614,6.072-15.238,12.135c-1.969,1.564-3.023,1.564-4.954.036-5.092-4.029-10.195-8.044-15.266-12.1a13.078,13.078,0,0,1-5.194-10.668m13.6-7.477a7.8,7.8,0,0,0-7.442,5.013,7.555,7.555,0,0,0,2.656,8.694c4.389,3.531,8.843,6.981,13.228,10.518.726.586,1.149.464,1.794-.055,4.5-3.623,9.043-7.191,13.536-10.821a7.013,7.013,0,0,0,2.614-7,7.166,7.166,0,0,0-4.746-5.8,7.408,7.408,0,0,0-9.449,3.7c-1.007,1.867-2.211,2.525-3.747,2.041a3.63,3.63,0,0,1-2.027-2.092,7.475,7.475,0,0,0-6.418-4.194" transform="translate(-90.427 -83.141)" fill="#fff"/>
    <path id="Trazado_310" data-name="Trazado 310" d="M300.563,222.08a2.788,2.788,0,0,1-2.793,2.832,2.894,2.894,0,0,1-2.861-2.938,2.949,2.949,0,0,1,2.9-2.773,2.817,2.817,0,0,1,2.75,2.88" transform="translate(-189.029 -140.502)" fill="#fff"/>
    <path id="Trazado_311" data-name="Trazado 311" d="M172.252,55.478a2.823,2.823,0,0,1,2.787,2.842,2.844,2.844,0,1,1-2.787-2.842" transform="translate(-108.551 -35.56)" fill="#fff"/>
    <path id="Trazado_312" data-name="Trazado 312" d="M102.389,116.646a2.872,2.872,0,0,1-2.959,2.837,2.854,2.854,0,0,1,.169-5.706,2.912,2.912,0,0,1,2.789,2.869" transform="translate(-61.98 -72.928)" fill="#fff"/>
    <path id="Trazado_313" data-name="Trazado 313" d="M311.773,179.347a2.875,2.875,0,0,1-2.8-2.836,2.839,2.839,0,0,1,2.759-2.869,2.894,2.894,0,0,1,2.9,2.894,2.933,2.933,0,0,1-2.857,2.81" transform="translate(-198.043 -111.301)" fill="#fff"/>
    <path id="Trazado_314" data-name="Trazado 314" d="M242.6,269.82a2.82,2.82,0,0,1,2.751-2.873,2.872,2.872,0,0,1,2.924,2.721,2.98,2.98,0,0,1-2.865,2.971,2.839,2.839,0,0,1-2.81-2.819" transform="translate(-155.502 -171.107)" fill="#fff"/>
    <path id="Trazado_315" data-name="Trazado 315" d="M222.559,279.957a2.926,2.926,0,0,1-2.881-2.785,2.862,2.862,0,0,1,2.881-2.9,2.829,2.829,0,0,1,2.8,2.828,2.911,2.911,0,0,1-2.8,2.859" transform="translate(-140.808 -175.801)" fill="#fff"/>
    <path id="Trazado_316" data-name="Trazado 316" d="M149.7,69.46a2.791,2.791,0,0,1-2.759-2.85,2.843,2.843,0,1,1,2.759,2.85" transform="translate(-94.183 -40.903)" fill="#fff"/>
    <path id="Trazado_317" data-name="Trazado 317" d="M311.9,149.713a2.874,2.874,0,0,1,2.861,2.777,2.832,2.832,0,1,1-5.662.053,2.85,2.85,0,0,1,2.8-2.83" transform="translate(-198.124 -95.962)" fill="#fff"/>
    <path id="Trazado_318" data-name="Trazado 318" d="M90.482,162.852a2.882,2.882,0,0,1-2.8,2.852,2.98,2.98,0,0,1-2.882-2.951A2.929,2.929,0,0,1,87.71,160a2.826,2.826,0,0,1,2.772,2.848" transform="translate(-54.354 -102.558)" fill="#fff"/>
    <path id="Trazado_319" data-name="Trazado 319" d="M286.732,241.7a2.927,2.927,0,0,1-3.018,2.778,2.819,2.819,0,0,1,.251-5.632,2.844,2.844,0,0,1,2.766,2.854" transform="translate(-180.146 -153.095)" fill="#fff"/>
    <path id="Trazado_320" data-name="Trazado 320" d="M129.618,76.865a2.779,2.779,0,0,1,2.847,2.75,2.876,2.876,0,0,1-2.74,2.891,2.821,2.821,0,1,1-.107-5.641" transform="translate(-81.295 -49.268)" fill="#fff"/>
    <path id="Trazado_321" data-name="Trazado 321" d="M94.033,139.017a2.788,2.788,0,1,1-2.824-2.783,2.782,2.782,0,0,1,2.824,2.783" transform="translate(-56.7 -87.323)" fill="#fff"/>
    <path id="Trazado_322" data-name="Trazado 322" d="M92.161,186.86a2.814,2.814,0,1,1-5.628-.059,2.83,2.83,0,0,1,2.929-2.825,2.768,2.768,0,0,1,2.7,2.884" transform="translate(-55.466 -117.924)" fill="#fff"/>
    <path id="Trazado_323" data-name="Trazado 323" d="M307.357,197.327a2.766,2.766,0,0,1,2.693,2.891,2.8,2.8,0,0,1-3.02,2.716,2.828,2.828,0,0,1-2.632-2.969,2.783,2.783,0,0,1,2.958-2.637" transform="translate(-195.108 -126.48)" fill="#fff"/>
    <path id="Trazado_324" data-name="Trazado 324" d="M115.424,96.6a2.823,2.823,0,0,1-2.961,2.8,2.879,2.879,0,0,1-2.665-2.828,2.825,2.825,0,0,1,2.916-2.849,2.762,2.762,0,0,1,2.71,2.875" transform="translate(-70.378 -60.077)" fill="#fff"/>
    <path id="Trazado_325" data-name="Trazado 325" d="M266.118,255.019a2.778,2.778,0,0,1,2.876,2.716,2.891,2.891,0,0,1-2.828,2.957,2.812,2.812,0,0,1-2.78-2.833,2.735,2.735,0,0,1,2.732-2.841" transform="translate(-168.824 -163.461)" fill="#fff"/>
    <path id="Trazado_326" data-name="Trazado 326" d="M5.757,284.964a2.919,2.919,0,0,1-2.84,2.826,2.92,2.92,0,0,1-2.836-2.83,2.879,2.879,0,0,1,2.84-2.808,2.878,2.878,0,0,1,2.836,2.813" transform="translate(-0.053 -180.853)" fill="#fff"/>
  </g>
</svg>
