<svg id="Grupo_1213" data-name="Grupo 1213" xmlns="http://www.w3.org/2000/svg" xmlns:xlink="http://www.w3.org/1999/xlink" width="140.156" height="70.92" viewBox="0 0 140.156 125.306">
  <defs>
    <clipPath id="clip-path">
      <rect id="Rectángulo_486" data-name="Rectángulo 486" width="140.156" height="125.306" fill="none"/>
    </clipPath>
  </defs>
  <g id="Grupo_1213-2" data-name="Grupo 1213" clip-path="url(#clip-path)">
    <path id="Trazado_362" data-name="Trazado 362" d="M0,107.811c.356-1.687.652-3.39,1.081-5.059a27.351,27.351,0,0,1,4.385-9.2c.966-1.344,2.057-1.65,3.121-.919,1.042.717,1.181,1.933.257,3.236A25.683,25.683,0,0,0,4.1,111.824c.04,1.55-.016,3.1.012,4.652a4.618,4.618,0,0,0,4.66,4.715c1.686.046,3.376-.027,5.062.026.8.025,1.016-.264,1-1.023-.043-1.869-.022-3.74-.011-5.61.01-1.757.708-2.668,2.032-2.689,1.342-.021,2.058.876,2.067,2.621.01,1.824.052,3.651-.018,5.473-.036.952.249,1.245,1.219,1.235,4.607-.048,9.214-.021,13.821-.021,9.533,0,19.067-.031,28.6.035,1.372.009,1.7-.4,1.621-1.683-.108-1.727-.049-3.466-.019-5.2.028-1.615.811-2.491,2.118-2.458,1.262.033,1.951.858,1.97,2.441.023,1.87.066,3.743-.016,5.61-.047,1.059.329,1.325,1.329,1.275,1.638-.081,3.285.019,4.925-.036a4.389,4.389,0,0,0,4.483-4c.288-5.558.463-11.147-1.907-16.407-3.809-8.453-10.322-13.429-19.409-15.159a4.659,4.659,0,0,0-4,.835,20.037,20.037,0,0,1-24.073-.58,2.644,2.644,0,0,0-2.338-.571A30.31,30.31,0,0,0,15.707,89.35,2.048,2.048,0,1,1,13.541,85.9,30.143,30.143,0,0,1,25.1,81.549c1.077-.188,2.151-.394,3.224-.6a2.528,2.528,0,0,0,2.3-2.036,2.722,2.722,0,0,0-1.125-3.151,18.018,18.018,0,0,1-7.6-12.485,8.935,8.935,0,0,0-.774-2.891,21.433,21.433,0,0,1-2.211-7.706c-.288-2.422-1.447-4.6-1.758-7.01a9.208,9.208,0,0,1,1.42-6.91,2.1,2.1,0,0,0,.325-1.017,7.216,7.216,0,0,1,3.934-5.583,2.538,2.538,0,0,0,1.26-1.328,3.083,3.083,0,0,1,.893-1.354c2.8-1.934,5.591-4.057,8.987-4.681a22.4,22.4,0,0,0,4.285-1.136,8.2,8.2,0,0,1,8.084.776,1.519,1.519,0,0,0,1.379.3,3.328,3.328,0,0,1,1.9.044,24.207,24.207,0,0,1,8.3,4.6c1.418,1.274,2.548,2.945,4.183,4.082a2.644,2.644,0,0,1,.879,1.033c2.1,4.72,4.565,9.373,2.066,14.773-.768,1.66-.729,3.558-1.043,5.351a4.946,4.946,0,0,1-.211.933c-1.525,3.946-2.395,8.095-3.72,12.095a15.6,15.6,0,0,1-6.4,8.142c-1.331.875-1.346,1.924-1.113,3.156a2.55,2.55,0,0,0,2.313,2.016c2.011.4,4.019.812,6.036,1.174.949.17,2.07,1.121,2.732.5.488-.456.131-1.812.161-2.766.316-10.028,4.786-17.576,13.528-22.533a1.585,1.585,0,0,0,.98-1.693,32.228,32.228,0,0,1-.006-3.283,2.049,2.049,0,1,1,4.088.041c.02.455,0,.912.005,1.368s0,.9,0,1.461c2.5-.638,4.882-1.238,7.258-1.851a2.225,2.225,0,0,0,1.807-2.4,3.336,3.336,0,0,1,.01-.41,5.935,5.935,0,0,0-2.221-5.944,12.382,12.382,0,0,1-3.794-6.23c-.452-1.468-1.547-.765-2.374-.847-1.029-.1-.648.777-.668,1.275-.049,1.23.013,2.464-.029,3.694a2.04,2.04,0,1,1-4.079.039c-.045-.956-.015-1.915-.012-2.873.006-1.8.22-3.6-1.121-5.15a3.53,3.53,0,0,1-.527-2.362c.013-1.733.035-3.467-.006-5.2a5.443,5.443,0,0,1,1.33-4.043c.466-.5.382-1.1.46-1.67C79.815,11.047,86.524,3.224,96,.783c14.152-3.647,27.689,5.839,29.537,20.717a3.04,3.04,0,0,0,.665,1.721,4.731,4.731,0,0,1,1.079,3.168c-.01,1.779-.037,3.559.01,5.337A5.523,5.523,0,0,1,126,35.782a1.689,1.689,0,0,0-.362,1.264c0,6.249.015,12.5-.014,18.747a1.451,1.451,0,0,0,.882,1.471c8.939,5.063,13.542,12.756,13.61,23.025.081,12.27.023,24.54.017,36.81,0,5.024-3.179,8.2-8.208,8.2q-61.306.006-122.611,0c-4.606,0-7.708-2.294-9.053-6.645a2.277,2.277,0,0,0-.26-.447v-10.4m82.315,13.363a1.049,1.049,0,0,0,.238.024q24.826,0,49.651-.005a3.518,3.518,0,0,0,3.818-3.852c.017-7.2-.024-14.407.037-21.611.01-1.192-.37-1.391-1.46-1.389q-27.356.05-54.711.024c-1.59,0-1.594.005-.813,1.357,4.633,8.011,4.887,16.54,3.24,25.452M41.575,67.867a22.382,22.382,0,0,0,9.143-1.913c2.365-1.077,4.869-2.14,6.213-4.491a23.472,23.472,0,0,0,3.014-7.572A47.539,47.539,0,0,1,61.6,46.442a5.771,5.771,0,0,0-.765-5.834,2.886,2.886,0,0,1-.61-1.784,3.4,3.4,0,0,0-2.264-3.268A3.87,3.87,0,0,1,55.629,33.2a2.639,2.639,0,0,0-2.382-1.941,3.957,3.957,0,0,1-2.557-1.427,2.758,2.758,0,0,0-2.939-.953,3.982,3.982,0,0,1-3.568-.906A4.268,4.268,0,0,0,39,27.954a4.129,4.129,0,0,1-3.7.917,2.638,2.638,0,0,0-2.814.929,4.006,4.006,0,0,1-2.675,1.48,2.476,2.476,0,0,0-2.222,1.753A4.2,4.2,0,0,1,25.1,35.593a3.279,3.279,0,0,0-2.157,3.051,3.188,3.188,0,0,1-.61,1.928c-1.684,2.079-1.38,4.335-.584,6.6A17.72,17.72,0,0,1,22.734,51a28.246,28.246,0,0,0,2.9,9.477,8.255,8.255,0,0,0,2.615,3.095,22.929,22.929,0,0,0,13.321,4.3m33.388,22.4.3-.2c0-1.273-.027-2.546.007-3.818a2.066,2.066,0,0,1,1.964-2.2,2.088,2.088,0,0,1,2.119,2.194c.039,1,.051,2.007,0,3.007-.041.765.207,1.03,1,1.019q4.648-.059,9.3,0c.81.009,1.013-.224.862-1.028-.3-1.61-.537-3.234-.736-4.86A93.923,93.923,0,0,1,90.2,58.369c.127-.81-.136-.824-.766-.659-1.716.451-3.444.856-5.162,1.3A21.216,21.216,0,0,0,70.256,70.1c-2.094,3.958-2.441,8.22-2.414,12.6a3.112,3.112,0,0,0,1.75,3.237,23.68,23.68,0,0,1,5.371,4.334m34.116-72.688a18.939,18.939,0,0,1-8.469,6.095A28.824,28.824,0,0,1,89.86,25.271c-.924-.024-1.3.2-1.265,1.2.075,2.278-.023,4.561.053,6.838a13.292,13.292,0,0,0,9.6,12.3,10.266,10.266,0,0,0,5.145.383c-.115-.281-.177-.444-.246-.6-1.709-3.924.675-7.611,4.972-7.668a21.8,21.8,0,0,1,4.637.081c1.572.325,1.88-.446,2.13-1.587.039-.178.078-.356.11-.536.63-3.578.2-7.187.317-10.78a.857.857,0,0,0-.465-.777,16.878,16.878,0,0,1-5.769-6.534M102.02,4.1A19.783,19.783,0,0,0,82.728,19.984c-.2,1.026.121,1.238,1.078,1.242,3.146.012,6.294.083,9.43-.2,5.686-.52,10.688-2.29,13.7-7.648a2.591,2.591,0,0,1,2.66-1.332,2.741,2.741,0,0,1,2.44,1.905,13.026,13.026,0,0,0,2.093,3.967c1.567,1.874,3.159,3.652,6.012,3.33.981-.111,1.237-.322,1.057-1.287A19.779,19.779,0,0,0,102.02,4.1m34.007,79.634h0c0-1.459.047-2.919-.008-4.375A21.445,21.445,0,0,0,128,63.1c-3.976-3.342-8.881-4.242-13.691-5.425-.9-.222-.577.382-.522.786.384,2.845.722,5.693.9,8.56a93.744,93.744,0,0,1-1.274,22.326c-.142.8.129.928.823.923,3.1-.023,6.2-.041,9.3.01.894.015,1.073-.342,1.038-1.124a26.425,26.425,0,0,1,.017-3.143,2.058,2.058,0,0,1,2.074-1.959,2.03,2.03,0,0,1,1.982,2.035c.05,1.046.053,2.1.007,3.144-.033.743.174,1.065.984,1.043,1.822-.05,3.647-.043,5.469,0,.713.016.956-.214.941-.933-.04-1.868-.014-3.737-.014-5.606m-34.062,6.526c2,0,4.008-.031,6.011.015.819.019,1.159-.184,1.318-1.079a92.922,92.922,0,0,0,1.294-21.9c-.044-.735-.208-.957-.966-.714a24.465,24.465,0,0,1-15.3.007c-.737-.236-.95-.053-.991.7a93.977,93.977,0,0,0,1.326,22.032c.14.768.449.958,1.159.946,2.049-.033,4.1-.012,6.148-.011m6.277-41.146a17.691,17.691,0,0,1-11.933.176c-.644-.224-.731.1-.805.657q-.734,5.485-1.552,10.958c-.118.782-.016,1.226.828,1.525a20.942,20.942,0,0,0,14.456-.03c.618-.22.878-.507.777-1.185-.6-4-1.175-8.007-1.771-12.1M50.72,83.476a6.6,6.6,0,0,1-2.275-4.064c-.1-.744-.471-.587-.951-.438a19.2,19.2,0,0,1-11.807-.015c-.784-.251-.9.007-1.014.681a5.336,5.336,0,0,1-1.3,2.814c-.6.641-.354.906.261,1.3a16.125,16.125,0,0,0,17.082-.276M28.353,68.722c3.541,4.841,8.3,7.32,14.354,7.008,4.879-.252,10.625-3.7,12.071-7.123-8.81,4.49-17.578,4.5-26.425.116m93.179-23.764a19.814,19.814,0,0,1-2.771.3,2.291,2.291,0,0,0-2.257,1.1,4.005,4.005,0,0,1-2.97,1.756c-.914.091-1.159.475-1.074,1.3a11.95,11.95,0,0,1,.008,1.5,2.293,2.293,0,0,0,1.878,2.49c2.154.565,4.322,1.077,6.474,1.648.553.147.722.025.72-.539-.015-3.181-.007-6.363-.007-9.563m-2.108-15.595a17.827,17.827,0,0,1-.021,2.458c-.194,1.382.388,1.813,1.663,1.6a1.744,1.744,0,0,1,.273,0c1.667-.013,1.827-.163,1.836-1.774q.012-2.256,0-4.512c-.008-1.706-.166-1.722-2.209-1.856-1.483-.1-1.663.587-1.554,1.766.071.769.013,1.548.013,2.324m-34.91,0a19.35,19.35,0,0,1,.019-2.447c.174-1.356-.381-1.82-1.666-1.611a3.544,3.544,0,0,1-.68.007c-1.033-.034-1.475.461-1.452,1.493.034,1.5.007,2.993.008,4.49,0,2.068.059,2.124,2.162,2.124.227,0,.456-.02.68,0,.7.069.975-.207.941-.929-.05-1.041-.013-2.086-.014-3.129m25.724,12.463c-.77,0-1.539-.014-2.309,0a1.094,1.094,0,0,0-1.222,1.154,1.025,1.025,0,0,0,1.087,1.135q2.374.058,4.751,0a1.025,1.025,0,0,0,1.087-1.135,1.093,1.093,0,0,0-1.222-1.155c-.724-.016-1.449,0-2.173,0m9.876-4.3c-.522.09-1.244-.284-1.539.613-.268.814-.616,1.6-.946,2.4-.111.266-.238.466.155.632a3.014,3.014,0,0,0,3.694-1.953c.321-1.381.084-1.685-1.363-1.688" transform="translate(0 -0.001)" fill="#fff"/>
    <path id="Trazado_363" data-name="Trazado 363" d="M327.406,201.419c-1.137,0-2.276.04-3.411-.008a4.054,4.054,0,0,1-4.014-3.722,22.123,22.123,0,0,1,.01-4.218,4,4,0,0,1,3.928-3.651c2.362-.075,4.731-.081,7.093.006a4,4,0,0,1,3.89,3.837,29.035,29.035,0,0,1-.008,3.953,4.055,4.055,0,0,1-3.942,3.79c-1.18.057-2.365.01-3.547.01v0m.043-4.09h1.09c2.5,0,2.483,0,2.32-2.556-.039-.612-.193-.906-.859-.9-1.724.029-3.45.014-5.175.008-.459,0-.735.106-.83.651-.41,2.349-.076,2.792,2.229,2.792h1.226" transform="translate(-202.921 -120.376)" fill="#fff"/>
  </g>
</svg>
