<svg id="Grupo_1185" data-name="Grupo 1185" xmlns="http://www.w3.org/2000/svg" xmlns:xlink="http://www.w3.org/1999/xlink" width="127.573" height="70.92" viewBox="0 0 127.573 127.599">
  <defs>
    <clipPath id="clip-path">
      <rect id="Rectángulo_473" data-name="Rectángulo 473" width="127.573" height="127.599" fill="none"/>
    </clipPath>
  </defs>
  <g id="Grupo_1185-2" data-name="Grupo 1185" clip-path="url(#clip-path)">
    <path id="Trazado_286" data-name="Trazado 286" d="M55.337,24.6c5.151.632,8.294,3.759,8.414,8.044a8.111,8.111,0,0,1-6.732,8.324c-1.069.2-1.48.471-1.619,1.65a11.8,11.8,0,0,1-6.391,9.37c-.732.4-.761.793-.658,1.51a2.973,2.973,0,0,0,2.735,2.84A42.4,42.4,0,0,1,74.809,70.949c.185.22.3.532.749.609q1.162-5.368,2.328-10.735c.114-.519-.209-.791-.516-1.089a10.679,10.679,0,0,1-3.327-8.452c.046-1.241,0-2.486.009-3.728a6.014,6.014,0,0,1,3.35-5.646,1.214,1.214,0,0,0,.779-1.268c-.044-1.842-.032-3.685-.011-5.528a6.17,6.17,0,1,1,12.336.025c.02,1.671.041,3.344-.012,5.013-.024.767.163,1.084.989,1.022a7.682,7.682,0,0,1,2.428.139,6,6,0,0,1,4.739,5.143,33.709,33.709,0,0,1-.043,7.185,9.533,9.533,0,0,1-3.059,5.933,2.891,2.891,0,0,0-.94,2.36q.046,13.114.011,26.228a14.656,14.656,0,0,1-15.6,14.683,14.356,14.356,0,0,1-10.435-5.37L66,94.41a2.675,2.675,0,0,0-.179,1.5c-.009,10.114-.024,20.229.018,30.343,0,1.048-.226,1.353-1.319,1.35q-25.457-.057-50.914,0c-1.1,0-1.325-.317-1.313-1.357.056-5.056.012-10.114.04-15.171a1.317,1.317,0,0,0-.913-1.432C3.99,106.253.057,100.452,0,92.28c-.1-15,6.563-26.08,19.717-33.249a28.246,28.246,0,0,1,8.074-2.879,1.969,1.969,0,0,0,1.757-1.635,2.161,2.161,0,0,0-1.163-3.008,11.586,11.586,0,0,1-5.724-9.384c-.07-.766-.287-.937-1.025-1.047A8.162,8.162,0,0,1,15.357,29.1a2.273,2.273,0,0,0,.156-1.71c-.684-2.691-1.517-5.36-.945-8.213A12.792,12.792,0,0,1,23.345,9.019a2.529,2.529,0,0,0,1.533-1.191,15.163,15.163,0,0,1,23.765-3.62,1.509,1.509,0,0,0,1.763.5A10.028,10.028,0,0,1,63.2,10.9a10.411,10.411,0,0,1-6.13,13.049c-.466.181-.938.348-1.73.642M52.607,72.017l-.149.284c1.606,1.574,3.195,3.167,4.83,4.711a1.19,1.19,0,0,1,.326,1.56,25.953,25.953,0,0,1-3.37,6.036,3.681,3.681,0,0,0-.787,2.469q.039,13.757.014,27.513c0,3.158-1.588,4.748-4.739,4.75q-11.571.006-23.142,0c-3.578,0-5.033-1.476-5.041-5.093,0-.982.331-2.251-.153-2.872-.578-.742-1.929-.111-2.924-.3-.9-.168-1.06.24-1.052,1.041.036,3.342.062,6.686-.012,10.027-.024,1.075.268,1.337,1.337,1.334q21.277-.057,42.555.007c1.246,0,1.428-.405,1.425-1.505q-.051-20.377-.022-40.755c0-3.091,0-3.061,3.05-3.059.821,0,1.1.2,1.084,1.06-.057,2.527-.021,5.056-.02,7.585a1.824,1.824,0,0,0,.32,1.327c2.114,2.476,4.119,5.051,6.328,7.439A10.144,10.144,0,0,0,83.816,98c4.143-1.721,6.554-4.916,6.637-9.391.16-8.654.044-17.313.073-25.969,0-.75-.244-.937-.954-.923-2.1.041-4.2.092-6.3-.017-1.15-.06-1.506.372-1.725,1.423-1.6,7.665-3.262,15.317-4.9,22.976-.6,2.827-.579,2.751-3.373,2.24-1.165-.214-1.2-.692-.982-1.629.65-2.836,1.209-5.693,1.867-8.527a1.906,1.906,0,0,0-.339-1.658,38.659,38.659,0,0,0-9.32-9.667,18.045,18.045,0,0,0-3.735-2.322c-.41,2.077-.846,4.039-1.168,6.019-.177,1.09-.536,1.6-1.782,1.5-1.727-.142-3.474-.036-5.212-.036M51.416,33.654c0-2.655-.028-5.311.018-7.966.013-.78-.191-1.028-1-1.014-2.869.049-5.74-.021-8.609.03A10.558,10.558,0,0,1,34,21.751a1.361,1.361,0,0,0-1.119-.453,6.292,6.292,0,0,0-6.153,6.319q-.045,6.745,0,13.491a8.2,8.2,0,0,0,8.225,8.268q4.111.052,8.223,0a8.213,8.213,0,0,0,8.227-8.27c.03-2.484.005-4.968.007-7.452M49.358,98.9V85.4c0-3.24,0-3.22-3.251-3.112-.659.022-.911.181-.879.869.051,1.069.034,2.142.007,3.213a4.086,4.086,0,0,1-4.162,4.155q-4.048.056-8.1,0a4.09,4.09,0,0,1-4.189-4.257c-.019-1.071.048-2.146-.018-3.213-.09-1.449-1.276-.726-1.848-.681-.74.058-2.15-.836-2.209.685-.139,3.594-.033,7.2-.056,10.8,0,.613.191.824.806.805,1.2-.036,2.4-.038,3.6,0A8.214,8.214,0,0,1,36.528,105.6c-1.277,3.641-4.3,5.512-8.911,5.512-2.989,0-2.949,0-2.974,3.009-.008.917.262,1.131,1.149,1.127,7.455-.035,14.912-.046,22.367.009,1.094.008,1.225-.39,1.218-1.318-.038-5.013-.018-10.026-.018-15.04M22.834,13.758c-.359.212-.546.3-.71.424a9.132,9.132,0,0,0-3.056,10.591c.18.467.389.586.849.409a6.023,6.023,0,0,1,2.38-.466A.9.9,0,0,0,23.3,23.99a9.984,9.984,0,0,1,7.272-6.452c.527-.134.665-.261.577-.841-.347-2.287-.316-2.291,2.034-2.291a4.969,4.969,0,0,0,.771-.006c.762-.121.96.2,1.091.95a6,6,0,0,0,5.7,5.193c4.326.089,8.658.1,12.983-.005a6.258,6.258,0,0,0,5.857-5.392,6.019,6.019,0,0,0-3.749-6.49,5.959,5.959,0,0,0-7.285,2.452c-.414.6-.826,1.2-1.212,1.817-.248.4-.456.477-.918.226-3.042-1.646-3.086-1.775-1.152-4.542a2.472,2.472,0,0,1,.3-.414c.542-.5.427-.88-.12-1.331a11.319,11.319,0,0,0-6.793-2.72C32.563,3.851,27.8,8.135,27,14.591c-.264,2.114-.264,2.114-2.373,1.867-1.881-.22-1.88-.22-1.76-2.007.011-.167-.014-.336-.032-.693M17.515,65.311a4.482,4.482,0,0,0-1.7,1.092C7.36,73.528,3.538,82.67,4.139,93.655a14.4,14.4,0,0,0,11.214,12.986c.835.183,1.129.055,1.1-.871-.062-2.184-.037-4.371-.009-6.557a1.13,1.13,0,0,0-.717-1.176,6.035,6.035,0,0,1-3.409-5.74q0-5.593,0-11.186c0-2.943,0-2.884,2.911-2.952,1.092-.025,1.232.383,1.222,1.318-.044,4.028-.02,8.057-.019,12.086,0,2.555.656,3.15,3.215,3.109.758-.012.923-.265.915-.964-.034-2.828-.047-5.658,0-8.486.027-1.652-.313-3.35.5-4.931a.951.951,0,0,0-.211-.962c-.777-1.179-.441-2.03.582-2.931,1.481-1.3,2.817-2.77,4.429-4.382-2.075,0-3.792-.107-5.488.035-1.29.107-1.693-.392-1.861-1.565-.247-1.725-.657-3.427-1-5.176m68.9-7.7h3.342a4.568,4.568,0,0,0,4.489-3.355c.172-.557.1-.779-.528-.768-1.456.025-2.913.008-4.37.007-4.352,0-6.536-1.932-7.075-6.255a2.076,2.076,0,0,0-2.132-1.966,2.005,2.005,0,0,0-1.953,2c-.051,1.8-.075,3.6.016,5.4a6.684,6.684,0,0,0,2.343,4.429c.9.884,1.94.405,2.914.491s1.969.019,2.955.019M25.236,107v-.012c1.285,0,2.573.064,3.853-.014a4.106,4.106,0,0,0,3.8-4.108,4.065,4.065,0,0,0-3.84-4.068c-2.566-.085-5.138-.009-7.707-.039-.613-.007-.814.191-.805.8.029,2.183.043,4.368-.006,6.551-.018.778.3.923.977.9,1.24-.043,2.483-.012,3.725-.012M39.086,53.5c-1.409,0-2.82.049-4.225-.021a.9.9,0,0,0-1.1.882,7.656,7.656,0,0,1-.317,1.237c-.25.7,0,1.07.667,1.374,1.434.654,2.832,1.388,4.237,2.1a1.258,1.258,0,0,0,1.305.091q2.257-1.2,4.57-2.3a.8.8,0,0,0,.5-1.112,9.774,9.774,0,0,1-.332-1.365c-.105-.729-.463-.952-1.206-.913-1.362.072-2.731.021-4.1.02M86.392,37.932q0-1.41,0-2.819a2.193,2.193,0,0,0-.011-.256,2.065,2.065,0,0,0-2.03-1.925,1.977,1.977,0,0,0-2.039,1.9c-.07,2.048-.044,4.1-.021,6.149.008.648,1.829,1.775,2.371,1.509,1.141-.561,2.128-1.195,1.754-2.765a8.1,8.1,0,0,1-.024-1.788M53.408,67.9a11.617,11.617,0,0,1,1.41.01c.853.1,1.206-.211,1.307-1.087a24.476,24.476,0,0,1,.67-3.259,1.07,1.07,0,0,0-.848-1.508c-1.182-.363-2.345-.791-3.505-1.221-.737-.273-1.058-.181-1.05.73.011,1.321-.12,2.645-.224,3.964-.188,2.371-.2,2.37,2.242,2.37M37.069,86.421h1.026c3.082,0,3.054,0,3.052-3.045,0-.8-.169-1.137-1.048-1.091-1.407.074-2.822.02-4.233.02-3.039,0-3.014,0-2.987,3.109.007.753.153,1.082.984,1.025,1.064-.073,2.137-.018,3.206-.018M24.673,67.9a15.15,15.15,0,0,1,1.541.01c.848.087,1.121-.169.942-1.063-.217-1.087-.259-2.208-.393-3.312-.111-.914.375-2.292-.259-2.633-.713-.385-1.817.419-2.723.785-2.579,1.044-2.577,1.049-2.01,3.816.491,2.4.491,2.4,2.9,2.4M91.186,49.384c.9,0,1.8,0,2.695,0,.248,0,.529.059.7-.2.905-1.355-.389-3.828-2.075-3.9-1.324-.056-2.653-.044-3.977,0a2.046,2.046,0,1,0-.038,4.09c.9.043,1.8.008,2.695.012m-52.3,28.807c.958,0,1.731-.032,2.5.009.719.039.9-.176.657-.882-.748-2.184-1.453-4.383-2.159-6.581-.137-.428-.235-.79-.821-.789s-.677.377-.813.8c-.47,1.466-1,2.913-1.43,4.391-.283.973-1.205,2.176-.688,2.854.5.648,1.925.118,2.753.2M22.609,32.928c0-1.108-.041-2.218.014-3.323.037-.75-.25-.858-.9-.711a4.127,4.127,0,0,0-.011,8.053c.646.149.943.054.909-.7-.049-1.106-.012-2.215-.012-3.323m32.922-.04c0,1.157.025,2.316-.01,3.472-.019.613.232.712.77.622a4.133,4.133,0,0,0,.068-8.1c-.6-.119-.865-.011-.839.666.042,1.113.011,2.229.012,3.343M33.064,73.315c.552-1.664,1.056-3.143,1.527-4.632A4.078,4.078,0,0,0,33.2,66.394c-.61-.169-1.885.753-1.77,1.314a27.788,27.788,0,0,0,1.631,5.607m12.012.024A30.213,30.213,0,0,0,46.7,67.767c.06-.287.2-.664-.152-.8-.568-.22-1.256-.9-1.729-.427-.572.571-1.53,1.152-1.237,2.2.41,1.471.94,2.908,1.5,4.593M47.522,78.2c1.8-.061,3.4-.1,4.663,1.139.25.246.433.118.6-.145a.628.628,0,0,0-.071-.907c-1.068-1.05-2.122-2.114-3.179-3.176-.307-.309-.532-.392-.736.118-.378.944-.8,1.869-1.278,2.97m-22.051-.084H30.58c-.41-.951-.819-1.79-1.132-2.663-.281-.783-.563-.647-1.039-.161-.865.883-1.78,1.717-2.938,2.824M39.08,65.82c.862.207,1.661-.242,1.6-.949-.054-.652-1.083-.89-1.745-.786-.537.084-1.531.119-1.5.8.037.74.791,1.145,1.639.932M30.9,62.708A11.746,11.746,0,0,0,33.9,61.441L30.9,59.966Zm16.362.051V59.982A14.724,14.724,0,0,0,44.252,61.6l3.008,1.163" transform="translate(0 0)" fill="#fff"/>
    <path id="Trazado_287" data-name="Trazado 287" d="M301.772,23.919c4.411,0,8.822.026,13.233-.022.907-.01,1.142.244,1.135,1.141-.024,2.995.013,2.995-2.984,2.995-8.18,0-16.36-.022-24.539.026-1.075.007-1.359-.271-1.332-1.339.071-2.8.017-2.8,2.8-2.8h11.691" transform="translate(-188.572 -15.686)" fill="#fff"/>
    <path id="Trazado_288" data-name="Trazado 288" d="M301.661,63.953c-4.411,0-8.822-.027-13.233.022-.921.01-1.132-.267-1.126-1.15.023-2.986-.012-2.986,2.992-2.986,8.18,0,16.36.022,24.539-.027,1.089-.007,1.349.294,1.323,1.348-.069,2.792-.017,2.793-2.8,2.793H301.661" transform="translate(-188.585 -39.26)" fill="#fff"/>
    <path id="Trazado_289" data-name="Trazado 289" d="M297.544,99.886c-3.04,0-6.08-.037-9.118.023-.924.018-1.129-.273-1.123-1.152.023-2.984-.012-2.984,2.992-2.984,5.48,0,10.96.027,16.44-.025.987-.009,1.2.281,1.189,1.219-.041,2.92,0,2.92-2.93,2.92h-7.449" transform="translate(-188.585 -62.848)" fill="#fff"/>
    <path id="Trazado_290" data-name="Trazado 290" d="M250.821,5.15c-.213.249-.391.485-.6.692-2.782,2.789-5.581,5.561-8.342,8.371-.516.525-.817.517-1.318-.007q-2.084-2.183-4.268-4.27c-.524-.5-.6-.877.005-1.314a1.028,1.028,0,0,0,.091-.09c.713-.674,1.36-1.776,2.159-1.9.761-.118,1.4,1.1,2.036,1.778.548.581.862.41,1.329-.068,1.766-1.806,3.594-3.553,5.337-5.381.6-.631.979-.6,1.512.024.5.586,1.082,1.1,1.622,1.646.146.149.269.32.434.518" transform="translate(-154.828 -1.642)" fill="#fff"/>
    <path id="Trazado_291" data-name="Trazado 291" d="M250.828,41.08c-.246.269-.437.494-.646.7-2.754,2.757-5.525,5.5-8.251,8.281-.555.567-.865.583-1.413,0-1.381-1.463-2.817-2.876-4.264-4.273-.475-.458-.532-.773-.012-1.23.769-.676,1.4-1.831,2.249-2.008s1.448,1.129,2.135,1.8c.517.5.8.385,1.239-.062,1.8-1.835,3.65-3.617,5.43-5.469.558-.581.911-.59,1.42.013.5.587,1.083,1.095,1.622,1.647.17.175.311.378.491.6" transform="translate(-154.828 -25.194)" fill="#fff"/>
    <path id="Trazado_292" data-name="Trazado 292" d="M363.34,97.887c0,2.048,0,2.048-2.483,2.047-1.632,0-1.632,0-1.631-2.516,0-1.6,0-1.6,2.547-1.6,1.567,0,1.567,0,1.567,2.067" transform="translate(-235.795 -62.896)" fill="#fff"/>
    <path id="Trazado_293" data-name="Trazado 293" d="M104.555,115.967c-2.9,0-2.857,0-2.9-2.946-.015-.983.271-1.269,1.218-1.186a26.122,26.122,0,0,0,2.823.013,4.013,4.013,0,0,0,4.082-3.222c.175-.762.46-.959,1.168-.9a10.658,10.658,0,0,0,2.052,0c1.038-.116,1.088.393.951,1.206a8.288,8.288,0,0,1-8.107,7.034c-.428.009-.856,0-1.284,0" transform="translate(-66.724 -70.699)" fill="#fff"/>
    <path id="Trazado_294" data-name="Trazado 294" d="M91.815,83.872a2.047,2.047,0,1,1-2.031,2.06,2.065,2.065,0,0,1,2.031-2.06" transform="translate(-58.934 -55.053)" fill="#fff"/>
    <path id="Trazado_295" data-name="Trazado 295" d="M129.806,85.933a2.046,2.046,0,1,1-2.032-2.061,2.071,2.071,0,0,1,2.032,2.061" transform="translate(-82.518 -55.053)" fill="#fff"/>
  </g>
</svg>
