<svg id="Grupo_1180" data-name="Grupo 1180" xmlns="http://www.w3.org/2000/svg" xmlns:xlink="http://www.w3.org/1999/xlink" width="135.235" height="70.92" viewBox="0 0 135.235 135.251">
  <defs>
    <clipPath id="clip-path">
      <rect id="Rectángulo_471" data-name="Rectángulo 471" width="135.235" height="135.251" fill="none"/>
    </clipPath>
  </defs>
  <g id="Grupo_1179" data-name="Grupo 1179" clip-path="url(#clip-path)">
    <path id="Trazado_274" data-name="Trazado 274" d="M148.2,153.424c1.119-.669,1.868-1.146,2.643-1.576a5.216,5.216,0,0,1,7.253,7.094c-.108.2-.214.411-.375.721,2.612.228,4.619,1.286,5.24,3.94.817,3.492-1.638,5.192-4.142,6.866a6.384,6.384,0,0,1,2.5,2.9,4.915,4.915,0,0,1-2.832,6.262c-2.369,1.015-4.776,1.939-7.176,2.88-.608.238-1.012.48-1,1.272q.082,3.941,0,7.886c-.017.858.34.978,1.08.991,3.025.054,3.446.515,3.446,3.566,0,2.441-.018,4.883.007,7.323a2.241,2.241,0,0,1-1.62,2.491c-.827.23-.635.793-.636,1.313-.008,4.6,0,9.2-.006,13.8,0,2.325-.708,3.044-3,3.046q-10.492.006-20.985,0c-2.35,0-3.064-.736-3.066-3.148,0-4.554-.01-9.107.008-13.661,0-.694-.032-1.2-.865-1.463a2.111,2.111,0,0,1-1.392-2.227c-.009-2.864-.034-5.728.008-8.591.024-1.629.917-2.421,2.605-2.467,1.889-.052,1.889-.052,1.889-1.97,0-4.836-.008-9.671.009-14.506a4.272,4.272,0,0,0-.478-2.014q-3.55-7.03-7.043-14.088a5.966,5.966,0,0,1,6.687-8.544,7.6,7.6,0,0,1,4.07,2.867c.774.884,1.175.786,1.825-.158q3.233-4.695,6.633-9.273A5.609,5.609,0,0,1,146.8,143.4a5.71,5.71,0,0,1,2.611,6.9c-.309.921-.7,1.815-1.212,3.129m-15.9,28.469c0,4.057.02,6.873-.013,9.689-.009.744.136,1.088.99,1.079q5.773-.062,11.548,0c.819.008,1.027-.265,1.017-1.045-.038-3.051-.016-6.1-.015-9.154,0-2.327.275-2.732,2.382-3.572,2.612-1.041,5.225-2.078,7.831-3.134.4-.163,1.1-.189.958-.8s-.793-.316-1.222-.335c-.89-.039-1.784-.035-2.675-.006a2.342,2.342,0,0,1-2.634-1.639c-.389-1.234.267-2.042,1.2-2.735,2.113-1.563,4.209-3.148,6.306-4.731.325-.245.814-.5.461-1-.289-.407-.691-.093-1.01.064-1.851.91-3.691,1.843-5.542,2.754-1.511.743-2.525.633-3.283-.363-.87-1.143-.5-2.171.288-3.2,1.652-2.162,3.271-4.351,4.9-6.531.33-.442.839-.916.28-1.463-.482-.472-.962-.025-1.391.231-2.5,1.489-5,2.974-7.479,4.49-1.059.647-2.1.885-3.1-.015a2.371,2.371,0,0,1-.43-2.961c1.072-2.6,2.1-5.218,3.143-7.827.332-.829.863-1.758-.254-2.329-1.1-.561-1.575.406-2.09,1.127-2.672,3.742-5.334,7.491-8.019,11.224-1.237,1.721-2.572,1.823-4.1.337q-1.714-1.671-3.384-3.387c-.638-.654-1.321-1.14-2.212-.529-.971.666-.673,1.5-.236,2.36,1.254,2.465,2.341,5.026,3.748,7.4,3.168,5.345,5.183,10.907,4.03,16m6.764,24.276c-2.625,0-5.252.023-7.877-.014-.786-.011-1.177.106-1.164,1.049.053,3.844.038,7.689.009,11.534-.005.725.2.975.951.971q8.087-.04,16.175,0c.766,0,.938-.276.934-.98-.026-3.844-.044-7.689.01-11.533.014-.95-.381-1.053-1.162-1.042-2.625.037-5.251.014-7.877.014m.013-4.508h8.015c3.288,0,3.247,0,3.268-3.283.006-.982-.258-1.257-1.247-1.249-6,.046-12,.023-18,.023-3.392,0-3.357,0-3.345,3.354,0,.922.265,1.19,1.184,1.176,3.374-.051,6.749-.02,10.124-.02" transform="translate(-74.55 -88.957)" fill="#fff"/>
    <path id="Trazado_275" data-name="Trazado 275" d="M247.8,212.407c-.773-.585-1.447-1.088-2.115-1.6a4.868,4.868,0,0,1-1.947-5.469,4.779,4.779,0,0,1,4.231-3.61c.274-.041.547-.088.941-.152-1.475-2.561-1.7-5.085.579-7.174,3.035-2.785,5.893-1.075,8.966.98-.474-1.237-.816-2.084-1.126-2.943a5.72,5.72,0,0,1,2.56-7.143,5.648,5.648,0,0,1,7.392,1.717c2.229,3.02,4.423,6.068,6.537,9.169.7,1.021,1.109.9,1.83.1a7.609,7.609,0,0,1,4.084-2.844,5.967,5.967,0,0,1,6.626,8.592q-3.41,6.864-6.864,13.707a5.543,5.543,0,0,0-.641,2.684c.046,2.722.038,5.446,0,8.168-.011.821.076,1.258,1.1,1.245,1.792-.023,2.575.823,2.59,2.584.023,2.77,0,5.54.011,8.309a2.206,2.206,0,0,1-1.523,2.419c-.766.222-.743.671-.739,1.249.012,1.784.024,3.568,0,5.352a2.3,2.3,0,0,1-2.614,2.589q-10.493.023-20.985,0c-1.83,0-2.6-.827-2.62-2.708-.016-1.737-.025-3.474.007-5.211.012-.695-.052-1.089-.938-1.135a2.116,2.116,0,0,1-2.135-2.32c-.03-2.91-.035-5.821,0-8.732a2.254,2.254,0,0,1,2.487-2.427c.281-.011.563,0,.845,0,2.048,0,2.009,0,2-2.023a1.224,1.224,0,0,0-.916-1.334c-2.1-.8-4.128-1.852-6.281-2.456-4.358-1.222-5.85-6.58-1.349-9.578m19.81,15.391c1.784,0,3.57-.058,5.35.022,1.061.047,1.465-.2,1.43-1.366-.088-3,0-6.008-.044-9.011a5.9,5.9,0,0,1,.669-2.828c2.432-4.81,4.83-9.638,7.249-14.455.408-.812.443-1.555-.367-2.11a1.443,1.443,0,0,0-2.009.34q-1.732,1.753-3.486,3.484c-1.644,1.618-2.929,1.514-4.275-.361q-4.022-5.6-8.02-11.222c-.5-.707-1-1.526-2.012-1.012-1.039.527-.632,1.409-.312,2.208,1.065,2.652,2.115,5.311,3.205,7.953a2.371,2.371,0,0,1-.434,2.961c-1.005.9-2.041.661-3.1.013-2.48-1.517-4.981-3-7.478-4.489-.429-.256-.909-.7-1.391-.23-.558.548-.047,1.02.283,1.462q2.488,3.325,4.985,6.642c.753.995,1.048,2.029.2,3.08-.887,1.094-1.978,1.057-3.159.447-1.832-.946-3.685-1.853-5.535-2.764-.357-.176-.8-.583-1.127-.13-.411.576.233.8.573,1.064q3.136,2.387,6.3,4.742a2.3,2.3,0,0,1-1.4,4.289c-.938-.018-1.878-.03-2.815.009-.429.018-1.086-.265-1.224.332-.143.621.57.637.961.8,2.775,1.136,5.552,2.268,8.349,3.348a2.625,2.625,0,0,1,1.868,2.8c-.033.985.038,1.974-.02,2.956-.046.785.2,1.068,1.017,1.044,1.923-.055,3.848-.018,5.773-.017m-.853,9.017h8.022c3.3,0,3.246,0,3.3-3.255.019-1.123-.375-1.283-1.362-1.276-5.958.043-11.915.021-17.874.021-3.445,0-3.4,0-3.366,3.467.01.925.341,1.067,1.146,1.058,3.377-.037,6.755-.016,10.133-.016m.585,4.508h-5.492c-3.311,0-3.251,0-3.3,3.265-.018,1.144.412,1.276,1.38,1.265,4.177-.046,8.355-.02,12.533-.02,3.445,0,3.4,0,3.361-3.477-.011-.939-.367-1.06-1.158-1.048-2.44.04-4.881.015-7.322.015" transform="translate(-151.85 -115.094)" fill="#fff"/>
    <path id="Trazado_276" data-name="Trazado 276" d="M28.594,195.3c1.007-.588,1.715-1.009,2.43-1.418,2.4-1.368,4.836-1.153,6.607.576s2.032,4.166.715,6.586c-.067.122-.117.253-.241.526,2.656.272,4.7,1.373,5.255,4.164.67,3.384-1.739,4.98-4.022,6.568.033.468.419.522.646.707a4.91,4.91,0,0,1-1.083,8.516c-2.4,1.059-4.846,2.023-7.31,2.922-1.491.544-.727,1.7-.883,2.607-.163.946.617.673,1.113.78a2.24,2.24,0,0,1,1.941,2.392c.009,5.869.02,11.739,0,17.608-.008,1.74-.91,2.506-2.837,2.508q-11.833.01-23.665,0c-.047,0-.094,0-.141,0-1.827-.043-2.642-.847-2.646-2.7q-.02-8.593,0-17.185c0-1.781.787-2.635,2.552-2.623.964.007,1.162-.325,1.148-1.2-.047-2.91-.033-5.822-.006-8.733a3.954,3.954,0,0,0-.509-1.866q-3.414-6.785-6.8-13.585C-.708,199.3-.1,196.228,2.428,194.4s5.642-1.424,8.13,1.041c1.835,1.818,1.834,1.818,3.332-.272,2-2.785,3.943-5.606,6.005-8.34a5.6,5.6,0,0,1,7.2-1.549,5.7,5.7,0,0,1,2.7,6.863c-.313.96-.715,1.891-1.2,3.154m-9.119,32.5h3.52c3.189,0,3.189,0,3.19-3.2,0-2.642.176-2.9,2.579-3.851q3.919-1.556,7.829-3.134c.32-.13.839-.175.779-.666-.078-.637-.65-.393-1.02-.405-.984-.033-1.971-.031-2.956-.007a2.32,2.32,0,0,1-2.544-1.565,2.289,2.289,0,0,1,1.116-2.759q3.163-2.351,6.3-4.735c.316-.239.853-.451.562-.969-.307-.545-.748-.145-1.094.024-1.853.906-3.708,1.807-5.536,2.762-1.167.609-2.262.727-3.181-.344s-.614-2.147.18-3.189c1.65-2.164,3.269-4.35,4.9-6.528.332-.444.867-.925.393-1.479-.491-.574-1.035-.073-1.5.205-2.418,1.438-4.838,2.873-7.236,4.344-1.069.656-2.127,1.089-3.228.158-1.085-.917-.919-2.009-.422-3.194,1.085-2.593,2.1-5.215,3.148-7.823.307-.763.663-1.594-.253-2.121-.98-.565-1.521.171-2.04.9q-4.032,5.681-8.1,11.337c-1.3,1.814-2.6,1.93-4.182.383-1.208-1.182-2.371-2.409-3.6-3.573a1.442,1.442,0,0,0-2.393.129c-.453.728-.089,1.346.227,1.978,2.369,4.736,4.727,9.478,7.114,14.205a5.65,5.65,0,0,1,.638,2.693c-.035,3.05.04,6.1-.041,9.151-.029,1.1.335,1.343,1.355,1.3,1.827-.079,3.66-.022,5.49-.022m-.431,18.034c3,0,6.006-.023,9.009.015.836.011,1.248-.1,1.232-1.113-.063-3.8-.044-7.6-.01-11.4.007-.777-.189-1.049-1.01-1.045q-9.15.049-18.3,0c-.821,0-1.018.268-1.011,1.044.035,3.8.053,7.6-.009,11.4-.017,1.012.395,1.124,1.231,1.113,2.956-.039,5.912-.015,8.868-.015" transform="translate(0 -115.099)" fill="#fff"/>
    <path id="Trazado_277" data-name="Trazado 277" d="M150.39,38.816c0-2.676-.023-5.353.015-8.029a1.7,1.7,0,0,0-.826-1.6c-4.586-3.328-6.674-7.826-5.7-13.451s4.41-9.2,9.869-10.757c.987-.282,1.191-.7,1.17-1.624-.053-2.3.707-3.367,2.241-3.359s2.281,1.066,2.22,3.381c-.025.952.229,1.333,1.193,1.609,5.465,1.564,8.883,5.163,9.851,10.773.97,5.626-1.123,10.135-5.728,13.431a1.7,1.7,0,0,0-.755,1.9c.149.885.923.421,1.385.434,2.4.07,3.09.73,3.095,3.129,0,1.831.017,3.663,0,5.494s-.838,2.634-2.68,2.672c-1.823.038-1.823.038-1.824,1.888,0,.845.029,1.692-.011,2.535a2.206,2.206,0,0,1-2.3,2.322q-4.437.068-8.874,0a2.207,2.207,0,0,1-2.325-2.438c-.032-2.77-.009-5.541-.011-8.311M154.9,9.35a8.3,8.3,0,0,0-1.047.283,8.708,8.708,0,0,0-5.662,7.6,8.29,8.29,0,0,0,4.4,8.484,3.979,3.979,0,0,1,2.349,4.132c-.122,4.69-.015,9.386-.06,14.079-.009.925.259,1.172,1.175,1.173,3.354,0,3.354.038,3.355-3.337V41.62c0-2.688.586-3.322,3.309-3.281,1.019.015,1.2-.318,1.24-1.266.047-1.161-.61-1.017-1.324-1.021-2.6-.016-3.222-.652-3.225-3.251,0-1.267.046-2.537-.013-3.8a2.711,2.711,0,0,1,1.731-2.9,8.4,8.4,0,0,0,3.472-3c3.5-5.116.689-12.63-5.192-13.654,0,2.684.008,5.353,0,8.022-.007,1.768-.858,2.806-2.259,2.8s-2.235-1.037-2.242-2.815c-.01-2.666,0-5.333,0-8.1" transform="translate(-89.57 0)" fill="#fff"/>
    <path id="Trazado_278" data-name="Trazado 278" d="M55.994,327.853a2.243,2.243,0,1,1,2.292-2.195,2.266,2.266,0,0,1-2.292,2.195" transform="translate(-33.548 -201.635)" fill="#fff"/>
  </g>
</svg>
