<svg xmlns="http://www.w3.org/2000/svg" xmlns:xlink="http://www.w3.org/1999/xlink" width="113.674" height="70.92" viewBox="0 0 113.674 113.671">
  <defs>
    <clipPath id="clip-path">
      <rect id="Rectángulo_474" data-name="Rectángulo 474" width="113.674" height="113.671" fill="none"/>
    </clipPath>
  </defs>
  <g id="Grupo_1186" data-name="Grupo 1186" clip-path="url(#clip-path)">
    <path id="Trazado_296" data-name="Trazado 296" d="M66.822,0A7.09,7.09,0,0,1,68.2,1.1Q79.024,11.936,89.871,22.749a3.448,3.448,0,0,1,1.088,2.658c-.032,4.55-.01,9.1-.02,13.651a4.644,4.644,0,0,1-.144,1.314,1.846,1.846,0,0,1-3.566-.18,7.139,7.139,0,0,1-.077-1.326c-.005-4.18-.014-8.361.008-12.541a2,2,0,0,0-.637-1.562Q76.34,14.622,66.2,4.44a2.108,2.108,0,0,0-1.651-.673q-23.418.027-46.835.015c-1.954,0-2.568.626-2.574,2.6,0,1.369.033,2.739-.015,4.106-.024.7.232.876.893.87,2.922-.029,5.845-.012,8.768-.012,9.766,0,19.533.012,29.3-.016a3.583,3.583,0,0,1,2.754,1.127q10.8,10.858,21.657,21.662a3.232,3.232,0,0,1,1.07,2.547c-.053,1.774,0,3.551-.02,5.327-.016,1.436-.722,2.226-1.913,2.206-1.131-.02-1.832-.814-1.866-2.169-.026-1.035-.063-2.076.011-3.106.062-.856-.256-1.044-1.065-1.039q-7.824.051-15.648.011a5.678,5.678,0,0,1-5.885-4.548,8.009,8.009,0,0,1-.121-1.653c-.009-5.179-.025-10.359.015-15.537.006-.845-.241-1.044-1.059-1.043q-22.862.035-45.725.02c-1.877,0-2.5.649-2.5,2.563q0,44.837,0,89.674c0,1.882.638,2.506,2.552,2.506q26.414,0,52.828,0c1.811,0,2.72.614,2.746,1.852.027,1.27-.924,1.929-2.787,1.929H6.959c-4.052,0-5.423-.918-6.959-4.662V15.984c1.555-3.732,2.931-4.634,7.067-4.634,1.142,0,2.286-.038,3.426.014.684.031.9-.19.871-.872-.052-1.14-.014-2.284-.014-3.427,0-4.134.906-5.516,4.634-7.066Zm5.952,34.115L56.868,18.252c.034-.068-.022-.009-.022.051-.007,4.616-.024,9.231,0,13.847A1.846,1.846,0,0,0,58.816,34.1c1.106.053,2.215.017,3.323.018,3.536,0,7.073,0,10.634,0" fill="#fff"/>
    <path id="Trazado_297" data-name="Trazado 297" d="M190.976,185.79q-8.212,0-16.423,0c-4.876-.006-8.081-3.189-8.086-8.046-.009-8.507.006-17.014-.007-25.521a7.649,7.649,0,0,1,3.265-6.679,1.292,1.292,0,0,0,.532-1.223c.049-2.771-.114-5.544.156-8.315a20.829,20.829,0,0,1,41.206-1.169c.579,3,.291,6.049.309,9.077a2.125,2.125,0,0,0,.928,1.924,7.1,7.1,0,0,1,2.863,5.862c.022,8.877.039,17.754-.006,26.631a7.483,7.483,0,0,1-7.538,7.448c-5.733.039-11.466.01-17.2.012m.125-3.781q8.267,0,16.535,0c2.808,0,4.311-1.507,4.312-4.321q.006-12.706,0-25.413c0-2.88-1.492-4.386-4.364-4.388q-16.479-.009-32.959,0c-2.875,0-4.374,1.508-4.375,4.384q-.006,12.706,0,25.412c0,2.808,1.516,4.323,4.316,4.325q8.267.008,16.535,0m.022-37.914c2.848,0,5.7-.023,8.544.015.73.01.965-.208.943-.939-.049-1.589.021-3.182-.026-4.771a9.5,9.5,0,0,0-9.161-9.434,9.4,9.4,0,0,0-9.74,8.91c-.134,1.729,0,3.477-.085,5.212-.041.884.31,1.034,1.092,1.022,2.811-.041,5.622-.016,8.433-.016m17.044-3.89a36.932,36.932,0,0,0-.146-3.813,17.045,17.045,0,0,0-33.257-2.855,26.867,26.867,0,0,0-.73,8.027c.008,2.538,0,2.487,2.538,2.556,1.02.028,1.289-.266,1.281-1.279-.02-2.543-.242-5.106.387-7.621a13.246,13.246,0,0,1,26,1.506c.284,2.175.076,4.359.151,6.538.011.331-.157.825.442.817,1.066-.013,2.3.375,3.141-.168.588-.378.132-1.589.192-2.425.026-.368,0-.74,0-1.283" transform="translate(-102.067 -72.127)" fill="#fff"/>
    <path id="Trazado_298" data-name="Trazado 298" d="M40.321,95.547A20.846,20.846,0,1,1,61.244,74.784,20.956,20.956,0,0,1,40.321,95.547m12.758-9.618A16.993,16.993,0,1,0,27.446,63.617c-6.51,7.612-4.387,17.762.26,22.192,1.947-3.861,2.63-4.9,4.523-6.3.706-.521.824-.807.292-1.6a9.306,9.306,0,0,1,2.1-12.595A9.474,9.474,0,0,1,47.46,66.5a9.37,9.37,0,0,1,.761,11.59c-.2.31-.752.6-.1,1.059a13.418,13.418,0,0,1,4.953,6.782m-11.2,5.8a16.656,16.656,0,0,0,7.2-2.355,1.071,1.071,0,0,0,.6-1.349,9.613,9.613,0,0,0-4.407-6.256,1.52,1.52,0,0,0-1.542-.149,8.614,8.614,0,0,1-6.691-.009,1.438,1.438,0,0,0-1.444.118,9.65,9.65,0,0,0-4.461,6.22,1.124,1.124,0,0,0,.62,1.438c2.689,1.543,5.565,2.347,10.122,2.343M40.4,67.146a5.663,5.663,0,0,0-5.683,5.607,5.686,5.686,0,1,0,11.371,0,5.666,5.666,0,0,0-5.688-5.6" transform="translate(-11.991 -33.022)" fill="#fff"/>
    <path id="Trazado_299" data-name="Trazado 299" d="M43.226,180.034q-10.428,0-20.856,0A8.525,8.525,0,0,1,21.262,180a1.753,1.753,0,0,1-1.628-1.685,1.774,1.774,0,0,1,1.209-1.911,3.816,3.816,0,0,1,1.533-.156q20.912,0,41.824,0a8,8,0,0,1,1,.022,1.856,1.856,0,0,1,1.737,1.942,1.789,1.789,0,0,1-1.853,1.8c-1.33.042-2.662.017-3.993.017H43.226" transform="translate(-12.032 -108.067)" fill="#fff"/>
    <path id="Trazado_300" data-name="Trazado 300" d="M43.193,200.8H64.161c.333,0,.667-.015,1,.014a1.818,1.818,0,0,1,1.754,1.8,1.847,1.847,0,0,1-1.613,1.937,6.378,6.378,0,0,1-1,.033q-21.023,0-42.047,0a6.044,6.044,0,0,1-1.106-.047,1.918,1.918,0,0,1-1.562-1.892,1.874,1.874,0,0,1,1.75-1.822c.625-.05,1.256-.02,1.885-.02h19.97" transform="translate(-12.011 -123.121)" fill="#fff"/>
    <path id="Trazado_301" data-name="Trazado 301" d="M43.328,225.288q10.316,0,20.633,0a11.525,11.525,0,0,1,1.219.031,1.864,1.864,0,0,1,.087,3.711,7.062,7.062,0,0,1-1.106.05q-20.91,0-41.82,0c-.185,0-.37.005-.554,0-1.374-.057-2.242-.837-2.2-1.971.042-1.1.865-1.811,2.22-1.813q10.76-.02,21.52-.008" transform="translate(-12.009 -138.138)" fill="#fff"/>
    <path id="Trazado_302" data-name="Trazado 302" d="M31.88,253.495c-3.323,0-6.647.006-9.97,0-1.473,0-2.36-.749-2.328-1.919.031-1.123.912-1.857,2.305-1.859q10.025-.013,20.05,0c1.4,0,2.251.744,2.258,1.892.008,1.166-.815,1.879-2.236,1.884-3.36.012-6.72,0-10.081,0" transform="translate(-12.007 -153.112)" fill="#fff"/>
    <path id="Trazado_303" data-name="Trazado 303" d="M212.482,225.833a7.03,7.03,0,0,0-1.028-4.179,7.346,7.346,0,0,1,2.079-9.517,7.551,7.551,0,0,1,10.842,10.223,3.208,3.208,0,0,0-.58,1.948,26.359,26.359,0,0,1-.1,4.208,5.653,5.653,0,0,1-11.2-.249,23.9,23.9,0,0,1-.012-2.436m3.738-.845c0,.776-.017,1.553,0,2.328.036,1.38.7,2.154,1.831,2.18,1.182.027,1.925-.774,1.954-2.186q.045-2.217,0-4.435a2.849,2.849,0,0,1,.8-2.1,3.735,3.735,0,0,0-.091-5.364,3.785,3.785,0,0,0-5.221.013,3.715,3.715,0,0,0-.081,5.358,2.82,2.82,0,0,1,.809,2.1c-.017.7,0,1.4,0,2.107" transform="translate(-129.07 -129.126)" fill="#fff"/>
  </g>
</svg>
