<svg id="Grupo_1169" data-name="Grupo 1169" xmlns="http://www.w3.org/2000/svg" xmlns:xlink="http://www.w3.org/1999/xlink" width="143.506" height="70.92" viewBox="0 0 143.506 98.259">
  <defs>
    <clipPath id="clip-path">
      <rect id="Rectángulo_465" data-name="Rectángulo 465" width="143.506" height="98.258" fill="none"/>
    </clipPath>
  </defs>
  <g id="Grupo_1168" data-name="Grupo 1168" clip-path="url(#clip-path)">
    <path id="Trazado_273" data-name="Trazado 273" d="M118.645,58.477c-.3.359-.521.648-.765.916-.8.885-1.95,1.637-2.34,2.676-.433,1.155,1.039,1.9,1.541,2.913a9.812,9.812,0,0,1-6.967,14.1c-1.361.255-1.892.682-2.142,2.118A9.669,9.669,0,0,1,95.38,88.766c-1.063-.334-1.429-.176-1.912.857a9.965,9.965,0,0,1-15.222,3.384c-.4-.325-.781-.671-1.142-.982-.489.051-.452.46-.579.7a9.841,9.841,0,0,1-15.934,2.522c-5.2-5.1-10.312-10.289-15.462-15.44-4.338-4.339-8.674-8.679-13.143-13.149a12.447,12.447,0,0,0-.205,3.612c-.073,2.2-1.036,3.281-3.252,3.3q-8.428.062-16.856,0c-2.089-.013-3.033-.917-3.316-2.959Q4.2,40.646.046,10.682c-.306-2.21.935-3.6,3.355-3.62,4.838-.038,9.677-.013,14.515-.013,3.382,0,6.764-.016,10.145.006,2.687.017,3.685,1.028,3.7,3.677.007,1.613.037,3.227-.013,4.838-.024.792.192,1.085,1.038,1.082q12.175-.043,24.349,0a2.092,2.092,0,0,0,1.57-.841c2.241-2.247,4.5-4.479,6.728-6.736,5.16-5.221,11.449-7.064,18.643-6.366a57.941,57.941,0,0,1,19.765,5.856,5.186,5.186,0,0,0,2.384.555c3.538-.028,7.076-.04,10.613.009a1.478,1.478,0,0,0,1.612-1.054C121.1,2.106,126.962-1,133.016.288a13.008,13.008,0,0,1,10.467,13.139q.052,19.354,0,38.708c-.011,6.356-3.79,11.48-9.569,13.1-5.753,1.611-11.375-.734-14.827-6.18-.083-.131-.189-.246-.445-.576M52.1,22.379c-6.416,0-12.443.046-18.469-.034-1.445-.019-1.928.266-1.917,1.839.078,10.874.059,21.748.015,32.621a3.458,3.458,0,0,0,1.14,2.71Q48.41,74.991,63.891,90.523a12.143,12.143,0,0,0,1.141,1.061,4.109,4.109,0,0,0,5.711-5.865c-.328-.4-.71-.759-1.078-1.127-1.947-1.953-3.928-3.872-5.833-5.865a2.863,2.863,0,1,1,4.078-4.015c.309.278.594.583.889.877q6.188,6.173,12.381,12.342c2.024,2.006,4.652,2.144,6.378.393,1.676-1.7,1.483-4.216-.513-6.223q-4.952-4.982-9.929-9.937c-1.176-1.178-2.368-2.342-3.507-3.554a2.852,2.852,0,0,1,1.94-4.755,3.4,3.4,0,0,1,2.708,1.309q6.94,6.965,13.9,13.91c1.14,1.14,2.246,2.32,3.446,3.394a4.11,4.11,0,0,0,6.718-4.16,5.08,5.08,0,0,0-1.538-2.3q-7.454-7.446-14.9-14.9a10.735,10.735,0,0,1-1.058-1.144,2.838,2.838,0,0,1,4-3.969,12.719,12.719,0,0,1,1.248,1.175c5.007,5,9.99,10.024,15.027,14.993a4.2,4.2,0,0,0,6.017.267c1.721-1.688,1.68-4.207-.212-6.1Q92.837,48.2,74.745,30.09c-.682-.684-1.05-.7-1.72,0-2.015,2.1-4.049,4.195-6.18,6.18a10.154,10.154,0,0,1-16.81-4.777A10.4,10.4,0,0,1,52.1,22.379m65.255,10.992c0-5.724-.027-11.448.023-17.172.01-1.1-.334-1.412-1.413-1.394-3.642.06-7.285.007-10.927.032a6.31,6.31,0,0,1-2.982-.721,53.59,53.59,0,0,0-16.5-5.449c-5.849-.853-11.323-.3-15.771,4.186-4.211,4.252-8.472,8.454-12.685,12.7-2.1,2.12-2.179,4.787-.264,6.623,1.85,1.773,4.415,1.587,6.513-.5,2.73-2.716,5.432-5.459,8.167-8.17,1.63-1.616,3.091-1.617,4.733-.009,1.71,1.674,3.387,3.383,5.079,5.077Q95.67,42.936,109.991,57.314c.869.876,1.346.918,2.151-.034,1.375-1.627,2.856-3.17,4.351-4.69a2.858,2.858,0,0,0,.884-2.2c-.036-5.672-.018-11.344-.018-17.015M26.041,40.247v-25.9c0-.768.185-1.539-1.1-1.528-5.929.052-11.859.037-17.789.007-.885,0-1.008.3-.9,1.1q3.685,26.245,7.295,52.5c.153,1.116.457,1.474,1.6,1.444,3.119-.082,6.242-.089,9.361,0,1.247.036,1.56-.349,1.553-1.565-.049-8.686-.026-17.373-.026-26.059m97.127-7.418h-.02c0,6.55-.034,13.1.012,19.651a7.28,7.28,0,1,0,14.555.185c.067-13.2.027-26.409.019-39.614A7.1,7.1,0,0,0,135.9,8.206a7.275,7.275,0,0,0-7.815-2.067,7.035,7.035,0,0,0-4.89,6.571c-.074,6.705-.023,13.412-.023,20.118" transform="translate(0 0)" fill="#fff"/>
  </g>
</svg>
