<svg id="Grupo_1214" data-name="Grupo 1214" xmlns="http://www.w3.org/2000/svg" xmlns:xlink="http://www.w3.org/1999/xlink" width="125.574" height="70.92" viewBox="0 0 125.574 126.433">
  <defs>
    <clipPath id="clip-path">
      <rect id="Rectángulo_487" data-name="Rectángulo 487" width="125.574" height="126.433" fill="none"/>
    </clipPath>
  </defs>
  <g id="Grupo_1214-2" data-name="Grupo 1214" clip-path="url(#clip-path)">
    <path id="Trazado_364" data-name="Trazado 364" d="M78.463,179.516c-1.381-.29-2.359-.417-3.286-.7a6.1,6.1,0,0,1,2.751-11.851q8.314,1.315,16.618,2.7a6.182,6.182,0,0,1,5.329,7.38Q98.516,185.22,97.16,193.4a6.118,6.118,0,1,1-12.084-1.893c.073-.5.125-1.005.194-1.567-.491-.091-.813.218-1.157.4a57.48,57.48,0,0,1-82.575-38A56.014,56.014,0,0,1,6.42,113.291a6.117,6.117,0,1,1,10.935,5.475,46.316,46.316,0,0,0-5.025,21.77c.289,20.706,15.759,39.207,36.089,43.124a45.871,45.871,0,0,0,27.82-3.081c.642-.283,1.266-.6,2.224-1.063" transform="translate(0 -72.308)" fill="#fff"/>
    <path id="Trazado_365" data-name="Trazado 365" d="M96.733,19.305c.924.16,1.626.27,2.322.4A6.118,6.118,0,0,1,97,31.772q-8.314-1.31-16.615-2.7a6.169,6.169,0,0,1-5.251-7.321q1.352-8.178,2.71-16.355A6.119,6.119,0,1,1,89.924,7.3c-.071.5-.122,1-.2,1.686,1.1-.53,2.061-1.009,3.038-1.465,33.05-15.428,72.09,2.48,80.687,38.81,3.209,13.558,1.424,26.606-4.81,39.048a6.12,6.12,0,1,1-10.954-5.443,46.4,46.4,0,0,0,5-21.775A45.174,45.174,0,0,0,126.55,15.086a45.758,45.758,0,0,0-28.278,3.32c-.348.159-.69.33-1.028.507a5.371,5.371,0,0,0-.511.393" transform="translate(-49.435 0)" fill="#fff"/>
  </g>
</svg>
