<svg xmlns="http://www.w3.org/2000/svg" width="135.235" height="70.92" viewBox="0 0 135.235 135.251"><defs><style>.cls-1{fill:#fff;}.cls-2{fill:none;}</style>
</defs><g id="Capa_2" data-name="Capa 2">
<g id="Capa_1-2" data-name="Capa 1"><g id="Grupo_1261" data-name="Grupo 1261"><g id="Grupo_1262" data-name="Grupo 1262"><g id="Grupo_1263" data-name="Grupo 1263"><path id="Trazado_270" data-name="Trazado 270" class="cls-1" d="M131.75,52.64c-1.1,3.19-1.72,6.51-2.55,9.78-1.94,7.63-3.72,15.31-5.72,22.93a43.24,43.24,0,0,1-16.41,23.91c-3.76,2.84-7.64,5.52-11.5,8.23a1.81,1.81,0,0,0-.91,1.79c.07,1.15,0,2.31,0,3.47a5.14,5.14,0,0,1-4.89,5.15c-.39,0-.78,0-1.16,0H43.21c-4.21,0-6.32-1.94-6.08-6.12a5.61,5.61,0,0,0-3-5.81,112.86,112.86,0,0,1-10.66-7.63,45,45,0,0,1-16.08-26C5.26,72.68,2.72,63.12.33,53.52A8.48,8.48,0,0,1,5.09,43.4a8.55,8.55,0,0,1,10.79,3.34,13.61,13.61,0,0,1,1.34,2.77c2.25,6.06,4.52,12.11,6.75,18.18.3.82.5,1.12,1.49.69a7.89,7.89,0,0,1,7.64.55C40.26,73.48,47.43,78,54.5,82.71A30.4,30.4,0,0,1,65.34,95.5c.12.23.22.47.34.69,0,.06.13.08.3.16.27-.56.54-1.13.82-1.68A31.89,31.89,0,0,1,78.21,82c6.65-4.31,13.34-8.56,20-12.85a8.21,8.21,0,0,1,8-.83c1.08.45,1.31.12,1.64-.8q3.41-9.28,6.9-18.53a9.15,9.15,0,0,1,6.44-6.12,8.57,8.57,0,0,1,10.23,5.83c.11.36.24.72.36,1.08ZM52.66,122.78c3,0,6.09,0,9.13,0,1.13,0,1.55-.22,1.52-1.46-.08-3.82,0-7.63,0-11.45-.09-10.13-4.24-18.1-12.76-23.69-3.52-2.3-7.07-4.54-10.6-6.81-3.1-2-6.19-4-9.31-6a3.3,3.3,0,0,0-4.6.79.22.22,0,0,0-.05.08,3.25,3.25,0,0,0,.87,4.53h0c1.07.86,2.15,1.71,3.23,2.56,2.93,2.3,5.86,4.6,8.78,6.93a2.63,2.63,0,0,1,.93,3.19A2.61,2.61,0,0,1,37.05,93a3.82,3.82,0,0,1-1.78-1l-11.9-9.41a8,8,0,0,1-2.93-8.25,3.52,3.52,0,0,0-.16-2Q16.6,62.61,13,52.8a24,24,0,0,0-1.22-3A3.41,3.41,0,0,0,7.3,48.05c-1.73.69-2.45,2.26-1.93,4.33,2.48,10,5.05,20,7.44,30a39.48,39.48,0,0,0,16,23.47q5.89,4.24,11.82,8.44a3.36,3.36,0,0,1,1.63,3.12c-.07,1.41,0,2.83,0,4.24,0,.85.24,1.11,1.08,1.1,3.13,0,6.26,0,9.39,0m26.3,0c3.17,0,6.34,0,9.51,0,.84,0,1.13-.25,1.08-1.1-.07-1.37,0-2.74,0-4.11a3.44,3.44,0,0,1,1.73-3.32c2.41-1.64,4.77-3.36,7.12-5.07,3.88-2.82,7.92-5.42,11.18-9a42.48,42.48,0,0,0,9.88-19.6c2.17-9.51,4.67-19,7-28.42A3.4,3.4,0,0,0,120.6,49a6.66,6.66,0,0,0-1.22,2.23q-3.94,10.59-7.91,21.17a3.55,3.55,0,0,0-.15,2,8,8,0,0,1-2.94,8.25c-1.42,1.11-2.82,2.23-4.23,3.35l-8.08,6.37a2.54,2.54,0,0,1-3,.37,2.43,2.43,0,0,1-1.32-2.33,3,3,0,0,1,1.42-2.32q6-4.68,11.91-9.39a3.14,3.14,0,0,0,1-3.81,3.25,3.25,0,0,0-3.4-2,4.2,4.2,0,0,0-1.88.77c-6.66,4.28-13.38,8.49-20,12.86a26.28,26.28,0,0,0-12.1,19.56c-.64,5.28-.1,10.62-.24,15.93,0,.91.56.78,1.11.78q4.7,0,9.39,0"/><path id="Trazado_271" data-name="Trazado 271" class="cls-1" d="M59.89,17.51a15.24,15.24,0,0,1,12,0A14.92,14.92,0,0,1,74.7,5.64a14.18,14.18,0,0,1,7.17-5,14.42,14.42,0,0,1,16,5.3c3.09,4.17,4.6,11.49-.87,18.28.52.21,1,.4,1.52.62,4.83,2.26,7.53,6,7.71,11.36.16,4.63.07,9.27,0,13.9a5.24,5.24,0,0,1-5.14,5.34h-.27q-6.88,0-13.76,0c-.91,0-1.16.25-1.15,1.15.06,3.21,0,6.43,0,9.65a5.09,5.09,0,0,1-4.7,5.46,4.82,4.82,0,0,1-.76,0c-1,0-2,0-3,0a2.54,2.54,0,0,1-.3-5,17.84,17.84,0,0,1,2.83-.07c.55,0,.75-.19.75-.75,0-4.63.11-9.27-.09-13.89a7.3,7.3,0,0,0-7.4-6.67q-7.47-.12-14.93,0a7.43,7.43,0,0,0-7.48,7.38V53c0,4.15,0,8.32,0,12.48,0,.9.22,1.23,1.14,1.14a11.7,11.7,0,0,1,2.05,0,2.56,2.56,0,0,1,2.61,2.51v.11a2.51,2.51,0,0,1-2.52,2.51H54c-1.11,0-2.23,0-3.34,0a5,5,0,0,1-4.89-5c0-3.26-.08-6.52,0-9.77,0-1.31-.4-1.53-1.58-1.51-4.33.07-8.66,0-13,0a5.33,5.33,0,0,1-5.76-4.86,4.61,4.61,0,0,1,0-.91q0-6.24,0-12.48c0-6.22,3-10.58,8.87-12.76a3.3,3.3,0,0,0,.45-.26A14.48,14.48,0,0,1,31.18,12.8,13.9,13.9,0,0,1,34.69,5a14.46,14.46,0,0,1,16.54-3.8c6.19,2.59,9.19,8.17,8.66,16.36M93.41,50.33c2.18,0,4.38,0,6.56,0,.85,0,1.2-.16,1.18-1.11-.05-4.2,0-8.41,0-12.61A7.51,7.51,0,0,0,93.73,29h-.18c-4.07,0-8.15,0-12.22,0-.73,0-1.08.1-1,1a14,14,0,0,1-3.18,9.92c-.4.49-.46.69.24.94a12.46,12.46,0,0,1,8.16,8.74.91.91,0,0,0,1,.8h.06c2.27,0,4.54,0,6.82,0M55.13,40.52a14.47,14.47,0,0,1-3.69-10.77c.07-1-.57-.75-1.09-.75-4,0-8,0-12,0a7.53,7.53,0,0,0-7.78,7.28v.51c0,4.11,0,8.22,0,12.33,0,.94.2,1.25,1.19,1.24,4.07-.06,8.14-.09,12.2,0,1.42,0,2.09-.27,2.57-1.76,1.33-4.11,4.32-6.67,8.57-8.09m-18.88-26a9.34,9.34,0,1,0,9.33-9.34h0a9.29,9.29,0,0,0-9.31,9.29v.05m59.25.08a9.34,9.34,0,1,0-9.41,9.27h0a9.34,9.34,0,0,0,9.37-9.27M65.91,21.44a9.32,9.32,0,1,0,9.29,9.35v0A9.25,9.25,0,0,0,66,21.44h-.09"/><path id="Trazado_272" data-name="Trazado 272" class="cls-1" d="M65.92,71.71a2.53,2.53,0,0,1-2.61-2.45h0A2.56,2.56,0,1,1,68.43,69a.49.49,0,0,1,0,.12,2.54,2.54,0,0,1-2.51,2.55h0"/><rect id="Rectángulo_462" data-name="Rectángulo 462" class="cls-2" x="0.04" width="131.71" height="127.92"/></g></g></g></g></g></svg>