<svg id="Grupo_972" data-name="Grupo 972" xmlns="http://www.w3.org/2000/svg" xmlns:xlink="http://www.w3.org/1999/xlink" width="80.802" height="75.844" viewBox="0 0 99.043 97">
  <defs>
    <clipPath id="clip-path">
      <path id="Trazado_192" data-name="Trazado 192" d="M2744.785,88.917a18.773,18.773,0,1,1,18.758,18.827h0a18.757,18.757,0,0,1-18.757-18.827m-45.438,18.069c-2.069-1.044-4.084-2.187-6.071-3.38a1.109,1.109,0,0,1-.616-.993c-.51-11.126,2.243-21.067,10.611-28.919a31.08,31.08,0,0,1,12.244-6.941,1.079,1.079,0,0,1,1.139.221,20.043,20.043,0,0,0,4.226,2.689,14.475,14.475,0,0,0,12.777.009,12.612,12.612,0,0,0,3.442-2.118,2.544,2.544,0,0,1,3.032-.468,38.713,38.713,0,0,1,7.432,3.657c.618.4.581.613.069,1.1a23.392,23.392,0,0,0,2.645,36.412c.233.161.459.332.83.6a63.8,63.8,0,0,1-13.582,4.216,55.656,55.656,0,0,1-10.36.98,61.3,61.3,0,0,1-27.818-7.062m26.808-40.547A13.029,13.029,0,0,1,2719,62.882c-5.851-5.23-9.052-11.721-8.995-19.64.073-10.066,7.322-17.095,17.378-16.962,5.119.18,9.726,1.6,13.154,5.659a17.469,17.469,0,0,1,4,12.678,25.334,25.334,0,0,1-9.983,19.069,11.489,11.489,0,0,1-7.215,2.823,10.041,10.041,0,0,1-1.186-.071m-4.05-44.223c-7.136,1.534-12.269,5.6-15.046,12.429a24.992,24.992,0,0,0-1.22,14.334,29.464,29.464,0,0,0,6.037,13.11c.475.593.54.847-.285,1.147a29.94,29.94,0,0,0-3.7,1.642c-10.832,5.711-16.85,14.893-19.145,26.718-.36,1.855-.532,3.747-.791,5.621v5.8a4.116,4.116,0,0,1,.2,1.409,2.557,2.557,0,0,0,1.276,2.243,79.249,79.249,0,0,0,21.836,9.818,60.556,60.556,0,0,0,26.228,1.251,69.713,69.713,0,0,0,18.392-5.963,2.052,2.052,0,0,1,1.556-.216,22.973,22.973,0,0,0,9.476.579,23.4,23.4,0,1,0-13.99-44.006,1.043,1.043,0,0,1-1.279-.152,33.945,33.945,0,0,0-8.782-4.793c-.723-.266-.684-.461-.256-1.01,4.825-6.2,7.246-13.187,6.433-21.069-.805-7.81-4.471-13.849-11.738-17.287a22.649,22.649,0,0,0-9.785-2.2,25.746,25.746,0,0,0-5.413.592" transform="translate(-2687.954 -21.624)" fill="none"/>
    </clipPath>
    <linearGradient id="linear-gradient" x1="-3.819" y1="1.084" x2="-3.817" y2="1.084" gradientUnits="objectBoundingBox">
      <stop offset="0" stop-color="#00b3a0"/>
      <stop offset="0.996" stop-color="#049ae7"/>
      <stop offset="1" stop-color="#049ae7"/>
    </linearGradient>
    <clipPath id="clip-path-2">
      <path id="Trazado_193" data-name="Trazado 193" d="M3147.181,428.019a2.8,2.8,0,0,0-1.98,1.064c-3.438,3.443-6.892,6.87-10.305,10.338-.54.549-.817.514-1.33-.018-1.789-1.856-3.622-3.668-5.459-5.477a2.291,2.291,0,0,0-3.431-.113,2.32,2.32,0,0,0,.143,3.368c2.537,2.567,5.1,5.11,7.651,7.66a2.459,2.459,0,0,0,1.8.8,2.751,2.751,0,0,0,1.923-.98q6.177-6.194,12.368-12.376a4.6,4.6,0,0,0,.578-.647,2.3,2.3,0,0,0-1.936-3.623h-.022" transform="translate(-3124.018 -428.019)" fill="none"/>
    </clipPath>
    <linearGradient id="linear-gradient-2" x1="-17.317" y1="2.682" x2="-17.312" y2="2.682" xlink:href="#linear-gradient"/>
  </defs>
  <g id="Grupo_928" data-name="Grupo 928" transform="translate(0 0)">
    <g id="Grupo_832" data-name="Grupo 832" transform="translate(0 0)" clip-path="url(#clip-path)">
      <rect id="Rect치ngulo_348" data-name="Rect치ngulo 348" width="101.403" height="97.638" transform="translate(0 0)" fill="url(#linear-gradient)"/>
    </g>
  </g>
  <g id="Grupo_929" data-name="Grupo 929" transform="translate(62.82 58.545)">
    <g id="Grupo_834" data-name="Grupo 834" transform="translate(0 0)" clip-path="url(#clip-path-2)">
      <rect id="Rect치ngulo_349" data-name="Rect치ngulo 349" width="25.974" height="17.631" transform="translate(-0.256)" fill="url(#linear-gradient-2)"/>
    </g>
  </g>
</svg>
