<svg xmlns="http://www.w3.org/2000/svg" xmlns:xlink="http://www.w3.org/1999/xlink" width="80.802" height="75.844" viewBox="0 0 114.724 119.381">
  <defs>
    <clipPath id="clip-path">
      <path id="Trazado_217" data-name="Trazado 217" d="M3.735,112.881a16.793,16.793,0,0,0,.008-2.639c-.038-.73.225-.96.962-.956,5.561.027,11.122.015,16.683.015h4.035q6.2,0,12.409-.015c.719,0,1.016.194.978.942a25.084,25.084,0,0,0,0,2.88c.054.839-.243,1.105-1.084,1.093-2.881-.043-5.762-.016-8.643-.016-8,0-16.007-.019-24.01.023H5.043c-1.014,0-1.422-.253-1.308-1.327m3.716-8.331a12.033,12.033,0,0,0,.011-1.321c.027-1.691.738-2.457,2.4-2.46q11.417-.021,22.834,0c1.656,0,2.367.772,2.4,2.463.042,2.361.042,2.361-2.279,2.361H21.154c-4.206,0-8.412-.02-12.619.017H8.494c-.79,0-1.152-.206-1.043-1.061m13.564-7.734c-3.085,0-3.13,0-3.079-3.011a13.607,13.607,0,0,0-3.45-9.46,8.5,8.5,0,0,1-.809-10.075,8.614,8.614,0,0,1,9.178-4.036c6.728,1.5,9,9.213,5.18,13.685a15.05,15.05,0,0,0-3.789,11.27c.114,1.774.3,1.608-1.548,1.627q-.311,0-.622,0l-1.061,0M49.9,71.057,52.956,68l1.7,4.748L49.9,71.057M92.847,126.93c4.986-.643,8.337-4.738,8.343-10q.021-18.936,0-37.872,0-19.056-.018-38.112c0-1.027.117-1.547,1.344-1.292a30.825,30.825,0,0,0,3.229.282,5.753,5.753,0,0,1,5.405,6.5q-2.049,22.5-4.107,45-1.836,20.165-3.658,40.331a5.954,5.954,0,0,1-6.795,5.527c-8.372-.813-16.75-1.558-25.126-2.335Q59.087,133.808,46.7,132.65c-2.752-.257-5.509-.467-8.254-.788a5.9,5.9,0,0,1-4.756-3.437c-.627-1.245-.524-1.382.85-1.382H48.387q19.168,0,38.336,0c.552,0,1.106.011,1.66.022s1.1.022,1.647.022a22.036,22.036,0,0,0,2.816-.152m-47.578-58.5c-2.988-3.07-6.041-6.076-9.071-9.106Q24.222,47.348,12.222,35.394c-.849-.841-.817-1.282.029-2.02a25.786,25.786,0,0,0,2.771-2.829c.675-.8,1.074-.675,1.761.015Q30.977,44.822,45.224,59.029q2.421,2.421,4.837,4.846c.221.222.507.4.577.769-.156.166-.314.346-.483.515-1.075,1.077-2.19,2.117-3.213,3.241-.317.348-.57.532-.835.532a1.278,1.278,0,0,1-.837-.5M7.091,29.2a6.844,6.844,0,0,1,3.653-3.614c1.168-.511,1.583.677,2.178,1.263.564.556-.283.774-.534,1.048-1,1.088-2.068,2.108-3.116,3.15-.193.192-.4.367-.549.5h0c-.718,0-1.886-1.758-1.63-2.347M59.1,77.375a2.05,2.05,0,0,0,.563-2.2,5.2,5.2,0,0,0-.229-.681c-1.264-3.414-2.54-6.822-3.785-10.243a2.58,2.58,0,0,0-1.594-1.814,2.711,2.711,0,0,1-1.017-.82Q40.457,49.04,27.869,36.467a2.313,2.313,0,0,1-.816-1.882c.06-1.159-.015-2.325.032-3.485a5.785,5.785,0,0,1,5.646-5.729c.28-.017.561-.011.841-.011q28.67,0,57.34,0c3.473,0,6.031,1.867,6.369,4.94a45.275,45.275,0,0,1,.031,6.48c-.022.627-.129,1.268-.129,1.906q0,38.889,0,77.778a9.6,9.6,0,0,1-.142,2.392,5.588,5.588,0,0,1-5.668,4.288q-29.152.027-58.3,0a5.871,5.871,0,0,1-5.787-4.213c-.229-.781-.11-1.055.779-1.045,3.967.041,7.934.02,11.9.017,2.1,0,2.588-.506,2.59-2.643,0-2.444.008-4.888,0-7.333-.007-1.731-.588-2.4-2.3-2.277-1.32.1-1.563-.428-1.465-1.561a8.081,8.081,0,0,0-.164-2.749,5.832,5.832,0,0,0-5.563-4.331c-1.361-.044-2.725-.039-4.087,0-.636.016-.779-.224-.824-.834a13.553,13.553,0,0,1,3.091-10.126c4.587-5.624,2.8-14.244-3.448-17.929a1.58,1.58,0,0,1-.914-1.594c.044-3.6.019-7.194.019-11.078,1.694,1.669,3.182,3.114,4.647,4.582q5.818,5.827,11.622,11.668a7.32,7.32,0,0,0,3.815,2.444,46.485,46.485,0,0,1,6.543,2.336c1.087.4,2.206.744,3.25,1.239a2.161,2.161,0,0,0,.933.228,2.211,2.211,0,0,0,1.4-.567M8.975,22.157A11.026,11.026,0,0,0,3.4,27.863a4.048,4.048,0,0,0-.3,1.4c-.168,1.884.817,3.195,2.093,4.368a.932.932,0,0,1,.178,1.482,5.7,5.7,0,0,0,.738,7.55c.6.614,1.121,1.462,2.14,1.375.768-.065.989.279,1.007.945a4.106,4.106,0,0,0,.116.832,1.866,1.866,0,0,0,1.984,1.54,1.884,1.884,0,0,0,1.5-2.131c-.066-.637-.139-1.274-.234-1.907-.346-2.3-.494-2.445-2.788-2.847a2,2,0,0,1-1.768-2.382c.052-.357.093-.8.447-.934s.534.279.749.495q6.663,6.682,13.325,13.366a1.779,1.779,0,0,1,.535,1.389c-.013,4.368-.021,8.736.007,13.1,0,.72-.161,1-.936.924a10.451,10.451,0,0,0-3.112.129A12.361,12.361,0,0,0,12.051,86.8a9.594,9.594,0,0,1,2.3,4.288,28.626,28.626,0,0,1,.219,5.275c.011.577-.32.635-.772.632-1.442-.008-2.886-.035-4.327.013a5.846,5.846,0,0,0-5.548,4.352,7.908,7.908,0,0,0-.151,2.75c.121,1.186-.226,1.617-1.491,1.534-1.7-.112-2.272.553-2.278,2.3-.009,2.444,0,4.889,0,7.333,0,2.123.5,2.621,2.61,2.621,6.572,0,13.144.012,19.715-.015.725,0,1.033.178,1.153.936a9.229,9.229,0,0,0,5.108,6.994,1.223,1.223,0,0,1,.725,1.107,9.5,9.5,0,0,0,8.651,8.707c6.294.652,12.6,1.166,18.9,1.746Q68,138.4,79.12,139.438c5.7.525,11.4,1.154,17.112,1.535,6.3.421,10.3-3.33,10.787-9.609.5-6.548,1.164-13.085,1.762-19.626q1.148-12.563,2.3-25.126Q112.122,75.3,113.155,64c.529-5.823,1.133-11.642,1.541-17.474a9.429,9.429,0,0,0-8.451-10.307,30.156,30.156,0,0,0-3.951-.3c-.966-.009-1.209-.385-1.193-1.293a22.756,22.756,0,0,0-.228-5.511,9.468,9.468,0,0,0-9.635-7.437c-9.9-.025-19.8-.008-29.693-.008-9.457,0-18.914-.017-28.371.008a9.513,9.513,0,0,0-9.507,7,13.763,13.763,0,0,0-.385,3.114c-.421-.388-.714-.639-.986-.912-2.573-2.584-5.126-5.187-7.718-7.752a4.62,4.62,0,0,0-3.316-1.5,5.692,5.692,0,0,0-2.288.533" transform="translate(0 -21.624)" fill="none"/>
    </clipPath>
    <linearGradient id="linear-gradient" y1="1.077" x2="0.002" y2="1.077" gradientUnits="objectBoundingBox">
      <stop offset="0" stop-color="#00b3a0"/>
      <stop offset="0.996" stop-color="#049ae7"/>
      <stop offset="1" stop-color="#049ae7"/>
    </linearGradient>
    <clipPath id="clip-path-2">
      <path id="Trazado_218" data-name="Trazado 218" d="M266.2,85.437q-11.655,0-23.31,0h-6.637q-8.637,0-17.274.006c-1.476,0-2.266.715-2.231,1.923.034,1.166.791,1.792,2.213,1.826.2,0,.4,0,.6,0q23.19,0,46.38,0a6.454,6.454,0,0,0,1.316-.062,1.8,1.8,0,0,0,1.472-1.413,1.754,1.754,0,0,0-.586-1.841,2.327,2.327,0,0,0-1.627-.44H266.2" transform="translate(-216.742 -85.436)" fill="none"/>
    </clipPath>
    <linearGradient id="linear-gradient-2" x1="-0.729" y1="31.136" x2="-0.725" y2="31.136" xlink:href="#linear-gradient"/>
    <clipPath id="clip-path-3">
      <path id="Trazado_219" data-name="Trazado 219" d="M239.621,391.606a1.617,1.617,0,0,0-1.493,1.607c-.122,1.338.654,2.044,2.3,2.046q10.871.012,21.742,0h16.577q.788,0,1.577,0c1.357,0,2.713.008,4.069-.016a1.863,1.863,0,0,0,2.023-1.9c-.02-1.075-.748-1.728-1.987-1.776-.24-.009-.48,0-.721,0H240.821c-.171,0-.343,0-.514,0a4.911,4.911,0,0,0-.685.039" transform="translate(-238.116 -391.567)" fill="none"/>
    </clipPath>
    <linearGradient id="linear-gradient-3" x1="-0.861" y1="17.264" x2="-0.858" y2="17.264" xlink:href="#linear-gradient"/>
    <clipPath id="clip-path-4">
      <path id="Trazado_220" data-name="Trazado 220" d="M267.441,146.129a10.278,10.278,0,0,0-1.319.054,1.63,1.63,0,0,0-1.5,1.734,1.7,1.7,0,0,0,1.486,1.883,4.547,4.547,0,0,0,.924.047c.092,0,.184,0,.275,0q19.11,0,38.22,0a5.415,5.415,0,0,0,1.2-.049,1.775,1.775,0,0,0,1.519-1.884,1.649,1.649,0,0,0-1.622-1.749c-.361-.034-.725-.034-1.088-.034h-.112q-9.495,0-18.99,0h-6.905q-6.042,0-12.085,0" transform="translate(-264.621 -146.127)" fill="none"/>
    </clipPath>
    <linearGradient id="linear-gradient-4" x1="-1.063" y1="28.519" x2="-1.059" y2="28.519" xlink:href="#linear-gradient"/>
    <clipPath id="clip-path-5">
      <path id="Trazado_221" data-name="Trazado 221" d="M331.376,452.011q-16.764.008-33.529,0a4.722,4.722,0,0,0-.72.02,1.681,1.681,0,0,0-1.581,1.788c-.029,1.3.675,1.9,2.328,1.9q8.352.018,16.7,0,8.172,0,16.344,0h.144a6.114,6.114,0,0,0,1.173-.073,1.853,1.853,0,0,0,1.176-2.9,2.16,2.16,0,0,0-2.022-.75h-.017" transform="translate(-295.545 -452.011)" fill="none"/>
    </clipPath>
    <linearGradient id="linear-gradient-5" x1="-1.341" y1="14.283" x2="-1.337" y2="14.283" xlink:href="#linear-gradient"/>
    <clipPath id="clip-path-6">
      <path id="Trazado_222" data-name="Trazado 222" d="M321.707,510.629A1.6,1.6,0,0,0,320,512.268a9.092,9.092,0,0,0,.77,4.446,3.4,3.4,0,0,0,5.192,1.568,16.56,16.56,0,0,0,2.42-2.059,7.879,7.879,0,0,0,6.4,2.745,27.469,27.469,0,0,0,8.431-1.678,1.754,1.754,0,0,0,1.249-1.97,1.842,1.842,0,0,0-1.663-1.647,2.623,2.623,0,0,0-1.387.294,23.331,23.331,0,0,1-6.046,1.443c-2.8.221-4.124-.671-4.819-3.248a1.789,1.789,0,0,0-1.463-1.418,1.742,1.742,0,0,0-1.871.782,13.5,13.5,0,0,1-1.157,1.53c-.6.651-1.069,1.858-1.955,1.668-.5-.108-.4-1.49-.439-2.32a2.215,2.215,0,0,0-.016-.239,1.7,1.7,0,0,0-1.8-1.54c-.046,0-.093,0-.14,0" transform="translate(-319.984 -510.625)" fill="none"/>
    </clipPath>
    <linearGradient id="linear-gradient-6" x1="-2.277" y1="4.837" x2="-2.27" y2="4.837" xlink:href="#linear-gradient"/>
    <clipPath id="clip-path-7">
      <path id="Trazado_223" data-name="Trazado 223" d="M362.374,207.738q-12.97,0-25.939,0a8.3,8.3,0,0,0-1.2.058,1.565,1.565,0,0,0-1.435,1.52c-.149,1.343.589,2.122,2.082,2.126,4.524.013,9.047,0,13.57,0h6.939c2.251,0,4.5,0,6.752-.007a1.748,1.748,0,0,0,1.941-1.8,1.772,1.772,0,0,0-1.871-1.89c-.14-.01-.281-.013-.422-.013l-.418,0" transform="translate(-333.784 -207.736)" fill="none"/>
    </clipPath>
    <linearGradient id="linear-gradient-7" x1="-1.859" y1="25.891" x2="-1.854" y2="25.891" xlink:href="#linear-gradient"/>
    <clipPath id="clip-path-8">
      <path id="Trazado_224" data-name="Trazado 224" d="M364.646,269.16a1.887,1.887,0,0,0-.072,1.948,1.815,1.815,0,0,0,1.805.939q5.4-.011,10.807,0c3.722,0,7.445.013,11.167-.005a1.836,1.836,0,1,0,.027-3.67q-7.236-.018-14.472-.011-3.811,0-7.622,0a1.758,1.758,0,0,0-1.64.8" transform="translate(-364.338 -268.356)" fill="none"/>
    </clipPath>
    <linearGradient id="linear-gradient-8" x1="-2.452" y1="23.146" x2="-2.445" y2="23.146" xlink:href="#linear-gradient"/>
    <clipPath id="clip-path-9">
      <path id="Trazado_225" data-name="Trazado 225" d="M381.3,329.951q-1.65,0-3.3,0c-2.467,0-4.934,0-7.4.01a1.834,1.834,0,1,0-.081,3.663q7.445.023,14.891.013h6.63a1.639,1.639,0,0,0,1.69-1.262c.419-1.327-.443-2.407-1.97-2.417q-2.2-.014-4.4-.012-3.028,0-6.056,0" transform="translate(-368.626 -329.946)" fill="none"/>
    </clipPath>
    <linearGradient id="linear-gradient-9" x1="-2.533" y1="20.272" x2="-2.526" y2="20.272" xlink:href="#linear-gradient"/>
  </defs>
  <g id="Grupo_900" data-name="Grupo 900" transform="translate(-5943.423 22179.168)">
    <g id="Grupo_883" data-name="Grupo 883" transform="translate(5943.423 -22179.168)">
      <g id="Grupo_882" data-name="Grupo 882" transform="translate(0 0)" clip-path="url(#clip-path)">
        <rect id="Rectángulo_373" data-name="Rectángulo 373" width="115.077" height="119.77" transform="translate(-0.004 0)" fill="url(#linear-gradient)"/>
      </g>
    </g>
    <g id="Grupo_885" data-name="Grupo 885" transform="translate(5981.485 -22167.963)">
      <g id="Grupo_884" data-name="Grupo 884" transform="translate(0 0)" clip-path="url(#clip-path-2)">
        <rect id="Rectángulo_374" data-name="Rectángulo 374" width="52.191" height="3.783" transform="translate(-0.034 0)" fill="url(#linear-gradient-2)"/>
      </g>
    </g>
    <g id="Grupo_887" data-name="Grupo 887" transform="translate(5985.239 -22114.203)">
      <g id="Grupo_886" data-name="Grupo 886" transform="translate(0 0)" clip-path="url(#clip-path-3)">
        <rect id="Rectángulo_375" data-name="Rectángulo 375" width="48.426" height="3.709" transform="translate(-0.109 -0.002)" fill="url(#linear-gradient-3)"/>
      </g>
    </g>
    <g id="Grupo_889" data-name="Grupo 889" transform="translate(5989.894 -22157.305)">
      <g id="Grupo_888" data-name="Grupo 888" transform="translate(0 0)" clip-path="url(#clip-path-4)">
        <rect id="Rectángulo_376" data-name="Rectángulo 376" width="43.682" height="3.757" transform="translate(-0.032 0)" fill="url(#linear-gradient-4)"/>
      </g>
    </g>
    <g id="Grupo_891" data-name="Grupo 891" transform="translate(5995.324 -22103.588)">
      <g id="Grupo_890" data-name="Grupo 890" transform="translate(0 0)" clip-path="url(#clip-path-5)">
        <rect id="Rectángulo_377" data-name="Rectángulo 377" width="38.674" height="3.741" transform="translate(-0.028 -0.012)" fill="url(#linear-gradient-5)"/>
      </g>
    </g>
    <g id="Grupo_893" data-name="Grupo 893" transform="translate(5999.616 -22093.293)">
      <g id="Grupo_892" data-name="Grupo 892" transform="translate(0 0)" clip-path="url(#clip-path-6)">
        <rect id="Rectángulo_378" data-name="Rectángulo 378" width="24.648" height="8.919" transform="translate(-0.062 -0.022)" fill="url(#linear-gradient-6)"/>
      </g>
    </g>
    <g id="Grupo_895" data-name="Grupo 895" transform="translate(6002.039 -22146.486)">
      <g id="Grupo_894" data-name="Grupo 894" transform="translate(0 0)" clip-path="url(#clip-path-7)">
        <rect id="Rectángulo_379" data-name="Rectángulo 379" width="31.455" height="3.72" transform="translate(-0.13 0)" fill="url(#linear-gradient-7)"/>
      </g>
    </g>
    <g id="Grupo_897" data-name="Grupo 897" transform="translate(6007.405 -22135.84)">
      <g id="Grupo_896" data-name="Grupo 896" transform="translate(0)" clip-path="url(#clip-path-8)">
        <rect id="Rectángulo_380" data-name="Rectángulo 380" width="26.05" height="3.701" transform="translate(-0.103 0)" fill="url(#linear-gradient-8)"/>
      </g>
    </g>
    <g id="Grupo_899" data-name="Grupo 899" transform="translate(6008.157 -22125.023)">
      <g id="Grupo_898" data-name="Grupo 898" transform="translate(0 0)" clip-path="url(#clip-path-9)">
        <rect id="Rectángulo_381" data-name="Rectángulo 381" width="25.544" height="3.693" transform="translate(-0.023 -0.001)" fill="url(#linear-gradient-9)"/>
      </g>
    </g>
  </g>
</svg>
