<svg id="Grupo_1201" data-name="Grupo 1201" xmlns="http://www.w3.org/2000/svg" xmlns:xlink="http://www.w3.org/1999/xlink" width="110.06" height="70.92" viewBox="0 0 110.06 112.179">
  <defs>
    <clipPath id="clip-path">
      <rect id="Rectángulo_479" data-name="Rectángulo 479" width="110.06" height="112.179" fill="none"/>
    </clipPath>
  </defs>
  <g id="Grupo_1200" data-name="Grupo 1200" clip-path="url(#clip-path)">
    <path id="Trazado_304" data-name="Trazado 304" d="M58.624,0c2.05.286,4.113.5,6.147.87A54.073,54.073,0,0,1,98.027,20.55a51.725,51.725,0,0,1,11.529,26.674c2.488,20.443-4.23,37.426-20.006,50.67a52.338,52.338,0,0,1-26.073,11.6,51.9,51.9,0,0,1-24.017-1.715,12.509,12.509,0,0,0-6.293-.364c-8.859,1.621-17.736,3.147-26.605,4.712a2.225,2.225,0,0,1-2.273-.729,2.31,2.31,0,0,1-.19-2.574c2.52-5.859,5.007-11.734,7.587-17.567a2.379,2.379,0,0,0-.324-2.818A53.039,53.039,0,0,1,.206,59.8a53.5,53.5,0,0,1,9.4-35.676A54.487,54.487,0,0,1,43.84,1.172,43.026,43.026,0,0,1,50.769.2,2.082,2.082,0,0,0,51.831,0ZM9.525,107.127a4.539,4.539,0,0,0,.6,0c7.219-1.268,14.432-2.569,21.658-3.8,2.44-.415,4.787-1.086,7.4-.174a46.384,46.384,0,0,0,29.905.632c20.224-6.431,32.486-20.267,36.087-41.171,2.317-13.447-.926-25.935-8.813-37.145A50.779,50.779,0,0,0,4.477,58.83,48.885,48.885,0,0,0,14.83,85.908c2.756,3.58,2.589,2.777.856,6.85-2.025,4.759-4.075,9.508-6.161,14.37" transform="translate(0 -0.001)" fill="#fff"/>
    <path id="Trazado_305" data-name="Trazado 305" d="M98.3,148.84c0,.353.021.712,0,1.068a2.044,2.044,0,0,1-1.865,2.073,3.869,3.869,0,0,1-.651.069c-4.49,0-8.981.023-13.471-.007-1.792-.012-2.592-.843-2.593-2.652q-.015-22.506,0-45.011c0-1.925.8-2.7,2.752-2.7q6.571-.018,13.142,0c1.984,0,2.683.726,2.7,2.719a2.65,2.65,0,0,0,0,.328c.071.524-.276,1.317.172,1.515.525.232,1.136-.322,1.646-.651a2.452,2.452,0,0,0,1.03-1.733,30.307,30.307,0,0,0-.18-12.921,7.809,7.809,0,0,1-.2-1.075,1.989,1.989,0,0,1,1.844-2.386c2.832-.171,5.689-.4,8.476.4a10.087,10.087,0,0,1,7.126,9.257c.04,1.715.062,3.433-.005,5.146-.033.847.246,1.019,1.044,1.015,6.352-.032,12.7-.02,19.056-.017a7.754,7.754,0,0,1,7.042,3.665,7.421,7.421,0,0,1-1.77,9.908c-.639.5-.656.816-.271,1.489a7.49,7.49,0,0,1-1.527,9.28.909.909,0,0,0-.18,1.432,7.522,7.522,0,0,1-1.694,10.1c-.571.455-.524.742-.2,1.306a7.627,7.627,0,0,1-6.018,11.5c-2.1.169-4.231.106-6.347.09-5.255-.04-10.511.1-15.767-.088a32.717,32.717,0,0,1-11.969-2.742c-.333-.145-.675-.271-1.016-.4a1.07,1.07,0,0,0-.308.017m.008-21.313q0,7.668,0,15.337c0,.455-.1.9.479,1.2a28.928,28.928,0,0,0,11.426,3.48c7.551.448,15.112.119,22.668.185a3.354,3.354,0,0,0,3.538-3.384,3.413,3.413,0,0,0-3.575-3.358c-1.314-.025-2.629,0-3.944-.006-2.063,0-3.056-.695-3.058-2.135s1-2.162,3.043-2.166c1.972,0,3.944-.008,5.916,0a3.591,3.591,0,0,0,2.941-1.19,3.319,3.319,0,0,0,.666-3.472,3.113,3.113,0,0,0-2.822-2.253c-1.966-.111-3.941-.038-5.911-.1a2.107,2.107,0,0,1-2.249-2.165,2.149,2.149,0,0,1,2.32-2.105c1.606-.026,3.213,0,4.82-.01a22.664,22.664,0,0,0,2.3-.042,3.345,3.345,0,0,0,1.141-6.364,4.078,4.078,0,0,0-1.807-.353c-1.68,0-3.361.037-5.039-.02A2.186,2.186,0,0,1,129,116.534a2.127,2.127,0,0,1,2.014-2.175,9.324,9.324,0,0,1,1.2-.05c2.3-.015,4.6.033,6.9-.057a3.313,3.313,0,0,0,.564-6.52,7.619,7.619,0,0,0-1.741-.126q-10.462-.012-20.923-.006c-2.295,0-3.059-.779-3.077-3.106-.019-2.519.035-5.041-.083-7.555a5.6,5.6,0,0,0-4.315-5.057,16.046,16.046,0,0,0-3.269-.212c-.6-.026-.726.167-.621.763a35.531,35.531,0,0,1-.162,11.765,7.066,7.066,0,0,1-4.236,5.7c-.663.3-1.293.686-1.971.947a1.408,1.408,0,0,0-.992,1.563c.042,5.039.021,10.078.021,15.117m-14.266-.71c0,6.64.015,13.28-.02,19.92,0,.828.224,1.041,1.037,1.025,2.626-.052,5.254-.046,7.88,0,.776.013,1.076-.146,1.074-1.008q-.041-19.92,0-39.84c0-.774-.251-.99-1-.979-2.59.039-5.181.059-7.77-.008-.945-.024-1.227.2-1.219,1.191.049,6.567.025,13.134.025,19.7" transform="translate(-58.08 -63.613)" fill="#fff"/>
  </g>
</svg>
