<svg xmlns="http://www.w3.org/2000/svg" xmlns:xlink="http://www.w3.org/1999/xlink" width="136.224" height="70.92" viewBox="0 0 136.224 131.737">
  <defs>
    <clipPath id="clip-path">
      <rect id="Rectángulo_482" data-name="Rectángulo 482" width="136.224" height="131.737" fill="none"/>
    </clipPath>
  </defs>
  <g id="Grupo_1207" data-name="Grupo 1207" transform="translate(2 -1)">
    <g id="Grupo_1206" data-name="Grupo 1206" transform="translate(-2 1)" clip-path="url(#clip-path)">
      <path id="Trazado_343" data-name="Trazado 343" d="M7.458,0h92.584c.063.057.116.143.191.166,5.126,1.581,7.258,4.387,7.258,9.572q0,17.752,0,35.5V46.57l.341.126c.312-.355.6-.734.938-1.062,3.7-3.579,7.329-7.227,11.124-10.706A9.776,9.776,0,0,1,135.874,39.2c.1.317.014.7.351.937v3.088c-.713,2.973-2.738,5.071-4.9,7.142-7.657,7.328-15.241,14.726-22.88,22.071a2.809,2.809,0,0,0-.975,2.231q.047,23.665.022,47.33c0,6.189-3.659,9.736-10.044,9.736H10.073c-6.4,0-10.064-3.541-10.064-9.718q0-53.054,0-106.108c0-2.4-.024-4.8.008-7.2A8.807,8.807,0,0,1,6.368.395C6.733.279,7.184.356,7.458,0M91.529,83.292c-2.607,1.113-5.062,2.168-7.523,3.209-1.588.672-2.662.571-3.535-.359a2.745,2.745,0,0,1-.263-3.348c2.121-4.57,4.278-9.126,6.3-13.738A14.8,14.8,0,0,1,90.812,63a1.794,1.794,0,0,0,.732-1.549q-.03-22.513,0-45.027c0-.8-.23-1.009-1.044-1-4.345.037-8.691.03-13.036.005-.733,0-1.056.1-1.136.945a8.07,8.07,0,0,1-8.189,7.285q-14.433.058-28.865,0a8.055,8.055,0,0,1-8.1-7.23c-.083-.92-.456-1-1.221-1-4.212.024-8.425.053-12.637-.016-1.126-.019-1.37.293-1.369,1.348q.046,49.143,0,98.287c0,.989.233,1.287,1.3,1.281,8.425-.045,16.849-.028,25.274-.023,2.021,0,3.265,1.018,3.235,2.613-.029,1.55-1.242,2.526-3.192,2.527q-14.366.009-28.733,0c-2.193,0-3.179-.948-3.179-3.06q-.006-52.488,0-104.976c0-2.189.968-3.107,3.258-3.111,4.39-.007,8.78.02,13.169-.016,1.309-.011,3.057.567,3.8-.27.646-.724.135-2.37.243-3.6.087-1-.243-1.3-1.306-1.287-6.7.049-13.391.021-20.086.026-2.984,0-4.4,1.369-4.4,4.245q0,56.476,0,112.952c0,2.875,1.423,4.246,4.406,4.246q44.03,0,88.06,0c2.962,0,4.372-1.383,4.373-4.278q.006-21.227,0-42.454c0-.354.12-.746-.166-1.1-1.326.578-2.581,1.222-3.907,1.672a1.645,1.645,0,0,0-1.268,1.89c.039,11.878.026,23.757.025,35.635,0,2.658-.843,3.492-3.537,3.493q-14.034,0-28.067,0c-.31,0-.622.012-.931-.011a2.559,2.559,0,0,1-.047-5.118c.4-.033.8-.015,1.2-.015,8.2,0,16.406-.019,24.609.022,1.093.005,1.5-.153,1.492-1.362-.061-10.12-.035-20.24-.035-30.361ZM53.82,5.146c-5.407,0-10.814.021-16.22-.02-.916-.007-1.212.208-1.193,1.128.061,3,.01,6,.027,9,.012,2.143,1.15,3.264,3.352,3.266q13.96.018,27.92,0c2.2,0,3.346-1.122,3.359-3.26.018-3-.032-6,.027-9,.018-.91-.259-1.143-1.186-1.136-5.362.042-10.725.021-16.087.021M96.849,56.816l.318.125c1.519-1.5,3.024-3.01,4.565-4.486a1.569,1.569,0,0,0,.442-1.279Q102.167,30.087,102.163,9c0-2.377-1.535-3.819-4.006-3.847-2.038-.023-4.077-.005-6.116-.005-4.831,0-9.662.024-14.492-.021-.939-.009-1.249.251-1.175,1.151a16.192,16.192,0,0,1,0,2.826c-.09.97.252,1.223,1.249,1.213,5.185-.049,10.371-.024,15.556-.023,2.887,0,3.672.774,3.672,3.614q0,20.767,0,41.534Zm27.407-6.987c-.168-.187-.3-.352-.45-.5-1.691-1.638-3.413-3.247-5.064-4.922-.631-.641-.938-.251-1.365.163Q106.1,55.488,94.8,66.385c-.522.5-.575.778-.017,1.292q2.453,2.262,4.8,4.635c.541.546.862.634,1.471.041q11.3-10.987,22.643-21.927c.185-.179.352-.376.557-.6m6.628-8.422a5.031,5.031,0,0,0-.12-.7,4.254,4.254,0,0,0-3.592-3.159,5.512,5.512,0,0,0-4.984,2.367c-.28.457.043.62.273.843q2.523,2.452,5.066,4.886c.225.215.439.624.856.243,1.26-1.151,2.553-2.284,2.5-4.478m-35.1,34.4L91.77,72.027c-.28-.264-.547-.482-.789.047-1.06,2.315-2.127,4.627-3.326,7.233l8.13-3.5" transform="translate(0 -0.001)" fill="#fff"/>
      <path id="Trazado_344" data-name="Trazado 344" d="M110.2,130.625c0,2.526.007,5.053,0,7.579-.008,2.22-.949,3.154-3.206,3.158q-7.969.013-15.939,0c-2.2,0-3.192-.946-3.2-3.035q-.016-7.772,0-15.543c0-2.041.993-3.021,3.07-3.026q8.1-.02,16.2,0c2.072.005,3.055.988,3.066,3.031.013,2.612,0,5.224,0,7.836M99.077,124.9c-1.639,0-3.278.027-4.915-.013-.7-.017-1.02.121-1.01.9q.063,4.753,0,9.508c-.009.723.2.952.965.944,3.277-.037,6.554-.028,9.832-.005.643,0,.95-.11.941-.832q-.055-4.818,0-9.637c.006-.667-.19-.9-.9-.877-1.637.045-3.277.014-4.915.014" transform="translate(-64.428 -88.877)" fill="#fff"/>
      <path id="Trazado_345" data-name="Trazado 345" d="M87.844,240.254c0-2.569-.011-5.139,0-7.708.011-2.028,1-3,3.092-3q8.1-.018,16.2,0c2.009.005,3.034.989,3.04,2.925q.023,7.9,0,15.8a2.628,2.628,0,0,1-2.958,2.875q-8.235.027-16.47,0a2.617,2.617,0,0,1-2.9-2.8c-.028-2.7-.007-5.4-.008-8.093m11.3-5.571c-1.639,0-3.278.03-4.915-.013-.747-.02-1.1.1-1.088.956.055,3.169.038,6.339.009,9.508-.006.656.173.892.888.885q4.982-.049,9.964,0c.726.007.885-.248.879-.893-.027-3.169-.032-6.339,0-9.508.008-.713-.183-.977-.957-.951-1.592.054-3.188.016-4.782.016" transform="translate(-64.423 -170.359)" fill="#fff"/>
      <path id="Trazado_346" data-name="Trazado 346" d="M110.191,350.222c0,2.569.012,5.139,0,7.708-.013,2.023-1.01,2.994-3.1,3q-8.1.018-16.2,0c-2-.006-3.025-1-3.031-2.935q-.022-7.9,0-15.8c.006-1.862,1.037-2.859,2.964-2.865q8.235-.026,16.471,0a2.616,2.616,0,0,1,2.9,2.8c.028,2.7.007,5.4.008,8.093m-5.32-.087c0-1.585-.018-3.17.009-4.754.01-.6-.065-.939-.838-.931-3.365.037-6.731.031-10.1,0-.686-.006-.793.28-.79.846.019,3.212.028,6.425-.006,9.637-.007.685.223.871.91.864,3.277-.029,6.555-.045,9.831.008.883.014,1.017-.318.995-1.048-.047-1.54-.014-3.083-.014-4.625" transform="translate(-64.423 -251.837)" fill="#fff"/>
      <path id="Trazado_347" data-name="Trazado 347" d="M236.541,351.3a2.992,2.992,0,0,1-1,2.069c-.947.9-1.813,1.9-2.838,2.706-1.053.831-.9,1.392.048,2.168a35.938,35.938,0,0,1,2.828,2.716c1.216,1.241,1.27,2.713.184,3.783a2.737,2.737,0,0,1-3.912-.13c-1.122-1.035-2.225-2.092-3.285-3.185-.517-.533-.863-.531-1.379,0-1.027,1.065-2.106,2.084-3.19,3.095a2.771,2.771,0,0,1-4.011.219c-1.085-1.062-.975-2.614.278-3.88.153-.155.319-.3.469-.455,1.045-1.1,2.967-2,3-3.243s-1.932-2.143-2.956-3.251c-.177-.192-.38-.36-.562-.547-1.235-1.265-1.308-2.833-.184-3.881a2.753,2.753,0,0,1,3.916.222c1.119,1.038,2.221,2.1,3.287,3.184.477.488.8.494,1.282,0,1.163-1.177,2.355-2.329,3.583-3.442a2.567,2.567,0,0,1,2.962-.4,2.52,2.52,0,0,1,1.477,2.246" transform="translate(-160.798 -258.848)" fill="#fff"/>
      <path id="Trazado_348" data-name="Trazado 348" d="M210.648,135.131a3.116,3.116,0,0,1,2.118.931c1.026,1.006,2.105,1.964,3.084,3.011.594.635.951.583,1.552-.01,2.974-2.936,6.007-5.816,9-8.738a2.923,2.923,0,0,1,3.1-.919,2.536,2.536,0,0,1,.836,4.381c-2.409,2.392-4.874,4.732-7.315,7.093-1.377,1.332-2.747,2.672-4.134,3.994-1.554,1.48-2.962,1.5-4.486.042q-2.788-2.662-5.537-5.361a2.426,2.426,0,0,1-.546-2.958,2.633,2.633,0,0,1,2.331-1.466" transform="translate(-152.581 -95.939)" fill="#fff"/>
      <path id="Trazado_349" data-name="Trazado 349" d="M210.693,244.91a3.182,3.182,0,0,1,2.105.964c.991.979,2.045,1.9,2.989,2.921.614.662.989.669,1.648.014,2.966-2.943,6-5.819,8.992-8.741a2.892,2.892,0,0,1,3.115-.872,2.535,2.535,0,0,1,.847,4.313c-1.43,1.461-2.934,2.854-4.405,4.276q-3.522,3.406-7.046,6.81c-1.647,1.582-3.015,1.571-4.674-.025-1.821-1.751-3.645-3.5-5.44-5.274a2.4,2.4,0,0,1-.547-2.848,2.634,2.634,0,0,1,2.415-1.538" transform="translate(-152.577 -177.415)" fill="#fff"/>
      <path id="Trazado_350" data-name="Trazado 350" d="M194.3,456.277a2.564,2.564,0,1,1,2.7-2.487,2.637,2.637,0,0,1-2.7,2.487" transform="translate(-140.597 -334.842)" fill="#fff"/>
    </g>
  </g>
</svg>
