<svg id="Grupo_1212" data-name="Grupo 1212" xmlns="http://www.w3.org/2000/svg" xmlns:xlink="http://www.w3.org/1999/xlink" width="106.413" height="70.92" viewBox="0 0 106.413 120.094">
  <defs>
    <clipPath id="clip-path">
      <rect id="Rectángulo_485" data-name="Rectángulo 485" width="106.413" height="120.093" fill="none"/>
    </clipPath>
  </defs>
  <g id="Grupo_1211" data-name="Grupo 1211" clip-path="url(#clip-path)">
    <path id="Trazado_361" data-name="Trazado 361" d="M67.947,0a17.123,17.123,0,0,1,6.388,2.709,13.579,13.579,0,0,1,5.6,10.722c.036,1.054.035,2.111,0,3.165a1.71,1.71,0,0,1-3.413.168c-.115-1.044-.047-2.107-.1-3.159a10.221,10.221,0,0,0-10.4-10.065q-12.841-.115-25.683,0A10.1,10.1,0,0,0,29.951,13.574c-.17,5.937-.051,11.882-.066,17.824,0,.437.079.71.582.833.825.2,1.625.5,2.545.8V31.715c0-4.1-.022-8.209.006-12.314a7.117,7.117,0,0,1,7.406-7.5c1.055-.021,2.114.049,3.166-.015a9.17,9.17,0,0,1,6.632,2.1,4.55,4.55,0,0,0,5.954-.034,8.965,8.965,0,0,1,6.406-2.062c1.13.06,2.267-.011,3.4.016a7.1,7.1,0,0,1,7.342,7.44c.034,4.1.007,8.209.008,12.314v1.362c.917-.291,1.748-.606,2.6-.81.634-.151.512-.59.514-.995.009-1.8,0-3.6.007-5.394a6.85,6.85,0,0,1,.077-1.165,1.59,1.59,0,0,1,1.791-1.473,1.563,1.563,0,0,1,1.61,1.661q.065,2.755.015,5.511a1.588,1.588,0,0,0,.712,1.474,4.764,4.764,0,0,1,1.911,3.234,14.969,14.969,0,0,1,.065,3.973c-.3,2.768-2.237,4.511-5.241,4.684-.834.048-1.106.322-1.282,1.108A27.68,27.68,0,0,1,70.12,56.74c-.622.739-.546.932.326,1.3a15.542,15.542,0,0,1,9.866,12.414,1.481,1.481,0,0,0,1.257,1.379c4.305,1.263,8.595,2.583,12.889,3.884a8.817,8.817,0,0,1,6.609,7.422q2.639,15.352,5.263,30.708a5.273,5.273,0,0,1-5.082,6.241c-.273.014-.547.009-.821.009q-47.261,0-94.523,0c-4.253,0-6.468-2.627-5.783-6.832.107-.655.2-1.313.31-1.967q.586-3.465,1.181-6.928c.026-.154.067-.305.1-.457.3-1.2,1.04-1.8,2.041-1.635a1.736,1.736,0,0,1,1.387,2.2c-.338,2.239-.737,4.469-1.115,6.7-.17,1-.363,2-.523,3a1.843,1.843,0,0,0,1.952,2.4c.273.012.547,0,.821,0H100.1c2.476,0,3.008-.611,2.6-3.008q-2.5-14.723-4.995-29.447A5.888,5.888,0,0,0,93.22,79c-3.9-1.124-7.779-2.317-11.652-3.526-.772-.241-1.019-.156-1,.708.046,2.462.037,4.925,0,7.388a1.052,1.052,0,0,0,.878,1.231,9.011,9.011,0,0,1,6.413,9.044A9.069,9.069,0,1,1,75.866,84.9a1.444,1.444,0,0,0,1.217-1.708q-.09-3.985,0-7.974a1.2,1.2,0,0,0-1.1-1.429,33.419,33.419,0,0,1-3.919-1.183c-.87-.326-1.2-.073-1.548.732-3.427,7.96-6.429,16.088-9.59,24.153-1.922,4.9-3.761,9.841-5.636,14.763q-.146.383-.281.77c-.317.909-.821,1.649-1.893,1.625-1.009-.023-1.47-.746-1.793-1.6-1.652-4.381-3.269-8.776-4.981-13.134-3.467-8.825-6.731-17.729-10.471-26.447-.429-1-.851-1.159-1.809-.8a35.3,35.3,0,0,1-3.92,1.183,1,1,0,0,0-.882,1.228,18.01,18.01,0,0,1,0,2.461c-.055.777.151,1.131.989,1.369a8.547,8.547,0,0,1,6.267,7.783q.624,7.888,1.22,15.778c.257,3.42-1.583,5.379-5.046,5.389a6.324,6.324,0,0,1-1.98-.118,1.6,1.6,0,0,1-1.246-1.858,1.568,1.568,0,0,1,1.532-1.5c.7-.066,1.406-.024,2.109-.041a1.054,1.054,0,0,0,1.164-1.27c-.429-5.532-.81-11.069-1.328-16.593-.242-2.58-2.469-4.336-5.241-4.431a5.09,5.09,0,0,0-5.463,4.13c-.578,3.55-.614,7.158-.954,10.735-.177,1.867-.31,3.738-.449,5.609-.114,1.544.135,1.811,1.645,1.825.508.005,1.018-.011,1.524.021a1.625,1.625,0,0,1,1.641,1.538,1.536,1.536,0,0,1-1.293,1.819c-4.095.731-7.451-.858-7.036-5.514.479-5.37.8-10.755,1.368-16.116.386-3.668,2.629-6,6.074-7.146.77-.255,1.034-.535,1.02-1.351-.041-2.425,0-2.423-2.337-1.714C20.01,76.933,16.585,78.011,13.134,79a5.862,5.862,0,0,0-4.5,5.11c-.626,3.814-1.283,7.623-1.93,11.434a2.421,2.421,0,0,1-.565,1.387,1.619,1.619,0,0,1-1.921.423A1.682,1.682,0,0,1,3.2,95.337c.777-4.54,1.414-9.114,2.439-13.6.71-3.107,3-5.04,6.057-5.974,4.365-1.335,8.733-2.664,13.115-3.944a1.489,1.489,0,0,0,1.223-1.408,15.651,15.651,0,0,1,9.795-12.354c.319-.136.634-.285,1.058-.476a31.8,31.8,0,0,1-4.659-7.063,23.246,23.246,0,0,1-2.006-5.725c-.139-.731-.389-1.018-1.191-1.068-3.49-.216-5.364-2.272-5.387-5.779-.012-1.877-.307-4,1.281-5.274s1.468-2.732,1.463-4.35q-.02-6.919,0-13.838C26.4,6.93,30.695,1.7,38.108.179A.983.983,0,0,0,38.393,0Zm1.864,27.069c0-2.619.018-5.239-.006-7.858-.018-1.86-1.063-3.543-2.689-3.629-3.2-.17-6.465-.859-9.413,1.518a7.52,7.52,0,0,1-9.1,0,8.027,8.027,0,0,0-5.78-1.687c-.66.058-1.328.007-1.993.01-2.967.012-4.3,1.334-4.3,4.289,0,5,0,10.008,0,15.012,0,1.932-.647,2.678-2.568,2.919-.389.049-.586.116-.575.517.064,2.372-.2,4.751.531,7.095a25.721,25.721,0,0,0,6.149,10.52c5.042,5.16,11.05,7.252,18.13,5.175,8.1-2.376,15.862-12.673,14.779-22.687-.046-.429-.159-.541-.617-.605-1.911-.266-2.534-1.026-2.54-2.962-.009-2.541,0-5.082,0-7.623M64.63,70.591a5.025,5.025,0,0,0-.252-.451,9.5,9.5,0,0,1-1.466-6.031c.031-1.3.007-1.287-1.123-.785A20.241,20.241,0,0,1,44.548,63.3c-.9-.4-1.2-.382-1.141.7a9.063,9.063,0,0,1-1.459,6.139c-.358.488-.031.676.29.915q5.166,3.858,10.321,7.73a.864.864,0,0,0,1.231-.008c3.43-2.59,6.879-5.156,10.319-7.733.18-.135.34-.3.521-.458m14.185,17.3A5.554,5.554,0,1,0,84.36,93.5a5.576,5.576,0,0,0-5.546-5.61M53.04,107.568l.283-.033c.909-2.406,1.812-4.815,2.735-7.216a1.809,1.809,0,0,0,.088-1.026c-.462-2.495-.962-4.984-1.351-7.49-.232-1.495-1.319-.8-2.078-.945-.721-.142-1.051.2-1.159.912-.217,1.427-.5,2.845-.746,4.268-.226,1.3-.875,2.725-.571,3.9a75.654,75.654,0,0,0,2.8,7.635M76.667,70.322c-.661-4.629-5.118-9.033-9.549-9.654-.571-.08-.688.08-.68.568.027,1.638.038,3.276.069,4.915a3.832,3.832,0,0,0,.474,1.553c.3.632.675,1,1.454.766a4.534,4.534,0,0,1,2.645.189c1.821.554,3.648,1.088,5.587,1.664m-47.057.017c1.979-.587,3.8-1.117,5.605-1.665a5.3,5.3,0,0,1,2.066-.308c1.733.173,2.353-.23,2.517-2.038.155-1.7.08-3.427.117-5.141.012-.58-.261-.585-.74-.493a11.307,11.307,0,0,0-4.283,1.789,12.267,12.267,0,0,0-5.283,7.855m10.58,3.584L40,74.076q1.8,4.492,3.594,8.984c.167.419.429.343.744.208,1.711-.734,3.427-1.46,5.323-2.266l-9.47-7.078M56.687,81c1.806.771,3.457,1.433,5.066,2.184.7.325.915.117,1.163-.525.942-2.437,1.951-4.848,2.912-7.278.178-.45.539-.862.4-1.514L56.687,81m-7.528,4.059c.722.847,1.172,1.958,2.06,2.167a11.216,11.216,0,0,0,3.828.046c.787-.094,1.07-1.059,1.633-1.579.424-.392.508-.652-.167-.966-3.157-1.468-3.147-1.491-6.377-.1-.284.123-.567.248-.978.428m-19.289-47.1v-.584c0-1.695-.485-2.133-2.164-2.016-.282.019-.488.1-.5.357a9.116,9.116,0,0,0,.149,3.473,1.683,1.683,0,0,0,2.016,1.024c.926-.136.346-.946.483-1.439a3.127,3.127,0,0,0,.013-.815m46.6-.057c0,.506.035,1.016-.009,1.519-.061.711.288.876.91.819a1.758,1.758,0,0,0,1.782-1.667,13.257,13.257,0,0,0,.028-1.518c0-1.92,0-1.9-1.885-1.526-.587.116-.912.309-.837.971a12.665,12.665,0,0,1,.01,1.4M47.535,93.133l.219-.014c.172-.954.341-1.91.517-2.863a1.03,1.03,0,0,0-.164-.983c-.7-.784-1.372-1.59-2.054-2.389-.186-.218-.383-.414-.688-.214-.247.162-.2.4-.108.626q1.136,2.919,2.278,5.837m11.145.333c.872-2.246,1.615-4.16,2.36-6.073.1-.261.226-.529-.073-.729s-.481.034-.69.224c-1.738,1.583-2.845,3.35-1.763,5.79a5.674,5.674,0,0,1,.166.787" transform="translate(0)" fill="#fff"/>
  </g>
</svg>
