<svg id="Grupo_1183" data-name="Grupo 1183" xmlns="http://www.w3.org/2000/svg" xmlns:xlink="http://www.w3.org/1999/xlink" width="111.114" height="70.92" viewBox="0 0 111.114 119.001">
  <defs>
    <clipPath id="clip-path">
      <rect id="Rectángulo_472" data-name="Rectángulo 472" width="111.114" height="119.001" fill="none"/>
    </clipPath>
  </defs>
  <g id="Grupo_1182" data-name="Grupo 1182" clip-path="url(#clip-path)">
    <path id="Trazado_279" data-name="Trazado 279" d="M88.547,0a19.047,19.047,0,0,1,2.364.906,7.934,7.934,0,0,1,4.317,7.533q0,11.271,0,22.543c0,10.187.013,20.373-.021,30.56a2.066,2.066,0,0,0,1.153,2.1A29.722,29.722,0,0,1,81.2,119q-36.428-.008-72.857-.007a7.926,7.926,0,0,1-8.331-8.321Q0,69.655,0,28.637a8.447,8.447,0,0,1,2.582-6.251q9.875-9.845,19.711-19.728A10.991,10.991,0,0,1,26.956,0ZM66.468,115.039c-.613-.4-.933-.6-1.244-.817-10.282-7.109-14.944-16.933-13.3-29.293,2.408-18.071,20.716-29.461,38.167-24.04,1.077.335,1.185.04,1.184-.933q-.037-25.682-.018-51.363c0-.233,0-.466-.012-.7a3.961,3.961,0,0,0-4.171-3.931Q57.967,3.95,28.857,3.94c-.907,0-1.1.31-1.089,1.14.033,4.687.025,9.374.013,14.061-.015,5.362-3.258,8.6-8.617,8.615-4.571.011-9.142,0-13.712,0-1.486,0-1.488,0-1.488,1.521q0,40.44,0,80.879c0,3.434,1.441,4.88,4.864,4.88H66.468M55.549,89.176A25.786,25.786,0,1,0,81.162,63.459,25.781,25.781,0,0,0,55.549,89.176M23.82,7.337,7.371,23.785c3.771,0,7.75,0,11.73,0,3.23,0,4.694-1.448,4.7-4.647q.012-5.453,0-10.906c0-.368.116-.764.021-.894" transform="translate(0)" fill="#fff"/>
    <path id="Trazado_280" data-name="Trazado 280" d="M74.12,127.809h32.536c.349,0,.7-.01,1.045.007a1.919,1.919,0,0,1,2.051,1.9,1.965,1.965,0,0,1-1.945,2.039c-.307.031-.619.014-.929.014q-32.768,0-65.537,0a6.047,6.047,0,0,1-1.493-.128,1.843,1.843,0,0,1-1.443-1.987,1.9,1.9,0,0,1,1.785-1.817,12.677,12.677,0,0,1,1.277-.027H74.12" transform="translate(-26.48 -88.123)" fill="#fff"/>
    <path id="Trazado_281" data-name="Trazado 281" d="M138.756,55q-10.624,0-21.247,0c-1.452,0-2.233-.581-2.367-1.689a1.918,1.918,0,0,1,1.593-2.2,6.584,6.584,0,0,1,1.271-.066q20.9,0,41.8,0a4.241,4.241,0,0,1,1.494.133,1.841,1.841,0,0,1,1.337,2.052,1.79,1.79,0,0,1-1.7,1.744,10.147,10.147,0,0,1-1.276.033q-10.449,0-20.9,0" transform="translate(-79.379 -35.184)" fill="#fff"/>
    <path id="Trazado_282" data-name="Trazado 282" d="M53.3,166.117q6.151,0,12.3,0c1.617,0,2.465.679,2.473,1.949s-.861,2-2.437,2.006q-12.417.008-24.834,0c-1.522,0-2.473-.806-2.446-2.026.026-1.184.934-1.925,2.41-1.928q6.266-.011,12.533,0" transform="translate(-26.447 -114.538)" fill="#fff"/>
    <path id="Trazado_283" data-name="Trazado 283" d="M127.836,93.385q-4.878,0-9.756,0a9.119,9.119,0,0,1-1.159-.04,1.954,1.954,0,0,1-.048-3.89,7.333,7.333,0,0,1,1.042-.045q10.047,0,20.093,0h.116c1.788.011,2.721.681,2.737,1.964s-.924,2.009-2.688,2.013q-5.169.01-10.337,0" transform="translate(-79.383 -61.646)" fill="#fff"/>
    <path id="Trazado_284" data-name="Trazado 284" d="M219.735,93.366c-2.28,0-4.56.023-6.839-.011a1.849,1.849,0,0,1-1.93-1.521,1.876,1.876,0,0,1,.854-2.109,2.315,2.315,0,0,1,1.333-.32c4.444-.006,8.888-.02,13.332.007a1.955,1.955,0,0,1,2.21,1.99c-.008,1.2-.809,1.945-2.235,1.966-2.241.033-4.483.009-6.724.009v-.011" transform="translate(-145.421 -61.639)" fill="#fff"/>
    <path id="Trazado_285" data-name="Trazado 285" d="M245.986,258.031a3.9,3.9,0,0,1-1.324,2.846c-4.2,4.187-8.363,8.4-12.585,12.565-1.9,1.87-3.806,1.884-5.7.087q-2.71-2.574-5.29-5.284a3.791,3.791,0,0,1-.219-5.429c1.461-1.474,3.669-1.39,5.436.128,1,.858,1.731,2.648,2.937,2.453,1.1-.177,2-1.659,2.952-2.6,2.491-2.462,4.942-4.966,7.453-7.408a3.671,3.671,0,0,1,6.338,2.642" transform="translate(-151.572 -175.272)" fill="#fff"/>
  </g>
</svg>
