<svg id="Grupo_1204" data-name="Grupo 1204" xmlns="http://www.w3.org/2000/svg" xmlns:xlink="http://www.w3.org/1999/xlink" width="120.741" height="70.92" viewBox="0 0 120.741 129.92">
  <defs>
    <clipPath id="clip-path">
      <rect id="Rectángulo_481" data-name="Rectángulo 481" width="120.741" height="129.92" fill="none"/>
    </clipPath>
  </defs>
  <g id="Grupo_1204-2" data-name="Grupo 1204" clip-path="url(#clip-path)">
    <path id="Trazado_327" data-name="Trazado 327" d="M18.016,129.92a2.918,2.918,0,0,1-1.234-2.715c.038-5.158-.037-10.318.053-15.474.023-1.345-.4-1.591-1.634-1.569-4.227.075-8.456.035-12.684.025C.6,110.182,0,109.584,0,107.7Q0,55.06,0,2.418C0,.6.6,0,2.443,0Q40.117,0,77.79,0c1.8,0,2.409.623,2.411,2.453.006,4.313.025,8.626-.016,12.938-.009.931.159,1.494,1.223,1.288,3.478-.673,5.839.875,8.181,3.378,5.254,5.616,10.738,11.028,16.32,16.322a6.161,6.161,0,0,1,2.027,5.068c-.07,13.361-.024,26.722-.06,40.083A2.122,2.122,0,0,0,109,83.548c8.968,6.075,12.921,14.554,11.439,25.27a24.763,24.763,0,0,1-19.028,20.449c-1.06.257-2.138.438-3.207.654Zm64.148-3.636.055-.3c-.2-.137-.412-.269-.613-.412-6.763-4.8-10.657-11.3-11.005-19.606A25.141,25.141,0,0,1,102.79,80.73c1.107.317,1.333.137,1.329-.995q-.053-18.65,0-37.3c0-1.083-.221-1.435-1.376-1.421-5.455.067-10.911.032-16.366.028-2.287,0-2.829-.552-2.83-2.865,0-5.5-.022-11,.019-16.493.007-.93-.219-1.253-1.191-1.216-1.984.075-3.973.022-5.96.022H22.242c-1.638,0-1.639,0-1.639,1.626q0,44.332,0,88.664c0,4.652.059,9.305-.037,13.955-.027,1.349.408,1.577,1.637,1.575q29.371-.055,58.742-.026h1.219M3.8,55.032q0,25.12-.024,50.24c0,1.054.265,1.342,1.321,1.32,3.382-.071,6.768-.1,10.148.009,1.312.041,1.58-.343,1.578-1.6q-.056-42.5-.028-85c0-.423-.02-.847.009-1.269a1.941,1.941,0,0,1,2.1-2.039c.422-.02.846-.008,1.269-.008q27.341,0,54.681.024c1.151,0,1.618-.172,1.579-1.48-.1-3.465-.084-6.936-.007-10.4.024-1.107-.35-1.289-1.359-1.288q-34.952.042-69.9-.005c-1.118,0-1.389.266-1.386,1.385q.059,25.056.027,50.113M95.7,126.141a21.353,21.353,0,1,0-21.389-21.568A21.282,21.282,0,0,0,95.7,126.141m5.368-88.84L87.295,23.491c0,4.322.009,8.747-.009,13.172,0,.763.493.636.939.636q3.424.007,6.848,0h5.994" transform="translate(0 0)" fill="#fff"/>
    <path id="Trazado_328" data-name="Trazado 328" d="M92.69,161.636c0,1.987.012,3.972,0,5.958-.013,1.583-.666,2.277-2.2,2.285q-5.894.028-11.79,0a1.935,1.935,0,0,1-2.2-2.181q-.044-6.085,0-12.17c.011-1.477.726-2.134,2.227-2.139q5.895-.022,11.79,0c1.5.006,2.162.669,2.178,2.162.022,2.028.005,4.057.006,6.085m-12.41-.659c1.424-1.251,2.283-1.383,3.126-.55a1.573,1.573,0,0,1,.3,2.257,1.852,1.852,0,0,1-1.715.874c-.691-.055-1.081-.657-1.715-1.006,0,.976.041,1.822-.012,2.663-.046.738.252.942.954.932,2.281-.033,4.564-.039,6.845,0,.751.013.925-.286.917-.97-.029-2.366-.036-4.733,0-7.1.012-.752-.293-.915-.974-.905-2.239.032-4.479.037-6.718,0-.742-.013-1.086.168-1.028.98.063.882.014,1.772.014,2.824" transform="translate(-50.545 -101.383)" fill="#fff"/>
    <path id="Trazado_329" data-name="Trazado 329" d="M92.7,234.565c0,1.943.009,3.887,0,5.83-.011,1.695-.607,2.334-2.253,2.342q-5.83.027-11.66,0c-1.636-.007-2.284-.664-2.292-2.332q-.028-5.893,0-11.787c.008-1.7.685-2.372,2.41-2.38q5.7-.029,11.407,0c1.745.009,2.377.654,2.388,2.371.013,1.985,0,3.971,0,5.957m-9.082,4.494c1.633,0,3.14-.013,4.647.006.573.007.719-.286.717-.786q-.011-3.733,0-7.467c0-.511-.169-.781-.73-.778q-3.607.019-7.213,0c-.532,0-.758.2-.753.744.017,1.961.006,3.923.006,6.077.954-.972,1.907-1.366,2.955-.7,1.122.718.889,1.77.371,2.9" transform="translate(-50.55 -149.535)" fill="#fff"/>
    <path id="Trazado_330" data-name="Trazado 330" d="M92.692,304.707c0,2.027.016,4.053-.005,6.079-.016,1.486-.687,2.187-2.166,2.2q-5.889.037-11.778,0c-1.539-.008-2.246-.712-2.255-2.266q-.036-6.015,0-12.032c.011-1.552.7-2.2,2.291-2.2a2.263,2.263,0,0,0,2.168-.868,1.6,1.6,0,0,1,2.622.176,1.637,1.637,0,0,0,1.6.689c1.646-.023,3.293-.012,4.939-.006,2.009.007,2.574.56,2.58,2.53.006,1.9,0,3.8,0,5.7m-3.717.088c0-1.181-.042-2.365.015-3.544.038-.8-.277-1-1.027-.984-2.236.041-4.473.045-6.709,0-.8-.017-1,.275-.985,1.026.041,2.278.045,4.557,0,6.835-.02,1,.237,1.35,1.23.868a1.452,1.452,0,0,1,.987-.078c1.819.592,3.686.165,5.522.319.812.068,1.009-.287.98-1.024-.045-1.137-.012-2.278-.012-3.417" transform="translate(-50.546 -195.008)" fill="#fff"/>
    <path id="Trazado_331" data-name="Trazado 331" d="M92.694,88.573c0,1.985.012,3.971,0,5.956-.013,1.658-.628,2.3-2.3,2.308q-5.83.033-11.66,0c-1.569-.011-2.234-.687-2.243-2.263q-.035-5.956,0-11.913c.009-1.64.683-2.312,2.33-2.321q5.766-.033,11.533,0c1.729.009,2.332.653,2.341,2.408.011,1.943,0,3.887,0,5.83m-12.41-.06c0,1.222.025,2.445-.01,3.666-.019.662.124,1,.895.988,2.317-.041,4.635-.034,6.952,0,.683.009.867-.277.862-.9-.019-2.4-.026-4.8,0-7.205.009-.727-.276-.944-.972-.935q-3.413.045-6.826,0c-.741-.011-.941.291-.916.979.042,1.136.011,2.275.011,3.413" transform="translate(-50.548 -53.092)" fill="#fff"/>
    <path id="Trazado_332" data-name="Trazado 332" d="M151.493,121.653q-6.973,0-13.947,0a6.058,6.058,0,0,1-1.385-.1,1.854,1.854,0,0,1-.1-3.556,4.865,4.865,0,0,1,1.378-.14q14.074-.011,28.148,0a6.47,6.47,0,0,1,1.136.068,1.86,1.86,0,0,1-.014,3.672,7.888,7.888,0,0,1-1.264.059q-6.973.006-13.947,0" transform="translate(-89.087 -77.899)" fill="#fff"/>
    <path id="Trazado_333" data-name="Trazado 333" d="M151.482,190.847q7.166,0,14.331,0c1.621,0,2.45.659,2.444,1.905s-.841,1.9-2.462,1.9q-14.331.006-28.663,0c-1.458,0-2.279-.611-2.386-1.723-.118-1.235.773-2.071,2.277-2.075,4.819-.011,9.639,0,14.458,0" transform="translate(-89.061 -126.15)" fill="#fff"/>
    <path id="Trazado_334" data-name="Trazado 334" d="M147.721,336.812q5.263,0,10.525,0c1.607,0,2.434.678,2.406,1.934-.026,1.194-.849,1.863-2.372,1.865q-10.589.012-21.178,0c-1.49,0-2.343-.713-2.356-1.893s.844-1.9,2.322-1.9c3.551-.008,7.1,0,10.652,0" transform="translate(-89.068 -222.633)" fill="#fff"/>
    <path id="Trazado_335" data-name="Trazado 335" d="M146.161,267.538c-3,0-5.994.007-8.992,0-1.6-.005-2.451-.694-2.423-1.921.027-1.176.856-1.868,2.381-1.872,6.037-.016,12.074-.006,18.11-.006a2.067,2.067,0,0,1,2.251,1.466,1.772,1.772,0,0,1-.762,1.992,2.381,2.381,0,0,1-1.574.343q-4.5.005-8.992,0" transform="translate(-89.068 -174.328)" fill="#fff"/>
    <path id="Trazado_336" data-name="Trazado 336" d="M145.305,98.25c-2.744,0-5.489.009-8.233,0-1.495-.007-2.332-.707-2.322-1.894s.853-1.9,2.349-1.9q8.233-.02,16.465,0c1.488,0,2.367.715,2.4,1.868.035,1.219-.835,1.924-2.426,1.929-2.744.009-5.489,0-8.233,0" transform="translate(-89.07 -62.426)" fill="#fff"/>
    <path id="Trazado_337" data-name="Trazado 337" d="M145.432,167.532c2.744,0,5.489-.011,8.233,0,1.483.009,2.334.745,2.3,1.93-.032,1.12-.887,1.859-2.272,1.862q-8.359.022-16.719,0c-1.395,0-2.213-.745-2.223-1.894s.805-1.885,2.2-1.9c2.829-.02,5.657-.006,8.486-.007" transform="translate(-89.07 -110.737)" fill="#fff"/>
    <path id="Trazado_338" data-name="Trazado 338" d="M142.952,316.741c-1.944,0-3.887.008-5.831,0-1.516-.008-2.35-.674-2.37-1.858s.827-1.935,2.3-1.939q6.084-.019,12.169,0c1.387.005,2.232.735,2.255,1.869.024,1.173-.849,1.916-2.312,1.926-2.07.014-4.141,0-6.211,0" transform="translate(-89.071 -206.849)" fill="#fff"/>
    <path id="Trazado_339" data-name="Trazado 339" d="M142.187,240.087c1.73,0,3.461-.016,5.191.005,1.413.017,2.179.713,2.16,1.9a1.854,1.854,0,0,1-2.1,1.861q-5.254.045-10.509,0c-1.4-.011-2.194-.771-2.175-1.934s.808-1.821,2.247-1.834c1.73-.017,3.461,0,5.191,0" transform="translate(-89.07 -158.695)" fill="#fff"/>
    <path id="Trazado_340" data-name="Trazado 340" d="M89.624,216.957a1.843,1.843,0,0,1-1.869-1.809,1.889,1.889,0,0,1,1.793-1.782,1.856,1.856,0,0,1,1.941,1.738,1.927,1.927,0,0,1-1.865,1.852" transform="translate(-58.006 -141.035)" fill="#fff"/>
    <path id="Trazado_341" data-name="Trazado 341" d="M89.646,135.563a1.841,1.841,0,0,1-1.878-1.794,1.866,1.866,0,0,1,1.8-1.739,1.826,1.826,0,0,1,1.935,1.719,1.865,1.865,0,0,1-1.857,1.814" transform="translate(-58.015 -87.271)" fill="#fff"/>
    <path id="Trazado_342" data-name="Trazado 342" d="M255.2,299.623a1.786,1.786,0,0,1-1.473-.778c-1.556-1.95-3.137-3.88-4.671-5.847a1.9,1.9,0,0,1,.121-2.82,1.936,1.936,0,0,1,2.87.527c.925,1.155,1.873,2.3,2.714,3.511.576.832.966.98,1.834.266,3.755-3.089,7.577-6.1,11.384-9.119,1.19-.944,2.138-.934,2.9-.031.8.956.643,1.979-.535,2.926q-5.439,4.369-10.9,8.7c-.893.712-1.8,1.4-2.681,2.13a2.254,2.254,0,0,1-1.556.533" transform="translate(-164.253 -188.158)" fill="#fff"/>
  </g>
</svg>
