<svg xmlns="http://www.w3.org/2000/svg" xmlns:xlink="http://www.w3.org/1999/xlink" width="127.91" height="70.92" viewBox="0 0 127.91 135.252">
  <defs>
    <clipPath id="clip-path">
      <rect id="Rectángulo_483" data-name="Rectángulo 483" width="127.91" height="135.252" fill="none"/>
    </clipPath>
  </defs>
  <g id="Grupo_1208" data-name="Grupo 1208" clip-path="url(#clip-path)">
    <path id="Trazado_351" data-name="Trazado 351" d="M15.6,199.653a2.871,2.871,0,0,1-1.342-2.783c.054-4.709.042-9.42.014-14.13a6.589,6.589,0,0,1,3.118-6.023,1.194,1.194,0,0,0,.631-1.168c-.022-2.157-.03-4.314,0-6.471a2.218,2.218,0,0,0-.62-1.532q-2.236-2.691-4.436-5.411c-.972-1.207-.935-2.356.05-3.125.918-.716,2.081-.5,2.992.6,1.712,2.068,3.387,4.167,5.115,6.22a3.406,3.406,0,0,1,.863,2.4c-.046,2.112.017,4.226-.029,6.338-.018.828.188,1.156,1.093,1.153q13.339-.046,26.676,0c.844,0,1.019-.3,1.014-1.074-.031-5.018-.014-10.036-.019-15.054a5.3,5.3,0,0,0-2-4.275q-13.578-11.135-27.175-22.246a3.29,3.29,0,1,0-4.366,4.917c3.845,3.874,7.715,7.724,11.57,11.588a5.259,5.259,0,0,1,.861.99,1.834,1.834,0,0,1-.3,2.412,1.867,1.867,0,0,1-2.423.236,3.745,3.745,0,0,1-.7-.6c-3.986-3.982-7.988-7.949-11.946-11.959a7.159,7.159,0,0,1-.733-9.608A1.923,1.923,0,0,0,14,129.742c-.425-7.425-.8-14.854-1.265-22.277a4.252,4.252,0,0,0-4.179-3.981,4.354,4.354,0,0,0-4.577,4.549c-.024,5.062-.008,10.124-.008,15.187,0,6.075.021,12.15-.01,18.224a9.168,9.168,0,0,0,2.225,6.183c1.333,1.581,2.637,3.187,3.929,4.8.974,1.218.944,2.36-.033,3.132s-2.055.546-3.068-.68q-2.1-2.543-4.181-5.109a12.026,12.026,0,0,1-2.811-7.656q-.039-17.167,0-34.335A8.3,8.3,0,0,1,7.861,99.53a8.249,8.249,0,0,1,8.829,7.6c.236,2.761.341,5.534.491,8.3.208,3.867.421,7.735.588,11.6.04.912.228,1.291,1.291,1.175a7.424,7.424,0,0,1,4.773,1.494,9.251,9.251,0,0,1-.492-1.181,1.879,1.879,0,0,1,1.032-2.317,1.827,1.827,0,0,1,2.448.622,8.643,8.643,0,0,1,.644,1.148c7.885,14.124,19.866,21.884,36.077,21.968s28.269-7.562,36.3-21.6c.262-.458.455-.959.752-1.391a1.846,1.846,0,0,1,2.515-.755,1.959,1.959,0,0,1,.958,2.57c-.139.4-.5.719-.463,1.33a7.827,7.827,0,0,1,5.872-1.873c.786.084.564-.662.587-1.064.229-3.91.416-7.823.627-11.734.149-2.768.256-5.541.489-8.3a8.35,8.35,0,0,1,16.667.657c.043,9.244.029,18.488.007,27.732a69.958,69.958,0,0,1-.126,8.047,12.282,12.282,0,0,1-2.856,6.421q-7.119,8.676-14.236,17.352a3.009,3.009,0,0,0-.793,2.134c.057,1.979.039,3.962.006,5.942a1.4,1.4,0,0,0,.741,1.374,6.321,6.321,0,0,1,3,5.555c.018,4.974-.015,9.949.024,14.923a2.7,2.7,0,0,1-1.336,2.388h-1.321a2.746,2.746,0,0,1-1.34-2.774c.081-1.4-.022-2.812.035-4.215.031-.767-.242-.961-.975-.951-2.679.038-5.359.015-8.038.015-8.61,0-17.22.029-25.828-.033-1.211-.009-1.5.35-1.411,1.468.095,1.222-.036,2.462.037,3.687a2.869,2.869,0,0,1-1.31,2.8H70.8a2.564,2.564,0,0,1-1.366-2.359c.045-5.015.013-10.031.026-15.047a6.119,6.119,0,0,1,2.948-5.428,1.592,1.592,0,0,0,.782-1.612c-.018-4.355.067-8.713-.033-13.066-.083-3.617.206-7.05,3.13-9.758a47.352,47.352,0,0,1-24.961-.076c2.795,2.575,3.446,5.507,3.38,8.775-.094,4.75-.024,9.5-.025,14.254,0,.522-.04.981.551,1.337a6.516,6.516,0,0,1,3.19,6.1q-.06,7.127.01,14.255a2.688,2.688,0,0,1-1.369,2.624h-1.32a2.854,2.854,0,0,1-1.311-2.8c.074-1.226-.057-2.465.038-3.687.086-1.115-.194-1.489-1.409-1.47-5.226.079-10.454.034-15.681.034-6.019,0-12.036.015-18.054-.018-.841,0-1.16.2-1.111,1.084.074,1.358-.043,2.726.037,4.083a2.753,2.753,0,0,1-1.339,2.775Zm108.3-74.565c0-5.679.016-11.358-.007-17.036a4.363,4.363,0,0,0-4.693-4.564,4.276,4.276,0,0,0-4.08,4.09c-.457,7.38-.831,14.765-1.24,22.147a1.694,1.694,0,0,0,.3,1.106c2.534,3.792,2.208,7.075-1,10.291q-5.6,5.608-11.208,11.2a5.95,5.95,0,0,1-.98.876,1.941,1.941,0,0,1-2.733-2.627,5.161,5.161,0,0,1,.86-.991q5.691-5.7,11.389-11.4c1.627-1.632,1.826-3.483.556-4.917s-3.178-1.48-4.933-.045q-13.439,10.993-26.866,22a5.5,5.5,0,0,0-2.111,4.488c.006,4.93.035,9.861-.025,14.791-.013,1.045.346,1.226,1.282,1.217,4.666-.042,9.333-.02,14-.018a8.393,8.393,0,0,1,1.186.042,1.886,1.886,0,0,1,1.791,2.057,1.837,1.837,0,0,1-1.871,1.837c-.438.036-.88.022-1.32.023-5.238,0-10.477-.013-15.716.009-2.151.009-3.036.933-3.051,3.073-.01,1.321.055,2.645-.022,3.961-.052.908.305,1.077,1.129,1.075q17.037-.035,34.073,0c.784,0,1.1-.167,1.051-1.015-.072-1.361-.008-2.728-.022-4.093-.022-2.023-.955-2.964-3.012-3-1.54-.03-3.082.02-4.622-.023A1.973,1.973,0,0,1,99.9,177.73a2.012,2.012,0,0,1,2.034-2,20.992,20.992,0,0,1,2.771-.01c.9.059,1.244-.219,1.21-1.17-.068-1.935.049-3.877-.044-5.809a4.592,4.592,0,0,1,1.215-3.339c4.886-5.9,9.713-11.843,14.584-17.753a9.452,9.452,0,0,0,2.238-6.315c-.04-5.414-.012-10.829-.014-16.244M36.344,187.767c5.672,0,11.345-.017,17.017.018.849.005,1.165-.213,1.109-1.093-.072-1.139-.017-2.285-.017-3.429,0-2.855-.737-3.6-3.59-3.6q-14.313,0-28.626,0c-.439,0-.881-.019-1.318.012a2.58,2.58,0,0,0-2.674,2.8c-.027,1.363.064,2.731-.029,4.088-.069,1.01.271,1.236,1.244,1.228,5.628-.048,11.257-.023,16.885-.023" transform="translate(0 -64.401)" fill="#fff"/>
    <path id="Trazado_352" data-name="Trazado 352" d="M91.279,78.532a16.8,16.8,0,0,1,10.639-15.095c6.958-2.99,13.433-1.712,19.11,3.319,1.817,1.611,1.776,1.658,3.516.021a17.647,17.647,0,0,1,25.562,24.26c-3.33,3.868-6.848,7.575-10.3,11.339-1,1.092-2.112,1.221-3.011.431s-.869-2.023.139-3.136c3.4-3.752,6.9-7.412,10.184-11.263A13.6,13.6,0,0,0,140.9,66.621a13.154,13.154,0,0,0-13.4,2.851c-1.027.895-1.947,1.911-2.925,2.862-1.3,1.267-2.213,1.27-3.507.024-1.141-1.1-2.222-2.268-3.429-3.289a13.615,13.615,0,0,0-18.365.814,13.351,13.351,0,0,0-.839,18.322c7.513,8.4,15.241,16.6,22.9,24.871,1.1,1.192,2.276,1.162,3.411-.052,1.833-1.962,3.623-3.964,5.432-5.948.237-.26.462-.535.722-.769a2,2,0,0,1,2.745-.087,1.841,1.841,0,0,1,.153,2.72c-2.217,2.5-4.4,5.057-6.792,7.382-2.5,2.426-6.18,2.056-8.692-.653q-8.306-8.956-16.586-17.937c-1.912-2.069-3.836-4.127-5.734-6.208-3.13-3.432-4.7-7.477-4.714-12.991" transform="translate(-59.068 -40.02)" fill="#fff"/>
    <path id="Trazado_353" data-name="Trazado 353" d="M150.752,18.534a1.932,1.932,0,0,1-1.018,1.842,1.8,1.8,0,0,1-2.1-.151,7.047,7.047,0,0,1-1.063-1.165,40.79,40.79,0,0,0-63.248-.139c-.2.238-.387.48-.589.712-.943,1.084-2.075,1.3-2.993.564s-.962-1.924-.093-3.039a43.847,43.847,0,0,1,5.111-5.508,44.773,44.773,0,0,1,65.17,5.259,2.562,2.562,0,0,1,.826,1.625" transform="translate(-51.135 0)" fill="#fff"/>
    <path id="Trazado_354" data-name="Trazado 354" d="M53.758,94.934A44.2,44.2,0,0,1,56.7,78.548a2.027,2.027,0,0,1,2.14-1.576,1.9,1.9,0,0,1,1.769,1.517,2.494,2.494,0,0,1-.272,1.659,40.769,40.769,0,0,0-2.576,16.8A51.868,51.868,0,0,0,58.4,102.3c.21,1.364-.325,2.277-1.467,2.531-1.187.264-2.1-.4-2.393-1.814a38.071,38.071,0,0,1-.781-8.083" transform="translate(-34.786 -49.805)" fill="#fff"/>
    <path id="Trazado_355" data-name="Trazado 355" d="M295.05,94.521a47.877,47.877,0,0,1-.783,8.266c-.259,1.419-1.117,2.167-2.294,1.994-1.281-.188-1.893-1.224-1.593-2.817a40.406,40.406,0,0,0-.08-15.349,43.39,43.39,0,0,0-1.874-6.585c-.544-1.494-.2-2.59.9-3.027,1.2-.476,2.22.118,2.8,1.644a45.388,45.388,0,0,1,2.922,15.873" transform="translate(-186.478 -49.725)" fill="#fff"/>
  </g>
</svg>
