<?xml version="1.0" encoding="UTF-8"?>
<svg id="Capa_2" data-name="Capa 2" xmlns="http://www.w3.org/2000/svg" viewBox="0 0 199.17 199.17">
  <defs>
    <style>
      .cls-1 {
        fill: #00b3a0;
      }
    </style>
  </defs>
  <g id="Capa_1-2" data-name="Capa 1">
    <path id="Icon_fa-solid-square-arrow-up-right" data-name="Icon fa-solid-square-arrow-up-right" class="cls-1" d="m199.17,170.72c-.01,15.71-12.74,28.44-28.45,28.45H28.45c-15.71-.01-28.44-12.74-28.45-28.45V28.45C.01,12.74,12.74.01,28.45,0h142.27c15.71.01,28.44,12.74,28.45,28.45v142.27Zm-49.79-99.59c0-5.89-4.78-10.67-10.67-10.67s-10.67,4.78-10.67,10.67v41.83l-60.02-60.06c-3.96-4.37-10.7-4.7-15.07-.74-4.37,3.96-4.7,10.7-.74,15.07.24.26.48.51.74.74l60.03,60.01h-45.39c-5.89,0-10.67,4.78-10.67,10.67s4.78,10.67,10.67,10.67h71.13c5.88.01,10.66-4.74,10.67-10.62,0-.02,0-.04,0-.05v-67.52Z"/>
  </g>
</svg>