<svg id="Grupo_446" data-name="Grupo 446" xmlns="http://www.w3.org/2000/svg" xmlns:xlink="http://www.w3.org/1999/xlink" width="63.383" height="66.258" viewBox="0 0 63.383 66.258">
  <defs>
    <clipPath id="clip-path">
      <path id="Trazado_121" data-name="Trazado 121" d="M42.772,6.85A18.613,18.613,0,0,1,49.8,5.372c6.009,0,8.149,6.938,8.149,13.431,0,5.191-1.3,8.3-2.815,11.9A48.119,48.119,0,0,0,52.6,37.85a56.739,56.739,0,0,0-1.064,8.972A61.228,61.228,0,0,1,50.2,57.5a7.719,7.719,0,0,1-1.265,2.877,1.081,1.081,0,0,1-.941.511c-.132,0-.626-.308-1.313-1.713a45.821,45.821,0,0,1-2.323-6.964,49.569,49.569,0,0,0-3.735-10.344c-2.221-4.014-5.224-6.049-8.927-6.049s-6.707,2.036-8.927,6.05A49.561,49.561,0,0,0,19.03,52.209a45.839,45.839,0,0,1-2.323,6.964c-.687,1.405-1.181,1.713-1.313,1.713a1.081,1.081,0,0,1-.941-.511A7.716,7.716,0,0,1,13.188,57.5a61.216,61.216,0,0,1-1.339-10.675,56.758,56.758,0,0,0-1.064-8.972A48.112,48.112,0,0,0,8.247,30.7c-1.51-3.6-2.815-6.707-2.815-11.9,0-6.493,2.141-13.431,8.149-13.431A18.614,18.614,0,0,1,20.611,6.85a29.017,29.017,0,0,0,11.081,2.1,29.019,29.019,0,0,0,11.081-2.1M49.8,0a23.7,23.7,0,0,0-8.894,1.8,23.688,23.688,0,0,1-9.215,1.777A23.689,23.689,0,0,1,22.476,1.8,23.7,23.7,0,0,0,13.582,0C5.331,0,0,7.381,0,18.8c0,6.26,1.642,10.173,3.23,13.958a43.208,43.208,0,0,1,2.284,6.391A54.2,54.2,0,0,1,6.429,47.2,64.617,64.617,0,0,0,7.94,58.887a12.812,12.812,0,0,0,2.3,4.883,6.515,6.515,0,0,0,5.151,2.488c2.577,0,4.664-1.6,6.2-4.747a48.973,48.973,0,0,0,2.666-7.861c1.989-7.062,3.8-12.463,7.429-12.463s5.439,5.4,7.428,12.463a48.964,48.964,0,0,0,2.666,7.861c1.54,3.15,3.627,4.747,6.2,4.747a6.515,6.515,0,0,0,5.151-2.488,12.814,12.814,0,0,0,2.3-4.883A64.619,64.619,0,0,0,56.954,47.2a54.173,54.173,0,0,1,.915-8.043,43.211,43.211,0,0,1,2.284-6.393c1.588-3.783,3.23-7.7,3.23-13.956C63.383,7.381,58.052,0,49.8,0Z" fill="#fff"/>
    </clipPath>
  </defs>
  <g id="Grupo_445" data-name="Grupo 445" clip-path="url(#clip-path)">
    <rect id="Rectángulo_216" data-name="Rectángulo 216" width="63.383" height="66.258" transform="translate(0 0)" fill="#fff"/>
  </g>
</svg>
