<svg id="Grupo_492" data-name="Grupo 492" xmlns="http://www.w3.org/2000/svg" xmlns:xlink="http://www.w3.org/1999/xlink" width="60.746" height="40.727" viewBox="0 0 60.746 60.727">
  <defs>
    <linearGradient id="linear-gradient" x1="0.5" x2="0.5" y2="1" gradientUnits="objectBoundingBox">
      <stop offset="0" stop-color="#0079c4"/>
      <stop offset="1" stop-color="#00b3a0"/>
    </linearGradient>
    <clipPath id="clip-path">
      <path id="Trazado_124" data-name="Trazado 124" d="M200.273,269.7v15.182a12.159,12.159,0,0,1-12.145,12.145h-3.036a12.159,12.159,0,0,1-12.145-12.145V272.741a3.036,3.036,0,1,0-6.073,0v12.145A18.239,18.239,0,0,0,185.091,303.1h3.036a18.239,18.239,0,0,0,18.218-18.218V269.7a3.036,3.036,0,0,0-6.073,0" transform="translate(-166.873 -266.668)" fill="url(#linear-gradient)"/>
    </clipPath>
    <clipPath id="clip-path-2">
      <path id="Trazado_125" data-name="Trazado 125" d="M472.946,142.443a3.036,3.036,0,1,1,3.036,3.036,3.04,3.04,0,0,1-3.036-3.036m-6.073,0a9.109,9.109,0,1,0,9.109-9.109,9.119,9.119,0,0,0-9.109,9.109" transform="translate(-466.873 -133.334)" fill="url(#linear-gradient)"/>
    </clipPath>
    <clipPath id="clip-path-3">
      <path id="Trazado_126" data-name="Trazado 126" d="M6.061,0A6.073,6.073,0,0,0,0,6.061v.011a6.129,6.129,0,0,0,.037.669l0,.015L1.405,18.567v.012A16.8,16.8,0,0,0,18.105,33.4h.263a16.8,16.8,0,0,0,16.7-14.821v-.012L36.435,6.756l0-.014A6.073,6.073,0,0,0,30.364,0H27.346a3.036,3.036,0,1,0,0,6.073H30.4l-1.364,11.79a10.735,10.735,0,0,1-10.67,9.466h-.158A10.735,10.735,0,0,1,7.437,17.861L6.073,6.073H9.128A3.036,3.036,0,0,0,9.128,0H6.061Z" fill="url(#linear-gradient)"/>
    </clipPath>
  </defs>
  <g id="Grupo_449" data-name="Grupo 449" transform="translate(15.201 24.291)">
    <g id="Grupo_448" data-name="Grupo 448" clip-path="url(#clip-path)">
      <rect id="Rectángulo_220" data-name="Rectángulo 220" width="39.472" height="36.436" transform="translate(0 0)" fill="url(#linear-gradient)"/>
    </g>
  </g>
  <g id="Grupo_451" data-name="Grupo 451" transform="translate(42.528 12.145)">
    <g id="Grupo_450" data-name="Grupo 450" clip-path="url(#clip-path-2)">
      <rect id="Rectángulo_221" data-name="Rectángulo 221" width="18.218" height="18.218" transform="translate(0 0)" fill="url(#linear-gradient)"/>
    </g>
  </g>
  <g id="Grupo_453" data-name="Grupo 453">
    <g id="Grupo_452" data-name="Grupo 452" clip-path="url(#clip-path-3)">
      <rect id="Rectángulo_222" data-name="Rectángulo 222" width="36.475" height="33.408" transform="translate(0 -0.007)" fill="url(#linear-gradient)"/>
    </g>
  </g>
</svg>
