<svg id="Grupo_475" data-name="Grupo 475" xmlns="http://www.w3.org/2000/svg" xmlns:xlink="http://www.w3.org/1999/xlink" width="69.789" height="49.559" viewBox="0 0 69.789 49.559">
  <defs>
    <clipPath id="clip-path">
      <rect id="Rectángulo_241" data-name="Rectángulo 241" width="69.789" height="49.559" fill="none"/>
    </clipPath>
  </defs>
  <g id="Grupo_475-2" data-name="Grupo 475" clip-path="url(#clip-path)">
    <path id="Trazado_137" data-name="Trazado 137" d="M146.39,31.858a2.022,2.022,0,0,1-2.022-2.022V4.043H97.839V29.836a2.022,2.022,0,1,1-4.044,0V2.021A2.022,2.022,0,0,1,95.817,0H146.39a2.022,2.022,0,0,1,2.022,2.022V29.836a2.022,2.022,0,0,1-2.022,2.022" transform="translate(-86.209 0.001)" fill="#fff"/>
    <path id="Trazado_138" data-name="Trazado 138" d="M67.767,451.869H2.022a2.022,2.022,0,0,1-1.809-2.926l5.057-10.115a2.022,2.022,0,0,1,1.809-1.118H62.71a2.022,2.022,0,0,1,1.808,1.118l5.057,10.115a2.022,2.022,0,0,1-1.809,2.926M5.294,447.826H64.5l-3.035-6.071H8.329Z" transform="translate(0 -402.31)" fill="#fff"/>
    <path id="Trazado_139" data-name="Trazado 139" d="M408.469,144.276a2.022,2.022,0,0,1-2.022-2.022V127.082a2.022,2.022,0,0,1,4.044,0v15.172a2.022,2.022,0,0,1-2.022,2.022" transform="translate(-373.575 -114.945)" fill="#fff"/>
    <path id="Trazado_140" data-name="Trazado 140" d="M329.845,222.9H314.673a2.022,2.022,0,1,1,0-4.044h15.172a2.022,2.022,0,1,1,0,4.044" transform="translate(-287.365 -201.155)" fill="#fff"/>
  </g>
</svg>
