<svg xmlns="http://www.w3.org/2000/svg" xmlns:xlink="http://www.w3.org/1999/xlink" width="61.358" height="68.169" viewBox="0 0 61.358 68.169">
  <defs>
    <clipPath id="clip-path">
      <rect id="Rect치ngulo_227" data-name="Rect치ngulo 227" width="61.357" height="68.169" fill="#fff"/>
    </clipPath>
    <clipPath id="clip-path-2">
      <path id="Trazado_128" data-name="Trazado 128" d="M30.679,7.4A46.2,46.2,0,0,0,54.54,13.635V25.7a38.432,38.432,0,0,1-23.833,35.64l-.028.012-.028-.012A38.433,38.433,0,0,1,6.817,25.7V13.635h0c.215,0,.428,0,.643,0A46.2,46.2,0,0,0,30.679,7.4m0-7.4a3.406,3.406,0,0,0-1.843.541A39.424,39.424,0,0,1,6.868,6.818h-.05A6.825,6.825,0,0,0,0,13.635V25.7A45.37,45.37,0,0,0,28.044,67.642a6.854,6.854,0,0,0,5.27,0A45.371,45.371,0,0,0,61.357,25.7V13.635A6.825,6.825,0,0,0,54.54,6.817h-.05A39.417,39.417,0,0,1,32.522.541,3.406,3.406,0,0,0,30.679,0Z" transform="translate(0)" fill="#fff"/>
    </clipPath>
  </defs>
  <g id="Grupo_456" data-name="Grupo 456" transform="translate(0)">
    <g id="Grupo_457" data-name="Grupo 457" transform="translate(0)">
      <g id="Grupo_456-2" data-name="Grupo 456" clip-path="url(#clip-path)">
        <path id="Trazado_127" data-name="Trazado 127" d="M210.226,253.786a3.409,3.409,0,0,1-3.409-3.409v-3.409h-3.409a3.409,3.409,0,0,1,0-6.817h3.409v-3.409a3.409,3.409,0,1,1,6.817,0v3.409h3.409a3.409,3.409,0,1,1,0,6.817h-3.409v3.409a3.409,3.409,0,0,1-3.409,3.409" transform="translate(-179.548 -209.472)" fill="#fff"/>
      </g>
    </g>
    <g id="Grupo_459" data-name="Grupo 459" transform="translate(0)">
      <g id="Grupo_458" data-name="Grupo 458" transform="translate(0)" clip-path="url(#clip-path-2)">
        <rect id="Rect치ngulo_228" data-name="Rect치ngulo 228" width="61.361" height="68.169" transform="translate(-0.002)" fill="#fff"/>
      </g>
    </g>
  </g>
</svg>
