<svg xmlns="http://www.w3.org/2000/svg" xmlns:xlink="http://www.w3.org/1999/xlink" width="47.044" height="25.334" viewBox="0 0 47.044 40.334">
  <defs>
    <clipPath id="clip-path">
      <rect id="Rectángulo_212" data-name="Rectángulo 212" width="47" height="41" transform="translate(0 0)" fill="none"/>
    </clipPath>
  </defs>
  <g id="Grupo_435" data-name="Grupo 435" transform="translate(0 0)" clip-path="url(#clip-path)">
    <path id="Trazado_118" data-name="Trazado 118" d="M23.592,40.334a4.012,4.012,0,0,0,2.858-1.183L37.1,28.5h0l5.44-5.4.675-.675A13.022,13.022,0,0,0,34.048.182h-.026a12.937,12.937,0,0,0-9.189,3.8l-.013.013L23.593,5.237,22.372,4A13,13,0,0,0,3.606,21.98c.124.13.252.258.38.381l.659.659,16.09,16.127a4.012,4.012,0,0,0,2.857,1.186m16.191-20-5.445,5.4-10.65,10.65a.133.133,0,0,1-.188,0L7.409,20.26l-.706-.7c-.093-.089-.185-.182-.275-.276A9.09,9.09,0,0,1,19.564,6.712l.019.02L23.593,10.8l4-4.06A9.116,9.116,0,0,1,40.456,19.663l-.672.673Z" transform="translate(-0.001 0)" fill="#00b3a0"/>
    <path id="Trazado_119" data-name="Trazado 119" d="M280.486,221.719H282.6V219.6a2.129,2.129,0,0,1,4.257,0v2.117h2.117a2.129,2.129,0,1,1,0,4.257H286.86v2.14a2.129,2.129,0,0,1-4.257,0v-2.14h-2.117a2.129,2.129,0,0,1,0-4.257" transform="translate(-261.139 -204.131)" fill="#049ae7"/>
  </g>
</svg>
